<svg xmlns="http://www.w3.org/2000/svg" width="48" height="48" viewBox="0 0 2697 2697" version="1.1"><path d="M 1260.500 378.085 C 1238.668 379.044, 1212.114 381.393, 1188.500 384.454 C 1182.450 385.238, 1173.225 386.394, 1168 387.023 C 1158.056 388.220, 1135.490 391.813, 1121 394.506 C 1116.325 395.375, 1106.200 397.179, 1098.500 398.513 C 1090.800 399.848, 1080.225 401.867, 1075 402.999 C 1069.775 404.131, 1056.714 406.840, 1045.976 409.018 C 1035.237 411.195, 1023.087 413.887, 1018.976 414.999 C 1014.864 416.111, 1005.425 418.580, 998 420.485 C 979.334 425.274, 943.652 437.719, 930.500 444.027 C 929.400 444.554, 926.700 445.613, 924.500 446.379 C 922.300 447.145, 916.225 449.803, 911 452.286 C 905.775 454.769, 899.475 457.697, 897 458.793 C 894.525 459.888, 887.325 463.256, 881 466.276 C 874.675 469.296, 867.475 472.693, 865 473.823 C 862.525 474.954, 858.475 477.001, 856 478.371 C 853.525 479.741, 848.800 482.172, 845.500 483.774 C 836.821 487.986, 815.673 499.067, 814.500 500.017 C 813.950 500.463, 809.900 502.728, 805.500 505.052 C 801.100 507.376, 795.700 510.473, 793.500 511.935 C 791.300 513.397, 786.575 516.111, 783 517.967 C 779.425 519.822, 776.350 521.714, 776.167 522.170 C 775.983 522.627, 775.414 523, 774.901 523 C 772.536 523, 732.049 550.031, 717.290 561.464 C 714.425 563.684, 709.303 567.525, 705.908 570 C 702.512 572.475, 699.232 574.965, 698.617 575.533 C 698.003 576.101, 695.925 577.661, 694 579 C 692.075 580.339, 689.899 582.018, 689.163 582.732 C 688.428 583.446, 686.178 585.261, 684.163 586.765 C 682.149 588.269, 679.989 589.950, 679.364 590.500 C 678.740 591.050, 674.953 594.200, 670.950 597.500 C 666.946 600.800, 661.139 605.750, 658.044 608.500 C 654.949 611.250, 649.527 615.975, 645.996 619 C 640.200 623.964, 630.237 633.297, 610.766 652 C 603.464 659.014, 567.690 697.555, 561.363 705.225 C 559.238 707.800, 553.180 714.990, 547.901 721.203 C 542.622 727.416, 534.817 737, 530.557 742.500 C 526.298 748, 521.959 753.511, 520.916 754.746 C 519.873 755.982, 517.383 759.357, 515.384 762.246 C 513.384 765.136, 510.747 768.625, 509.524 770 C 508.300 771.375, 504.688 776.325, 501.497 781 C 498.306 785.675, 494.639 790.892, 493.348 792.594 C 492.056 794.296, 490.995 796.096, 490.989 796.594 C 490.984 797.092, 488.930 800.200, 486.426 803.500 C 483.921 806.800, 481.159 810.850, 480.287 812.500 C 479.414 814.150, 476.814 818.425, 474.507 822 C 467.958 832.150, 458.477 848.140, 453.857 856.829 C 452.299 859.760, 450.200 863.360, 449.193 864.829 C 448.186 866.298, 445.414 871.325, 443.033 876 C 440.652 880.675, 437.963 885.625, 437.057 887 C 436.152 888.375, 434.366 891.750, 433.090 894.500 C 431.813 897.250, 429.388 902.200, 427.701 905.500 C 417.959 924.560, 408.611 944.591, 406.002 952 C 405.324 953.925, 403.647 957.975, 402.275 961 C 398.905 968.432, 396.157 975.394, 393.986 982 C 392.992 985.025, 391.162 989.750, 389.920 992.500 C 387.011 998.938, 372.662 1039.624, 369.993 1049 C 369.288 1051.475, 367.670 1056.514, 366.397 1060.197 C 363.925 1067.346, 360.094 1081.667, 358.022 1091.500 C 357.327 1094.800, 355.505 1102.225, 353.973 1108 C 351.045 1119.044, 347.949 1132.440, 346.001 1142.500 C 345.362 1145.800, 344.172 1151.105, 343.357 1154.290 C 340.428 1165.727, 337.959 1179.790, 335.947 1196.500 C 327.965 1262.761, 327.409 1268.882, 326 1305.898 C 324.496 1345.448, 326.299 1386.323, 331.518 1431 C 332.321 1437.875, 333.889 1451.600, 335.002 1461.500 C 337.480 1483.544, 339.522 1496.849, 342.137 1508 C 343.234 1512.675, 344.968 1521, 345.990 1526.500 C 348.543 1540.231, 350.677 1549.651, 354.030 1562 C 355.598 1567.775, 358.258 1578.125, 359.940 1585 C 361.623 1591.875, 364.356 1601.775, 366.014 1607 C 367.672 1612.225, 369.536 1618.300, 370.156 1620.500 C 372.093 1627.368, 377.165 1642.317, 378.978 1646.500 C 379.932 1648.700, 382.172 1654.983, 383.957 1660.461 C 385.742 1665.940, 388.461 1673.140, 389.999 1676.461 C 391.537 1679.783, 393.794 1685.425, 395.013 1689 C 396.233 1692.575, 399.010 1699.325, 401.184 1704 C 405.146 1712.519, 406.258 1715.059, 407.860 1719.250 C 408.333 1720.487, 410.530 1725.325, 412.742 1730 C 414.954 1734.675, 417.531 1740.300, 418.468 1742.500 C 419.905 1745.871, 424.192 1754.639, 427.859 1761.705 C 428.371 1762.692, 430.284 1766.650, 432.109 1770.500 C 433.935 1774.350, 436.431 1779.138, 437.657 1781.139 C 438.882 1783.141, 441.759 1788.316, 444.049 1792.639 C 446.339 1796.963, 448.777 1801.175, 449.466 1802 C 450.156 1802.825, 452.066 1805.975, 453.712 1809 C 458.560 1817.911, 467.419 1832.800, 473.985 1843.073 C 477.350 1848.338, 480.750 1853.891, 481.539 1855.413 C 482.329 1856.936, 484.266 1859.828, 485.843 1861.841 C 487.420 1863.853, 489.288 1866.600, 489.994 1867.944 C 490.700 1869.288, 495.378 1876.142, 500.389 1883.175 C 505.400 1890.207, 511.002 1898.108, 512.839 1900.731 C 520.017 1910.985, 535.722 1931.116, 550.361 1948.828 C 566.512 1968.369, 613.341 2016.478, 639 2039.890 C 646.975 2047.167, 655.546 2055.022, 658.047 2057.347 C 660.547 2059.672, 664.147 2062.679, 666.047 2064.030 C 667.946 2065.380, 671.056 2067.951, 672.958 2069.743 C 674.860 2071.534, 676.741 2073, 677.137 2073 C 677.533 2073, 678.452 2073.565, 679.179 2074.256 C 679.905 2074.947, 682.075 2076.778, 684 2078.324 C 685.925 2079.871, 689.075 2082.427, 691 2084.005 C 697.931 2089.685, 703.605 2094.020, 709.500 2098.138 C 712.800 2100.444, 717.525 2103.966, 720 2105.965 C 725.391 2110.320, 743.497 2123.186, 746.961 2125.123 C 748.315 2125.881, 750.100 2127.128, 750.929 2127.896 C 752.649 2129.491, 765.769 2138, 766.508 2138 C 766.776 2138, 769.134 2139.524, 771.748 2141.387 C 774.361 2143.250, 778.076 2145.612, 780.002 2146.637 C 781.928 2147.662, 786.653 2150.574, 790.502 2153.108 C 794.351 2155.642, 799.975 2159.078, 803 2160.742 C 806.025 2162.406, 811.656 2165.507, 815.514 2167.634 C 819.372 2169.760, 823.872 2172.156, 825.514 2172.957 C 827.156 2173.758, 829.175 2174.942, 830 2175.587 C 834.116 2178.805, 885.478 2203.896, 897.091 2208.362 C 900.616 2209.718, 905.859 2211.990, 908.743 2213.412 C 911.626 2214.834, 916.801 2216.964, 920.243 2218.145 C 923.684 2219.326, 929.200 2221.506, 932.500 2222.990 C 935.800 2224.475, 943.900 2227.588, 950.500 2229.909 C 957.100 2232.230, 964.698 2235.038, 967.385 2236.150 C 970.072 2237.262, 977.947 2239.941, 984.885 2242.103 C 991.823 2244.266, 998.850 2246.514, 1000.500 2247.099 C 1011.605 2251.040, 1021.789 2254.078, 1033.749 2257.016 C 1038.286 2258.130, 1043.011 2259.436, 1044.249 2259.917 C 1047.415 2261.147, 1059.565 2264.304, 1067.500 2265.959 C 1070.250 2266.532, 1077.900 2268.174, 1084.500 2269.608 C 1101.827 2273.373, 1109.852 2274.923, 1123 2277.043 C 1129.799 2278.140, 1134.712 2278.775, 1157 2281.436 C 1164.425 2282.323, 1171.174 2283.291, 1171.997 2283.588 C 1173.477 2284.121, 1184.525 2285.346, 1203 2287.025 C 1265.765 2292.730, 1351.707 2291.198, 1401.500 2283.485 C 1406.450 2282.719, 1416.575 2281.381, 1424 2280.512 C 1439.079 2278.747, 1449.253 2277.160, 1453 2275.987 C 1454.375 2275.557, 1458.087 2274.442, 1461.248 2273.510 C 1464.410 2272.578, 1467.249 2271.407, 1467.557 2270.908 C 1467.866 2270.408, 1470.061 2270, 1472.437 2270 C 1478.062 2270, 1479.967 2267.967, 1477.063 2265.063 C 1475.094 2263.094, 1474.341 2263.030, 1461.746 2263.746 C 1440.818 2264.937, 1347.348 2264.623, 1330.500 2263.305 C 1317.236 2262.268, 1274.893 2258.167, 1255.500 2256.043 C 1251.650 2255.621, 1244 2254.334, 1238.500 2253.182 C 1233 2252.031, 1222.650 2250.164, 1215.500 2249.034 C 1191.373 2245.222, 1183.514 2243.868, 1180 2242.917 C 1171.013 2240.487, 1152.725 2235.662, 1145.500 2233.816 C 1141.100 2232.692, 1133.225 2230.485, 1128 2228.912 C 1122.775 2227.339, 1112.425 2224.500, 1105 2222.602 C 1097.575 2220.704, 1086.100 2217.350, 1079.500 2215.149 C 1072.900 2212.948, 1065.025 2210.409, 1062 2209.507 C 1058.975 2208.606, 1052.225 2206.152, 1047 2204.056 C 1041.775 2201.959, 1034.350 2199.218, 1030.500 2197.964 C 1026.650 2196.711, 1020.350 2194.244, 1016.500 2192.482 C 1012.650 2190.721, 1007.700 2188.702, 1005.500 2187.996 C 1003.300 2187.290, 995.789 2184.077, 988.808 2180.856 C 981.828 2177.635, 975.880 2175, 975.590 2175 C 974.891 2175, 953.628 2164.801, 932.500 2154.331 C 916.062 2146.186, 899.313 2137.328, 890 2131.856 C 887.525 2130.401, 883.475 2128.135, 881 2126.819 C 875.853 2124.082, 867.608 2119.019, 854.829 2110.750 C 849.942 2107.587, 845.704 2105, 845.411 2105 C 844.952 2105, 833.761 2097.829, 821.871 2089.915 C 813.148 2084.109, 799.344 2074.473, 794.626 2070.895 C 791.807 2068.758, 789.143 2067.007, 788.706 2067.004 C 788.270 2067.002, 786.695 2065.835, 785.206 2064.411 C 783.718 2062.986, 780.706 2060.624, 778.513 2059.161 C 773.892 2056.077, 774.708 2056.709, 760.625 2045.306 C 754.644 2040.463, 747.900 2035.150, 745.639 2033.500 C 743.378 2031.850, 739.402 2028.530, 736.804 2026.122 C 734.206 2023.714, 731.049 2021.042, 729.790 2020.183 C 717.835 2012.032, 637.110 1931.115, 626.971 1917.118 C 625.293 1914.802, 623.247 1912.648, 622.425 1912.333 C 621.603 1912.017, 619.512 1909.676, 617.778 1907.130 C 616.044 1904.583, 613.887 1901.825, 612.984 1901 C 612.081 1900.175, 608.902 1896.311, 605.921 1892.414 C 602.939 1888.517, 599.257 1883.792, 597.738 1881.914 C 593.659 1876.872, 584.932 1865.378, 581.500 1860.527 C 579.850 1858.195, 576.925 1854.359, 575 1852.004 C 573.075 1849.648, 570.600 1846.250, 569.500 1844.453 C 566.925 1840.247, 549.919 1816.657, 548.987 1816 C 548.598 1815.725, 547.531 1814.039, 546.616 1812.254 C 545.701 1810.468, 542.483 1805.381, 539.466 1800.950 C 536.448 1796.518, 532.829 1790.778, 531.424 1788.196 C 530.018 1785.613, 525.769 1778.325, 521.980 1772 C 518.191 1765.675, 513.030 1756.498, 510.511 1751.606 C 507.992 1746.714, 505.111 1741.539, 504.110 1740.106 C 503.108 1738.673, 500.219 1733.225, 497.690 1728 C 495.162 1722.775, 491.969 1716.475, 490.596 1714 C 489.222 1711.525, 486.752 1706.575, 485.106 1703 C 483.460 1699.425, 480.825 1694.250, 479.250 1691.500 C 477.675 1688.750, 475.332 1683.800, 474.044 1680.500 C 472.755 1677.200, 470.365 1671.800, 468.732 1668.500 C 465.502 1661.973, 465.659 1662.346, 460.946 1650 C 459.162 1645.325, 456.928 1639.925, 455.982 1638 C 453.441 1632.828, 452.481 1630.290, 449.929 1622 C 448.659 1617.875, 446.535 1612.025, 445.209 1609 C 442.420 1602.636, 441.620 1600.241, 438.864 1590 C 437.754 1585.875, 435.485 1578.675, 433.821 1574 C 432.157 1569.325, 430.565 1564.257, 430.282 1562.738 C 430 1561.219, 429.371 1559.729, 428.885 1559.429 C 428.398 1559.128, 428 1557.723, 428 1556.307 C 428 1554.891, 427.514 1551.880, 426.921 1549.616 C 426.327 1547.352, 425.452 1543.925, 424.975 1542 C 424.499 1540.075, 422.710 1533.775, 421 1528 C 417.070 1514.725, 416.428 1512.097, 415.017 1503.500 C 413.159 1492.184, 411.564 1484.788, 408.436 1473 C 406.040 1463.971, 405.351 1459.749, 401.989 1433.500 C 401.495 1429.650, 400.636 1423.575, 400.079 1420 C 399.522 1416.425, 398.604 1410.125, 398.040 1406 C 397.476 1401.875, 396.561 1396.250, 396.007 1393.500 C 392.002 1373.635, 391.997 1230.917, 396 1216 C 397.327 1211.057, 400.447 1190.541, 403.947 1163.750 C 405.189 1154.241, 406.587 1146.442, 407.934 1141.500 C 408.534 1139.300, 409.515 1135.250, 410.113 1132.500 C 410.712 1129.750, 411.612 1125.700, 412.113 1123.500 C 412.614 1121.300, 413.507 1116.800, 414.098 1113.500 C 417.183 1096.254, 418.479 1090.529, 420.997 1083 C 423.971 1074.114, 428 1058.250, 428 1055.431 C 428 1054.159, 428.450 1052.840, 429 1052.500 C 429.550 1052.160, 430 1050.874, 430 1049.641 C 430 1048.408, 430.377 1046.973, 430.837 1046.450 C 431.581 1045.606, 438.253 1025.105, 441.235 1014.500 C 441.854 1012.300, 442.657 1010.050, 443.019 1009.500 C 443.917 1008.137, 449.566 993.435, 451.087 988.500 C 451.766 986.300, 453.822 981.246, 455.657 977.270 C 457.491 973.293, 460.151 966.993, 461.567 963.270 C 464.335 955.994, 467.254 949.733, 479.891 923.969 C 484.351 914.878, 488 907.161, 488 906.822 C 488 906.482, 489.702 903.346, 491.781 899.852 C 493.861 896.358, 496.660 891.025, 498 888 C 499.341 884.975, 502.291 879.350, 504.555 875.500 C 506.819 871.650, 509.807 866.250, 511.194 863.500 C 516.791 852.404, 544.162 809.087, 554 795.755 C 555.925 793.147, 559.075 788.734, 561 785.950 C 562.925 783.166, 565.341 779.901, 566.368 778.694 C 567.396 777.487, 569.243 774.925, 570.474 773 C 571.704 771.075, 574.801 767.052, 577.355 764.060 C 579.910 761.068, 582 758.260, 582 757.820 C 582 757.381, 584.138 754.577, 586.750 751.590 C 589.363 748.603, 594.425 742.707, 598 738.486 C 601.575 734.266, 606.698 728.375, 609.386 725.394 C 612.073 722.413, 615.448 718.421, 616.886 716.522 C 620.485 711.769, 678.044 654.790, 691.661 642.500 C 707.747 627.982, 714.944 621.862, 719.793 618.577 C 722.154 616.977, 724.437 615.042, 724.866 614.276 C 725.294 613.510, 727.454 611.672, 729.666 610.192 C 731.878 608.711, 735.445 606.073, 737.594 604.328 C 743.257 599.729, 758.391 588.500, 766.500 582.881 C 777.775 575.067, 782.189 571.928, 787.500 567.946 C 790.250 565.884, 794.975 562.758, 798 561 C 801.025 559.242, 805.750 556.137, 808.500 554.101 C 811.250 552.065, 814.850 549.753, 816.500 548.965 C 818.150 548.176, 821.764 545.949, 824.531 544.015 C 829.466 540.567, 830.590 539.875, 837.887 535.789 C 839.874 534.676, 842.681 532.928, 844.124 531.905 C 845.566 530.881, 850.291 528.172, 854.624 525.883 C 858.956 523.595, 864.300 520.534, 866.500 519.081 C 868.700 517.628, 871.737 515.890, 873.250 515.219 C 874.763 514.549, 877.237 513.449, 878.750 512.775 C 880.263 512.102, 884.688 509.653, 888.584 507.334 C 892.480 505.014, 897.655 502.336, 900.084 501.382 C 902.513 500.428, 907.425 498.106, 911 496.222 C 914.575 494.338, 919.742 491.908, 922.483 490.821 C 925.223 489.735, 929.849 487.755, 932.762 486.423 C 935.676 485.090, 938.348 484, 938.701 484 C 939.054 484, 940.053 483.383, 940.921 482.629 C 941.790 481.875, 945.425 480.283, 949 479.091 C 952.575 477.900, 959.775 474.857, 965 472.331 C 976.029 466.997, 976.413 466.836, 985 463.936 C 988.575 462.729, 994.245 460.508, 997.599 459.002 C 1000.954 457.495, 1006.129 455.654, 1009.099 454.911 C 1012.070 454.168, 1019.450 451.843, 1025.500 449.744 C 1031.550 447.645, 1040.550 444.819, 1045.500 443.464 C 1057.002 440.315, 1063.434 438.402, 1074 434.986 C 1078.675 433.475, 1084.075 431.926, 1086 431.543 C 1089.853 430.779, 1098.360 428.858, 1108.750 426.408 C 1112.463 425.533, 1117.975 424.017, 1121 423.040 C 1124.025 422.063, 1130.550 420.489, 1135.500 419.542 C 1145.857 417.561, 1170.540 411.393, 1173.500 410.047 C 1176.306 408.771, 1189.849 407.027, 1205.342 405.945 C 1212.579 405.440, 1223.225 404.566, 1229 404.003 C 1247.377 402.213, 1263.760 401.045, 1292 399.512 C 1345.012 396.636, 1351.426 396.595, 1376.500 398.983 C 1389.150 400.187, 1405.125 401.577, 1412 402.071 C 1432.321 403.531, 1445.719 404.786, 1459 406.473 C 1477.733 408.852, 1482.428 409.627, 1495 412.413 C 1501.325 413.815, 1514.150 416.354, 1523.500 418.056 C 1532.850 419.758, 1543.095 421.994, 1546.266 423.026 C 1553.085 425.245, 1568.725 429.144, 1582 431.936 C 1587.225 433.034, 1594.354 434.696, 1597.842 435.628 C 1602.256 436.807, 1604.970 437.045, 1606.773 436.411 C 1610.012 435.272, 1609.878 433.602, 1606.514 433.182 C 1605.113 433.007, 1604.201 432.483, 1604.489 432.018 C 1605.367 430.597, 1586.027 424.871, 1533 410.850 C 1507.387 404.078, 1486.269 398.852, 1477.500 397.117 C 1474.200 396.463, 1465.200 394.626, 1457.500 393.033 C 1442.234 389.876, 1434.515 388.636, 1420 387.011 C 1414.775 386.426, 1406.900 385.498, 1402.500 384.949 C 1393.631 383.843, 1371.263 381.329, 1363.500 380.566 C 1339.026 378.159, 1287.218 376.912, 1260.500 378.085 M 1324.769 622.526 C 1321.609 625.545, 1320.727 625.924, 1319.007 625.004 C 1316.164 623.482, 1312.248 625.528, 1302.486 633.638 C 1285.321 647.897, 1273.175 660.782, 1258.179 680.641 C 1253.136 687.318, 1248.296 693.056, 1247.424 693.391 C 1246.551 693.726, 1233.611 694.004, 1218.668 694.010 C 1186.228 694.021, 1161.915 695.361, 1146.682 697.978 C 1122.759 702.087, 1089.958 715.982, 1074.158 728.700 C 1071.220 731.065, 1068.439 733, 1067.978 733 C 1066.387 733, 1042.320 757.512, 1039.014 762.500 C 1037.191 765.250, 1034.858 768.439, 1033.829 769.586 C 1032.800 770.734, 1029.799 775.684, 1027.159 780.586 C 1024.519 785.489, 1020.933 791.750, 1019.190 794.500 C 1017.409 797.310, 1014.913 803.660, 1013.491 809 C 1012.099 814.225, 1010.241 820.975, 1009.360 824 C 1004.449 840.870, 1003.836 855.188, 1003.352 964.250 C 1003.109 1019.112, 1002.818 1064.047, 1002.705 1064.103 C 1002.592 1064.160, 957.950 1064.608, 903.500 1065.097 C 774.973 1066.253, 771.465 1066.489, 749.500 1075.466 C 747.850 1076.141, 744.700 1077.241, 742.500 1077.912 C 732.697 1080.902, 707.168 1094.222, 704 1098 C 703.725 1098.328, 701.925 1099.662, 700 1100.963 C 695.183 1104.221, 672.492 1127.484, 668.752 1133 C 667.073 1135.475, 664.911 1138.400, 663.947 1139.500 C 658.054 1146.225, 644 1175.850, 644 1181.546 C 644 1182.676, 643.622 1184.027, 643.159 1184.550 C 642.697 1185.072, 641.384 1189.325, 640.241 1194 C 633.934 1219.813, 633.728 1226.323, 634.320 1381 C 634.903 1533.242, 635.451 1548.668, 641.049 1570.500 C 642.177 1574.900, 643.498 1580.323, 643.983 1582.552 C 646.049 1592.037, 659.545 1619.922, 664.770 1625.500 C 666.315 1627.150, 668.297 1629.537, 669.173 1630.805 C 673.507 1637.078, 697.974 1662.478, 704.500 1667.479 C 708.719 1670.713, 730.768 1682.052, 741.500 1686.508 C 761.278 1694.719, 774.130 1698.163, 791.500 1699.906 C 810.350 1701.797, 866.772 1703.004, 936.250 1703.002 L 1003 1703 1003.056 1767.750 C 1003.109 1829.213, 1004.995 1905.177, 1006.936 1924 C 1008.399 1938.190, 1008.417 1938.270, 1014.518 1958 C 1019.666 1974.644, 1037.822 2002.880, 1053.416 2018.494 C 1061.208 2026.295, 1074.196 2037.016, 1079.867 2040.326 C 1081.865 2041.493, 1085.430 2043.909, 1087.790 2045.696 C 1090.149 2047.482, 1093.749 2049.700, 1095.790 2050.625 C 1097.830 2051.549, 1102.867 2053.868, 1106.983 2055.777 C 1116.239 2060.071, 1127.158 2063.409, 1137 2064.954 C 1141.125 2065.602, 1146.075 2066.518, 1148 2066.991 C 1151.537 2067.859, 1159.868 2069.106, 1174.500 2070.957 C 1184.846 2072.266, 1316.795 2073.518, 1341.175 2072.539 C 1356.807 2071.911, 1360.152 2071.507, 1361.706 2070.059 C 1363.554 2068.337, 1363.814 2066.940, 1366.933 2041.948 C 1367.520 2037.245, 1368 2031.200, 1368 2028.516 C 1368 2025.832, 1368.429 2019.780, 1368.954 2015.068 C 1371.222 1994.713, 1372.158 1953.437, 1371.080 1921.383 C 1369.287 1868.051, 1366.482 1841.519, 1360.045 1817 C 1359.540 1815.075, 1358.404 1809.225, 1357.521 1804 C 1355.257 1790.607, 1353.582 1783.249, 1348.981 1766.500 C 1347.471 1761, 1345.713 1754.025, 1345.076 1751 C 1343.715 1744.542, 1343.156 1742.415, 1338.643 1726.500 C 1336.771 1719.900, 1334.008 1709.325, 1332.502 1703 C 1330.997 1696.675, 1328.282 1686.775, 1326.468 1681 C 1324.655 1675.225, 1321.937 1665.550, 1320.430 1659.500 C 1318.922 1653.450, 1316.362 1644.675, 1314.741 1640 C 1313.120 1635.325, 1310.471 1626.775, 1308.854 1621 C 1307.238 1615.225, 1305.006 1608.025, 1303.894 1605 C 1302.783 1601.975, 1301.029 1596.800, 1299.997 1593.500 C 1296.287 1581.631, 1291.060 1565.332, 1288.133 1556.500 C 1286.492 1551.550, 1283.797 1543.225, 1282.143 1538 C 1280.489 1532.775, 1278.231 1526.025, 1277.123 1523 C 1276.016 1519.975, 1274.426 1514.794, 1273.589 1511.486 C 1271.971 1505.090, 1269.686 1497.864, 1265.689 1486.500 C 1264.335 1482.650, 1262.004 1475, 1260.509 1469.500 C 1259.014 1464, 1256.333 1455.450, 1254.551 1450.500 C 1252.770 1445.550, 1250.741 1439.025, 1250.044 1436 C 1249.347 1432.975, 1246.741 1424.425, 1244.254 1417 C 1241.767 1409.575, 1238.861 1400.125, 1237.797 1396 C 1234.591 1383.574, 1234.389 1382.883, 1230.774 1372 C 1228.856 1366.225, 1226.061 1356.325, 1224.563 1350 C 1223.065 1343.675, 1220.825 1335.350, 1219.586 1331.500 C 1216.870 1323.057, 1215.494 1318.132, 1214 1311.500 C 1212.610 1305.328, 1211.139 1299.448, 1209.997 1295.500 C 1204.301 1275.803, 1203 1270.897, 1203 1269.115 C 1203 1267.221, 1202.510 1264.777, 1199.973 1254 C 1199.520 1252.075, 1198.608 1247.800, 1197.947 1244.500 C 1197.286 1241.200, 1195.948 1235.575, 1194.973 1232 C 1192.668 1223.550, 1192.129 1220.931, 1190.959 1212.500 C 1190.425 1208.650, 1189.577 1203.025, 1189.074 1200 C 1188.571 1196.975, 1187.693 1191.575, 1187.124 1188 C 1185.064 1175.075, 1184.105 1169.402, 1183.069 1164 C 1182.488 1160.975, 1181.529 1154.225, 1180.938 1149 C 1179.887 1139.720, 1179.525 1134.663, 1176.817 1091.500 C 1173.546 1039.351, 1176.765 954.893, 1183.076 927.248 C 1183.673 924.637, 1184.598 920.250, 1185.132 917.500 C 1186.563 910.133, 1187.787 904.071, 1188.867 899 C 1189.394 896.525, 1190.113 892.700, 1190.464 890.500 C 1191.307 885.227, 1192.612 880.386, 1196.128 869.500 C 1200.054 857.344, 1200.619 855.381, 1202.029 849 C 1202.698 845.975, 1203.609 842.600, 1204.055 841.500 C 1206.694 834.982, 1213.037 817.894, 1214.078 814.500 C 1214.752 812.300, 1216.401 808.041, 1217.741 805.036 C 1219.081 802.030, 1221.774 795.505, 1223.725 790.536 C 1225.677 785.566, 1229.912 776.078, 1233.137 769.451 C 1236.361 762.824, 1239 756.924, 1239 756.341 C 1239 755.757, 1240.124 753.623, 1241.497 751.600 C 1242.870 749.576, 1246.074 744.001, 1248.617 739.210 C 1251.160 734.420, 1254.034 729.375, 1255.003 728 C 1255.972 726.625, 1258.790 721.450, 1261.264 716.500 C 1268.802 701.419, 1281.842 681.459, 1291.579 670.094 C 1293.273 668.117, 1296.036 664.475, 1297.720 662 C 1299.403 659.525, 1308.282 649.707, 1317.451 640.182 C 1327.970 629.254, 1334.003 622.243, 1333.802 621.182 C 1333.206 618.041, 1328.774 618.700, 1324.769 622.526 M 1451.324 694.651 C 1448.384 697.189, 1445.182 707.266, 1442.635 722 C 1442.397 723.375, 1441.027 728.550, 1439.591 733.500 C 1435.374 748.030, 1434.195 753.129, 1431.964 766.500 C 1431.321 770.350, 1429.069 780.700, 1426.959 789.500 C 1424.849 798.300, 1422.872 807.075, 1422.566 809 C 1420.476 822.169, 1419.750 827.500, 1419.029 835 C 1418.579 839.675, 1417.247 849.575, 1416.069 857 C 1406.689 916.143, 1403.578 983.847, 1406.790 1059 C 1408.907 1108.556, 1411.491 1137.116, 1416.062 1161.500 C 1417.197 1167.550, 1418.327 1174.075, 1418.575 1176 C 1419.618 1184.108, 1421.139 1193.769, 1421.959 1197.500 C 1422.442 1199.700, 1423.391 1204.200, 1424.068 1207.500 C 1424.745 1210.800, 1426.414 1217.325, 1427.778 1222 C 1429.141 1226.675, 1430.604 1232.525, 1431.028 1235 C 1432.355 1242.741, 1433.916 1250.362, 1434.921 1254 C 1437.109 1261.923, 1437.954 1264.771, 1439.732 1270.216 C 1440.759 1273.360, 1441.914 1276.248, 1442.299 1276.633 C 1442.685 1277.018, 1443 1278.361, 1443 1279.618 C 1443 1284.216, 1452.227 1313.561, 1454.336 1315.670 C 1454.701 1316.035, 1455 1317.362, 1455 1318.620 C 1455 1319.877, 1455.403 1321.940, 1455.896 1323.203 C 1456.389 1324.466, 1457.370 1327.525, 1458.076 1330 C 1458.782 1332.475, 1459.657 1334.950, 1460.019 1335.500 C 1461.031 1337.036, 1466.603 1351.943, 1468.055 1357 C 1468.766 1359.475, 1469.720 1361.927, 1470.174 1362.450 C 1470.628 1362.972, 1471 1363.976, 1471 1364.681 C 1471 1365.385, 1472.800 1369.804, 1475 1374.500 C 1477.200 1379.196, 1479 1383.402, 1479 1383.847 C 1479 1385.127, 1483.640 1396.207, 1487.484 1404.106 C 1489.418 1408.079, 1491 1411.786, 1491 1412.343 C 1491 1413.833, 1508.050 1449.276, 1513.233 1458.560 C 1514.480 1460.794, 1516.366 1464.619, 1517.424 1467.060 C 1518.482 1469.502, 1521.070 1474.320, 1523.174 1477.768 C 1525.278 1481.215, 1527 1484.376, 1527 1484.792 C 1527 1485.208, 1529.067 1489.138, 1531.594 1493.524 C 1534.120 1497.911, 1537.667 1504.200, 1539.476 1507.500 C 1542.571 1513.146, 1545.724 1518.497, 1558.037 1539 C 1560.845 1543.675, 1564.685 1550.088, 1566.571 1553.250 C 1575.061 1567.486, 1577.149 1570.958, 1581.459 1578 C 1589.426 1591.016, 1596.124 1602.311, 1599.250 1608 C 1600.912 1611.025, 1603.869 1616.171, 1605.821 1619.435 C 1607.773 1622.699, 1611.071 1628.774, 1613.151 1632.935 C 1615.231 1637.096, 1617.992 1642.300, 1619.287 1644.500 C 1620.582 1646.700, 1623.343 1652.775, 1625.423 1658 C 1627.503 1663.225, 1629.807 1668.456, 1630.543 1669.624 C 1631.278 1670.792, 1633.298 1676.192, 1635.030 1681.624 C 1636.762 1687.056, 1639.462 1695.100, 1641.029 1699.500 C 1647.401 1717.389, 1650.939 1746.644, 1651.431 1785.500 C 1651.584 1797.600, 1652.047 1808.287, 1652.461 1809.250 C 1653.342 1811.299, 1658.240 1811.634, 1659.771 1809.750 C 1662.281 1806.662, 1671.642 1788.986, 1674.157 1782.587 C 1675.256 1779.789, 1676.747 1776.150, 1677.469 1774.500 C 1681.155 1766.082, 1684.113 1745.138, 1684.884 1722 L 1685.500 1703.500 1755.500 1702.841 C 1826.796 1702.169, 1847.876 1701.317, 1863 1698.495 C 1867.675 1697.623, 1873.750 1696.498, 1876.500 1695.995 C 1900.562 1691.592, 1924.515 1680.344, 1945.619 1663.539 C 1952.721 1657.883, 1975.245 1634.825, 1976.998 1631.414 C 1977.823 1629.811, 1978.752 1628.275, 1979.064 1628 C 1980.221 1626.981, 1985.733 1618.371, 1987.707 1614.500 C 1988.828 1612.300, 1990.893 1608.250, 1992.294 1605.500 C 1997.096 1596.077, 1999.543 1589.208, 2001.915 1578.500 C 2008.221 1550.028, 2007.819 1555.105, 2009.157 1487.076 C 2010.142 1436.994, 2010.143 1402.357, 2009.166 1318.759 C 2007.880 1208.798, 2007.471 1199.932, 2003.043 1186 C 2002.606 1184.625, 2001.672 1181.026, 2000.968 1178.003 C 2000.264 1174.980, 1997.918 1169.130, 1995.754 1165.003 C 1993.590 1160.876, 1990.467 1154.800, 1988.815 1151.500 C 1987.162 1148.200, 1984.122 1143.250, 1982.059 1140.500 C 1979.996 1137.750, 1977.645 1134.503, 1976.834 1133.284 C 1969.516 1122.286, 1951.638 1105.398, 1936.890 1095.548 C 1925.843 1088.172, 1904.958 1077, 1902.214 1077 C 1901.683 1077, 1898.611 1075.833, 1895.386 1074.407 C 1885.876 1070.201, 1873.597 1066.513, 1872.127 1067.421 C 1871.530 1067.790, 1870.020 1067.509, 1868.771 1066.796 C 1866.963 1065.764, 1843.578 1065.398, 1754 1065 L 1641.500 1064.500 1641.304 1017 C 1640.984 939.676, 1639.063 849.737, 1637.514 839.507 C 1636.157 830.551, 1632.314 814.636, 1629.522 806.414 C 1625.137 793.496, 1610.139 767.073, 1600.341 755 C 1592.082 744.825, 1576.845 731.449, 1564.500 723.538 C 1550.979 714.874, 1525.154 704.176, 1506.500 699.513 C 1497.515 697.267, 1478.089 694.612, 1461.983 693.428 C 1454.575 692.884, 1453.187 693.043, 1451.324 694.651 M 1132.905 901.750 C 1131.748 904.362, 1130.444 907.400, 1130.009 908.500 C 1129.573 909.600, 1127.760 913.650, 1125.979 917.500 C 1121.705 926.739, 1117 938.064, 1117 939.112 C 1117 939.573, 1115.598 942.999, 1113.885 946.725 C 1112.172 950.451, 1108.976 959.125, 1106.783 966 C 1104.590 972.875, 1101.735 981.425, 1100.439 985 C 1097.806 992.265, 1096.917 995.596, 1090.558 1022 C 1084.612 1046.689, 1084.018 1049.905, 1080.949 1074 C 1077.409 1101.789, 1075.029 1134.556, 1075.029 1155.500 C 1075.028 1176.138, 1077.671 1214.048, 1080.920 1240 C 1081.436 1244.125, 1082.358 1251.550, 1082.968 1256.500 C 1084.293 1267.249, 1086.688 1281.337, 1087.898 1285.500 C 1088.378 1287.150, 1089.309 1291.200, 1089.966 1294.500 C 1090.624 1297.800, 1091.560 1302.300, 1092.046 1304.500 C 1092.532 1306.700, 1093.394 1310.975, 1093.962 1314 C 1095.848 1324.049, 1099.011 1338.434, 1100.449 1343.500 C 1102.712 1351.472, 1104.605 1359.038, 1105.955 1365.500 C 1106.644 1368.800, 1108.773 1376.900, 1110.686 1383.500 C 1117.331 1406.432, 1117.918 1408.548, 1119.011 1413.500 C 1119.496 1415.700, 1121.880 1423.350, 1124.308 1430.500 C 1126.737 1437.650, 1129.281 1445.525, 1129.962 1448 C 1130.643 1450.475, 1132.298 1455.650, 1133.638 1459.500 C 1134.979 1463.350, 1137.684 1471.450, 1139.649 1477.500 C 1141.614 1483.550, 1144.309 1491.650, 1145.637 1495.500 C 1146.965 1499.350, 1149.646 1507.450, 1151.594 1513.500 C 1153.543 1519.550, 1156.069 1527.200, 1157.207 1530.500 C 1158.346 1533.800, 1161.050 1541.900, 1163.218 1548.500 C 1165.386 1555.100, 1168.081 1563.200, 1169.207 1566.500 C 1170.334 1569.800, 1172.485 1576.100, 1173.987 1580.500 C 1175.490 1584.900, 1177.261 1590.525, 1177.922 1593 C 1178.584 1595.475, 1180.250 1600.875, 1181.625 1605 C 1182.999 1609.125, 1184.812 1614.750, 1185.654 1617.500 C 1186.496 1620.250, 1187.593 1623.281, 1188.092 1624.236 C 1188.592 1625.191, 1189 1626.735, 1189 1627.665 C 1189 1628.596, 1189.422 1630.740, 1189.937 1632.429 C 1190.452 1634.118, 1191.544 1637.750, 1192.363 1640.500 C 1193.182 1643.250, 1194.952 1648.650, 1196.296 1652.500 C 1198.623 1659.164, 1199.628 1662.597, 1202.079 1672.250 C 1202.673 1674.588, 1204.929 1682.125, 1207.093 1689 C 1212.320 1705.608, 1212.612 1706.610, 1214.065 1713 C 1214.753 1716.025, 1216.409 1721.875, 1217.745 1726 C 1219.082 1730.125, 1220.546 1734.850, 1221.001 1736.500 C 1223.553 1745.770, 1224.847 1751.134, 1225.825 1756.500 C 1226.426 1759.800, 1227.122 1763.625, 1227.372 1765 C 1227.622 1766.375, 1228.780 1771.302, 1229.945 1775.949 C 1234.041 1792.277, 1237.118 1810.726, 1239.043 1830.500 C 1239.525 1835.450, 1240.863 1847.600, 1242.016 1857.500 C 1243.494 1870.180, 1244.282 1884.663, 1244.683 1906.500 C 1245.254 1937.638, 1244.674 1950.145, 1241.479 1975.500 C 1239.809 1988.750, 1238.632 2007.354, 1239.613 2005 C 1239.956 2004.175, 1242.615 1998.550, 1245.520 1992.500 C 1250.951 1981.193, 1256 1969.300, 1256 1967.817 C 1256 1967.356, 1256.850 1965.071, 1257.889 1962.739 C 1262.426 1952.561, 1264.216 1946.141, 1268.131 1926 C 1273.458 1898.604, 1274.466 1887.479, 1274.478 1856 C 1274.491 1821.286, 1273.684 1812.917, 1264.081 1748.234 C 1263.132 1741.841, 1259.724 1726.292, 1257.016 1716 C 1256.509 1714.075, 1255.824 1711.150, 1255.494 1709.500 C 1255.163 1707.850, 1254.508 1704.700, 1254.039 1702.500 C 1253.569 1700.300, 1252.731 1696, 1252.177 1692.945 C 1251.294 1688.081, 1250.150 1683.878, 1247.023 1674 C 1246.258 1671.583, 1245.040 1667.070, 1243.042 1659.250 C 1242.515 1657.188, 1241.554 1653.025, 1240.907 1650 C 1240.260 1646.975, 1238.443 1640.225, 1236.869 1635 C 1231.890 1618.466, 1230.705 1614.186, 1228.433 1604.521 C 1227.530 1600.683, 1225.778 1594.608, 1224.540 1591.021 C 1221.822 1583.150, 1220.042 1577.011, 1216.994 1565 C 1216.366 1562.525, 1214.712 1557.125, 1213.319 1553 C 1211.927 1548.875, 1210.385 1544.037, 1209.894 1542.250 C 1209.402 1540.463, 1208.520 1537.313, 1207.934 1535.250 C 1206.353 1529.693, 1204.944 1523.888, 1204.354 1520.500 C 1204.067 1518.850, 1203.168 1516.027, 1202.358 1514.226 C 1200.903 1510.995, 1196.906 1498.284, 1194.897 1490.500 C 1194.329 1488.300, 1193.445 1485.118, 1192.932 1483.429 C 1192.420 1481.740, 1192 1479.596, 1192 1478.665 C 1192 1477.735, 1191.556 1476.191, 1191.013 1475.236 C 1189.953 1473.372, 1185.041 1458.389, 1183.067 1451 C 1182.405 1448.525, 1181.445 1445.118, 1180.932 1443.429 C 1180.420 1441.740, 1180 1439.612, 1180 1438.700 C 1180 1437.788, 1178.814 1433.545, 1177.364 1429.271 C 1175.914 1424.997, 1174.378 1420.150, 1173.951 1418.500 C 1173.523 1416.850, 1172.526 1413.025, 1171.736 1410 C 1170.945 1406.975, 1169.751 1401.800, 1169.083 1398.500 C 1168.414 1395.200, 1167.009 1389.800, 1165.960 1386.500 C 1163.774 1379.624, 1160.851 1368.230, 1159.034 1359.500 C 1158.346 1356.200, 1157.383 1352.195, 1156.892 1350.601 C 1156.401 1349.006, 1156 1346.164, 1156 1344.285 C 1156 1342.406, 1155.595 1340.111, 1155.100 1339.184 C 1154.604 1338.258, 1152.874 1332.325, 1151.254 1326 C 1148.463 1315.102, 1147.647 1311.019, 1144.961 1294.500 C 1144.335 1290.650, 1143.218 1285.025, 1142.479 1282 C 1138.783 1266.870, 1133.794 1235.435, 1131.608 1213.500 C 1131.389 1211.300, 1130.077 1200.725, 1128.693 1190 C 1126.208 1170.736, 1125.127 1159.801, 1122.812 1130.500 C 1121.295 1111.292, 1121.339 1039.265, 1122.880 1019 C 1125.172 988.865, 1126.945 971.843, 1129.964 951 C 1131.039 943.575, 1132.409 933, 1133.008 927.500 C 1133.607 922, 1134.502 914.800, 1134.997 911.500 C 1136.881 898.941, 1137.018 897, 1136.017 897 C 1135.463 897, 1134.063 899.138, 1132.905 901.750" stroke="none" fill="#3263ab" fill-rule="evenodd"/><path d="M 1634.205 399.750 C 1630.525 402.943, 1625.451 410.526, 1623.636 415.547 C 1618.114 430.817, 1617.081 432.452, 1612.729 432.812 C 1610.649 432.983, 1609.223 433.552, 1609.550 434.080 C 1609.875 434.607, 1608.647 435.725, 1606.821 436.566 C 1603.605 438.046, 1603.590 438.082, 1606.328 437.671 C 1608.364 437.366, 1609.835 437.926, 1611.578 439.669 C 1614.396 442.487, 1614.494 443.903, 1612.571 454 C 1608.566 475.031, 1606.445 503.725, 1607.877 517.500 C 1611.999 557.136, 1624.775 591.665, 1645.242 618.483 C 1654.086 630.071, 1664.943 641.186, 1672.327 646.212 C 1675.531 648.394, 1679.356 651.436, 1680.827 652.972 C 1682.297 654.508, 1685.750 656.998, 1688.500 658.503 C 1693.539 661.263, 1702.879 668.437, 1704.227 670.584 C 1704.628 671.221, 1707.103 674.543, 1709.727 677.968 C 1714.713 684.471, 1718.643 690.448, 1719.612 693 C 1721.096 696.910, 1722.744 699.949, 1726.223 705.195 C 1728.300 708.327, 1730 711.344, 1730 711.898 C 1730 712.452, 1730.555 714.123, 1731.232 715.611 C 1732.770 718.986, 1741.402 723, 1747.124 723 C 1751.410 723, 1757 719.918, 1757 717.554 C 1757 714.586, 1759.746 713.739, 1765.734 714.861 C 1777.700 717.102, 1785.808 719.065, 1795.500 722.068 C 1806.211 725.387, 1809.396 726.242, 1818 728.111 C 1824.125 729.441, 1836.122 732.530, 1843 734.548 C 1860.795 739.769, 1863.857 740.052, 1866.786 736.750 C 1867.884 735.513, 1870.837 732.224, 1873.349 729.441 C 1878.768 723.438, 1891.311 706.726, 1893.139 703.073 C 1897.133 695.089, 1909.620 678.003, 1924.865 659.663 C 1935.684 646.646, 1936.555 642.992, 1929.641 639.616 C 1927.519 638.579, 1922.569 637.275, 1918.641 636.718 C 1911.008 635.634, 1909.674 635.878, 1888 642.330 C 1883.325 643.722, 1872.750 646.064, 1864.500 647.535 C 1850.391 650.050, 1848.252 650.175, 1828.500 649.641 C 1800.739 648.890, 1787.605 646.307, 1760.673 636.302 C 1753.567 633.662, 1729.972 622.098, 1717 614.896 C 1696.895 603.735, 1677.973 584.778, 1664.926 562.727 C 1662.071 557.902, 1659.387 553.739, 1658.960 553.475 C 1658.132 552.964, 1653.279 541.673, 1649.299 531 C 1646.736 524.126, 1643.026 504.233, 1643.051 497.500 L 1643.067 493.500 1644.938 495.743 C 1645.967 496.977, 1647.598 500.577, 1648.561 503.743 C 1649.525 506.909, 1651.551 512.200, 1653.063 515.500 C 1654.576 518.800, 1657.285 525.325, 1659.083 530 C 1660.881 534.675, 1663.157 539.672, 1664.141 541.105 C 1665.125 542.538, 1667.485 546.574, 1669.386 550.074 C 1671.287 553.574, 1674.790 558.647, 1677.171 561.346 C 1685.160 570.403, 1698.468 583.648, 1702 586.058 C 1703.925 587.371, 1706.351 589.226, 1707.392 590.179 C 1709.589 592.192, 1717.371 596, 1719.289 596 C 1720.010 596, 1721.140 595.460, 1721.800 594.800 C 1723.124 593.476, 1723.434 589.360, 1722.250 588.833 C 1721.838 588.650, 1718.127 584.675, 1714.004 580 C 1709.881 575.325, 1705.973 570.935, 1705.320 570.244 C 1704.666 569.553, 1703.846 568.091, 1703.498 566.994 C 1703.150 565.897, 1702.446 565, 1701.933 565 C 1701.420 565, 1701 564.525, 1701 563.945 C 1701 563.365, 1699.272 560.327, 1697.161 557.195 C 1695.050 554.063, 1693.062 550.600, 1692.744 549.500 C 1692.426 548.400, 1690.571 543.021, 1688.621 537.546 C 1686.670 532.071, 1685.240 527.427, 1685.441 527.226 C 1685.961 526.705, 1692 535.640, 1692 536.930 C 1692 537.519, 1692.340 538, 1692.756 538 C 1693.172 538, 1694.145 539.462, 1694.919 541.250 C 1696.565 545.052, 1702.021 553.350, 1703.192 553.833 C 1703.636 554.017, 1704 554.599, 1704 555.128 C 1704 556.283, 1713.007 569.668, 1715.689 572.500 C 1716.731 573.600, 1718.978 576.536, 1720.684 579.024 C 1724.714 584.903, 1746.787 607.174, 1754.500 613.144 C 1763.156 619.843, 1783.122 630.422, 1793 633.545 C 1797.675 635.022, 1802.180 636.566, 1803.012 636.975 C 1804.886 637.898, 1814.299 640.542, 1819 641.465 C 1831.671 643.956, 1864.381 643.721, 1871.276 641.089 C 1878.494 638.334, 1874.669 633.689, 1860.317 627.778 C 1847.005 622.296, 1836.845 614.817, 1829.658 605.212 C 1822.818 596.068, 1814.618 576.243, 1809.095 555.492 C 1806.898 547.238, 1804.434 538.889, 1803.619 536.939 C 1802.804 534.990, 1800.797 529.526, 1799.159 524.797 C 1795.364 513.845, 1786.009 495.790, 1780.477 488.742 C 1775.563 482.480, 1763.618 472.403, 1756.422 468.446 C 1753.715 466.958, 1750.825 465.166, 1750 464.463 C 1749.175 463.761, 1734.550 456.351, 1717.500 447.997 C 1651.524 415.672, 1652.116 416.022, 1645.822 405.499 C 1643.010 400.798, 1639.742 398, 1637.064 398 C 1636.601 398, 1635.314 398.788, 1634.205 399.750 M 1991.500 539.967 C 1990.400 540.458, 1987.594 540.891, 1985.264 540.930 C 1982.935 540.968, 1979.110 541.432, 1976.764 541.959 C 1974.419 542.487, 1969.800 543.435, 1966.500 544.066 C 1963.200 544.698, 1959.375 545.569, 1958 546.003 C 1956.625 546.437, 1952.125 547.770, 1948 548.964 C 1943.875 550.159, 1939.375 551.504, 1938 551.952 C 1936.625 552.401, 1933.475 553.324, 1931 554.002 C 1924.544 555.774, 1911.664 560.847, 1909.146 562.610 C 1906.207 564.669, 1906.227 571.075, 1909.186 575.346 C 1910.388 577.081, 1915.924 583, 1921.488 588.500 C 1927.051 594, 1933.456 601.019, 1935.720 604.097 C 1937.985 607.176, 1940.437 610.326, 1941.169 611.097 C 1941.901 611.869, 1943.573 614.525, 1944.884 617 C 1946.195 619.475, 1948.624 623.975, 1950.280 627 C 1954.857 635.358, 1957 639.797, 1957 640.920 C 1957 642.281, 1965.052 661.244, 1966.142 662.450 C 1966.614 662.973, 1967 664.414, 1967 665.653 C 1967 666.892, 1967.403 668.940, 1967.896 670.203 C 1968.389 671.466, 1969.349 674.525, 1970.030 677 C 1972.212 684.925, 1976.993 699.443, 1978.013 701.236 C 1978.556 702.191, 1979 703.939, 1979 705.120 C 1979 706.302, 1979.411 708.895, 1979.913 710.884 C 1980.416 712.873, 1981.334 716.975, 1981.955 720 C 1983.425 727.163, 1984.285 730.448, 1987.846 742.500 C 1989.471 748, 1991.338 755.200, 1991.996 758.500 C 1992.653 761.800, 1993.598 765.534, 1994.095 766.797 C 1994.593 768.060, 1995 769.734, 1995 770.515 C 1995 771.297, 1996.746 776.113, 1998.881 781.218 C 2001.016 786.323, 2003.804 793.200, 2005.078 796.500 C 2006.352 799.800, 2008.730 804.750, 2010.363 807.500 C 2011.996 810.250, 2014.625 815.131, 2016.205 818.346 C 2024.671 835.575, 2043.116 857.983, 2060.500 872.157 C 2080.805 888.713, 2121.774 910.543, 2147.500 918.515 C 2152.450 920.048, 2158.975 922.413, 2162 923.770 C 2165.025 925.127, 2173.350 928.361, 2180.500 930.957 C 2187.650 933.554, 2194.905 936.408, 2196.622 937.299 C 2198.339 938.190, 2203.289 940.310, 2207.622 942.010 C 2220.679 947.132, 2239.497 956.727, 2243.107 960.103 C 2244.973 961.848, 2248.075 964.448, 2250 965.882 C 2251.925 967.315, 2253.910 969.142, 2254.410 969.941 C 2254.911 970.741, 2257.836 974.194, 2260.910 977.615 C 2268.102 985.616, 2280 1004.599, 2280 1008.071 C 2280 1008.594, 2280.859 1010.929, 2281.910 1013.261 C 2285.617 1021.490, 2289.069 1031.041, 2290.035 1035.743 C 2290.572 1038.359, 2291.443 1042.750, 2291.970 1045.500 C 2293.883 1055.471, 2300.339 1077.445, 2302.989 1083 C 2303.382 1083.825, 2304.607 1084.635, 2305.710 1084.801 C 2308.192 1085.173, 2309.248 1082.734, 2311.948 1070.392 C 2313.045 1065.383, 2314.410 1060.052, 2314.982 1058.546 C 2317.160 1052.818, 2320.888 1038.184, 2322.127 1030.500 C 2322.982 1025.198, 2323.431 1011.539, 2323.458 990 C 2323.504 954.434, 2322.988 949.895, 2315.952 924 C 2314.383 918.225, 2312.374 910.350, 2311.487 906.500 C 2309.291 896.974, 2305.180 883.409, 2303.008 878.524 C 2302.024 876.311, 2300.048 871.465, 2298.616 867.756 C 2295.001 858.390, 2280.465 830.328, 2278.022 828 C 2277.733 827.725, 2276.831 826.150, 2276.018 824.500 C 2273.884 820.172, 2256.969 794.776, 2255.037 793 C 2254.139 792.175, 2252.343 789.925, 2251.044 788 C 2245.874 780.336, 2215.191 749.699, 2207 744.021 C 2205.075 742.687, 2202.825 740.877, 2202 740 C 2201.175 739.123, 2198.925 737.314, 2197 735.981 C 2195.075 734.648, 2191.822 732.018, 2189.771 730.138 C 2187.720 728.257, 2185.020 726.012, 2183.771 725.150 C 2182.522 724.288, 2180.882 722.978, 2180.127 722.239 C 2176.632 718.822, 2163.940 710.102, 2158.838 707.613 C 2155.723 706.094, 2152.363 703.953, 2151.370 702.856 C 2150.377 701.759, 2146.174 698.486, 2142.030 695.582 C 2133.674 689.726, 2130.844 686.999, 2133.128 687.002 C 2137.525 687.008, 2177.339 705.230, 2184.500 710.515 C 2186.150 711.732, 2190.425 714.396, 2194 716.434 C 2201.420 720.663, 2215.461 730.284, 2219.665 734.018 C 2221.224 735.403, 2224.075 737.620, 2226 738.946 C 2229.500 741.355, 2232.362 743.838, 2248.100 758.125 C 2263.159 771.794, 2265.264 773.082, 2266.647 769.478 C 2267.666 766.823, 2254.976 743.451, 2251.819 742.167 C 2251.369 741.983, 2250.989 741.308, 2250.975 740.667 C 2250.962 740.025, 2249.274 737.252, 2247.225 734.505 C 2245.176 731.758, 2241.025 725.856, 2238 721.391 C 2234.975 716.925, 2230.925 711.324, 2229 708.945 C 2224.534 703.424, 2203.480 680.390, 2199.514 676.685 C 2197.856 675.137, 2194.475 671.933, 2192 669.566 C 2175.595 653.871, 2152.112 637.242, 2132.984 627.776 C 2121.290 621.988, 2101.445 614.673, 2092 612.669 C 2090.625 612.378, 2085.675 611.191, 2081 610.032 C 2067.139 606.596, 2064.722 606.031, 2060 605.122 C 2057.525 604.646, 2054.395 603.817, 2053.046 603.280 C 2050.907 602.430, 2051.371 602.216, 2056.644 601.620 C 2062.336 600.976, 2093.736 602.310, 2102.500 603.568 C 2108.759 604.466, 2126.838 608.250, 2133.500 610.055 C 2135.700 610.651, 2138.625 611.402, 2140 611.724 C 2141.375 612.046, 2143.400 612.882, 2144.500 613.582 C 2145.600 614.282, 2151.225 616.718, 2157 618.994 C 2162.775 621.270, 2170.425 624.855, 2174 626.961 C 2177.575 629.066, 2182.750 632.012, 2185.500 633.507 C 2188.250 635.001, 2193.064 638.086, 2196.198 640.362 C 2199.332 642.638, 2203.251 645.400, 2204.906 646.500 C 2217.489 654.863, 2244.640 680.608, 2255.001 694 C 2256.916 696.475, 2260.287 700.589, 2262.491 703.143 C 2269.769 711.571, 2286.592 737.296, 2292.543 749.095 C 2294.372 752.722, 2297.248 758.029, 2298.934 760.889 C 2300.620 763.748, 2302 766.551, 2302 767.116 C 2302 767.682, 2304.272 773.034, 2307.049 779.009 C 2309.826 784.985, 2314.074 795.640, 2316.489 802.687 C 2318.904 809.734, 2321.804 818.200, 2322.933 821.500 C 2328.505 837.791, 2336.479 874.202, 2338.920 894.500 C 2339.582 900, 2340.510 907.425, 2340.984 911 C 2343.446 929.591, 2344.359 955.968, 2343.119 972.694 C 2340.747 1004.696, 2337.027 1029.753, 2332.753 1042.500 C 2331.647 1045.800, 2330.395 1049.850, 2329.971 1051.500 C 2328.108 1058.746, 2322.763 1075.585, 2322.035 1076.497 C 2321.595 1077.049, 2319.119 1082.814, 2316.533 1089.309 C 2313.946 1095.805, 2309.625 1105.705, 2306.929 1111.309 C 2304.234 1116.914, 2302.022 1122.063, 2302.014 1122.750 C 2302.006 1123.438, 2301.404 1124, 2300.676 1124 C 2299.833 1124, 2298.406 1120.276, 2296.747 1113.750 C 2295.314 1108.112, 2293.182 1100.350, 2292.010 1096.500 C 2290.837 1092.650, 2288.772 1085.225, 2287.420 1080 C 2284.520 1068.783, 2283.710 1066.093, 2280.042 1055.500 C 2278.518 1051.100, 2276.700 1045.475, 2276.002 1043 C 2273.684 1034.785, 2270.858 1026.555, 2268.791 1022 C 2261.902 1006.815, 2262.016 1007, 2259.530 1007 C 2256.221 1007, 2255.720 1008.248, 2257.033 1013.229 C 2257.652 1015.578, 2258.564 1019.075, 2259.061 1021 C 2259.557 1022.925, 2261.321 1028.982, 2262.982 1034.460 C 2264.642 1039.938, 2266 1045.531, 2266 1046.889 C 2266 1048.247, 2266.415 1050.740, 2266.923 1052.429 C 2267.431 1054.118, 2268.304 1057.750, 2268.864 1060.500 C 2269.424 1063.250, 2271.232 1071.125, 2272.882 1078 C 2275.670 1089.616, 2276.424 1093.442, 2279.094 1109.500 C 2280.033 1115.146, 2280.666 1118.668, 2283.141 1132 C 2283.702 1135.025, 2284.762 1140.200, 2285.496 1143.500 C 2287.257 1151.423, 2289.215 1164.859, 2293.038 1195.250 C 2293.608 1199.787, 2294.508 1206.002, 2295.038 1209.060 C 2295.567 1212.118, 2296 1216.338, 2296 1218.436 C 2296 1220.535, 2296.648 1226.358, 2297.440 1231.376 C 2300.102 1248.236, 2301.410 1279.774, 2301.386 1326.500 C 2301.361 1373.086, 2300.236 1401.482, 2297.442 1426 C 2294.344 1453.180, 2293.540 1459.996, 2290.893 1481.500 C 2289.342 1494.107, 2287.047 1508.918, 2285.549 1516 C 2283.944 1523.584, 2282.580 1530.807, 2279.127 1550 C 2278.583 1553.025, 2277.851 1557.750, 2277.500 1560.500 C 2277.150 1563.250, 2275.294 1572.025, 2273.377 1580 C 2271.459 1587.975, 2269.409 1596.750, 2268.820 1599.500 C 2268.232 1602.250, 2267.357 1605.805, 2266.875 1607.399 C 2266.394 1608.994, 2266.004 1611.469, 2266.010 1612.899 C 2266.015 1614.330, 2263.741 1622.700, 2260.957 1631.500 C 2258.172 1640.300, 2255.437 1649.300, 2254.879 1651.500 C 2254.321 1653.700, 2252.928 1658.200, 2251.785 1661.500 C 2245.539 1679.527, 2242 1690.350, 2242 1691.425 C 2242 1692.091, 2239.844 1698.005, 2237.209 1704.568 C 2234.575 1711.131, 2231.831 1718.525, 2231.112 1721 C 2230.393 1723.475, 2229.399 1726.281, 2228.903 1727.236 C 2228.406 1728.191, 2228 1729.389, 2228 1729.897 C 2228 1730.406, 2226.456 1734.124, 2224.568 1738.161 C 2222.681 1742.197, 2220.408 1747.750, 2219.518 1750.500 C 2217.666 1756.220, 2217.550 1756.496, 2212.069 1768.152 C 2209.831 1772.910, 2208 1777.304, 2208 1777.915 C 2208 1778.527, 2207.597 1779.809, 2207.104 1780.764 C 2204.702 1785.421, 2196.139 1803.914, 2194.956 1807 C 2194.218 1808.925, 2192.718 1812.075, 2191.623 1814 C 2190.528 1815.925, 2187.899 1821.100, 2185.780 1825.500 C 2183.661 1829.900, 2180.956 1835.300, 2179.769 1837.500 C 2178.582 1839.700, 2175.416 1845.751, 2172.733 1850.947 C 2170.051 1856.142, 2167.040 1861.542, 2166.043 1862.947 C 2164.383 1865.285, 2162.698 1868.195, 2157.326 1878 C 2156.271 1879.925, 2153.854 1883.971, 2151.954 1886.991 C 2150.054 1890.011, 2147.600 1894.102, 2146.500 1896.082 C 2144.418 1899.829, 2137.403 1910.668, 2131.140 1919.817 C 2129.138 1922.741, 2125.925 1927.525, 2124 1930.447 C 2114.027 1945.589, 2109.720 1952.049, 2105.963 1957.500 C 2103.688 1960.800, 2100.303 1965.750, 2098.440 1968.500 C 2082.214 1992.450, 2070.227 2008.561, 2059.468 2020.882 C 2057.250 2023.422, 2053.813 2027.525, 2051.829 2030 C 2049.846 2032.475, 2047.222 2035.625, 2045.998 2037 C 2044.775 2038.375, 2042.592 2041.075, 2041.148 2043 C 2039.704 2044.925, 2037.842 2047.176, 2037.011 2048.003 C 2036.180 2048.829, 2030.798 2054.679, 2025.050 2061.003 C 2014.594 2072.507, 1969.517 2117.754, 1962.320 2123.969 C 1960.219 2125.783, 1954.900 2130.699, 1950.500 2134.893 C 1941.949 2143.043, 1924.707 2158.059, 1916.500 2164.504 C 1913.750 2166.663, 1910.375 2169.457, 1909 2170.712 C 1907.625 2171.967, 1904.195 2174.682, 1901.378 2176.747 C 1892.712 2183.096, 1867.700 2201.899, 1864 2204.844 C 1860.002 2208.027, 1849.759 2214.922, 1836.751 2223.185 C 1831.829 2226.311, 1827.059 2229.521, 1826.151 2230.318 C 1825.243 2231.115, 1822.475 2232.783, 1820 2234.024 C 1817.525 2235.266, 1813.025 2237.925, 1810 2239.934 C 1806.975 2241.942, 1801.575 2245.098, 1798 2246.947 C 1794.425 2248.796, 1790.248 2251.180, 1788.719 2252.245 C 1787.189 2253.309, 1782.361 2255.928, 1777.990 2258.065 C 1773.618 2260.201, 1768.120 2263.171, 1765.771 2264.665 C 1763.422 2266.159, 1757.254 2269.551, 1752.065 2272.203 C 1746.875 2274.856, 1741.925 2277.612, 1741.065 2278.329 C 1740.204 2279.046, 1736.469 2280.888, 1732.765 2282.423 C 1729.060 2283.957, 1723.658 2286.627, 1720.761 2288.356 C 1717.863 2290.085, 1713.694 2292.101, 1711.496 2292.837 C 1709.298 2293.572, 1703 2296.306, 1697.500 2298.914 C 1686.438 2304.158, 1677.250 2308, 1675.769 2308 C 1675.239 2308, 1671.136 2309.760, 1666.652 2311.911 C 1662.169 2314.062, 1656.700 2316.372, 1654.500 2317.045 C 1652.300 2317.717, 1648.302 2319.107, 1645.617 2320.134 C 1642.931 2321.160, 1640.315 2322, 1639.804 2322 C 1639.292 2322, 1636.090 2323.289, 1632.687 2324.865 C 1629.284 2326.440, 1624.475 2328.301, 1622 2329 C 1612.600 2331.654, 1610.442 2332.299, 1608.500 2333.038 C 1607.400 2333.456, 1604.925 2334.347, 1603 2335.017 C 1601.075 2335.688, 1597.592 2337.083, 1595.261 2338.118 C 1592.929 2339.153, 1590.486 2340, 1589.832 2340 C 1589.177 2340, 1587.260 2340.417, 1585.571 2340.928 C 1583.882 2341.438, 1579.125 2342.850, 1575 2344.066 C 1563.009 2347.602, 1555.573 2350.165, 1554.550 2351.116 C 1554.028 2351.602, 1552.361 2352, 1550.847 2352 C 1549.333 2352, 1547.060 2352.399, 1545.797 2352.887 C 1544.534 2353.375, 1541.025 2354.294, 1538 2354.929 C 1530.810 2356.438, 1527.164 2357.438, 1517.500 2360.549 C 1513.100 2361.966, 1506.800 2363.585, 1503.500 2364.148 C 1500.200 2364.711, 1495.475 2365.565, 1493 2366.046 C 1490.525 2366.528, 1486.025 2367.389, 1483 2367.961 C 1468.786 2370.646, 1458.511 2372.785, 1454.024 2373.993 C 1452.012 2374.535, 1446.122 2375.453, 1440.933 2376.033 C 1435.745 2376.613, 1427.450 2377.537, 1422.500 2378.087 C 1380.315 2382.772, 1364.663 2383.430, 1295 2383.446 C 1224.116 2383.463, 1204.434 2382.637, 1167.500 2378.099 C 1163.100 2377.558, 1155.450 2376.664, 1150.500 2376.111 C 1145.550 2375.559, 1140.085 2374.678, 1138.355 2374.153 C 1136.625 2373.629, 1131.225 2372.457, 1126.355 2371.549 C 1121.485 2370.641, 1115.700 2369.508, 1113.500 2369.031 C 1107.490 2367.726, 1099.371 2366.248, 1091 2364.933 C 1086.875 2364.286, 1080.350 2362.902, 1076.500 2361.857 C 1061.261 2357.724, 1052.229 2355.626, 1038.500 2353.027 C 1035.200 2352.402, 1030.475 2351.198, 1028 2350.351 C 1021.320 2348.065, 1011.009 2344.938, 1006.750 2343.908 C 1004.688 2343.408, 1001.087 2342.529, 998.750 2341.954 C 996.413 2341.379, 992.925 2340.555, 991 2340.123 C 989.075 2339.691, 986.150 2338.640, 984.500 2337.787 C 981.569 2336.272, 967.985 2331.582, 959 2328.982 C 956.525 2328.266, 951.800 2326.453, 948.500 2324.953 C 945.200 2323.453, 939.575 2321.254, 936 2320.066 C 932.425 2318.878, 928.719 2317.477, 927.764 2316.953 C 926.809 2316.429, 925.403 2316, 924.640 2316 C 923.876 2316, 921.283 2314.910, 918.876 2313.577 C 916.469 2312.244, 910.225 2309.501, 905 2307.480 C 899.775 2305.459, 892.350 2302.297, 888.500 2300.453 C 884.650 2298.609, 879.025 2296.144, 876 2294.975 C 872.975 2293.807, 865.893 2290.633, 860.263 2287.922 C 854.632 2285.212, 848.107 2282.234, 845.763 2281.305 C 843.418 2280.376, 839.343 2278.352, 836.706 2276.808 C 834.069 2275.263, 831.707 2274, 831.457 2274 C 830.172 2274, 794.521 2255.675, 781.333 2248.235 C 767.219 2240.274, 751.887 2230.966, 749.500 2228.910 C 748.400 2227.963, 745.375 2225.908, 742.778 2224.344 C 734.709 2219.484, 705.878 2199.447, 689.046 2187 C 683.467 2182.875, 676.562 2177.829, 673.702 2175.787 C 670.841 2173.745, 667.600 2171.211, 666.500 2170.156 C 665.400 2169.102, 662.025 2166.521, 659 2164.421 C 655.975 2162.321, 651.897 2159.229, 649.938 2157.551 C 647.978 2155.873, 644.623 2153.150, 642.482 2151.500 C 637.098 2147.350, 619.828 2132.865, 618 2130.965 C 617.175 2130.107, 614.925 2128.334, 613 2127.025 C 611.075 2125.716, 607.627 2122.813, 605.337 2120.573 C 603.048 2118.333, 595.216 2111.325, 587.933 2105 C 573.891 2092.805, 536.226 2055.689, 527 2044.955 C 523.975 2041.436, 519.250 2036.214, 516.500 2033.350 C 513.750 2030.487, 508.575 2024.698, 505 2020.487 C 501.425 2016.276, 496.673 2010.731, 494.440 2008.165 C 492.207 2005.599, 489.507 2002.321, 488.440 2000.881 C 487.373 1999.440, 481.783 1992.465, 476.017 1985.381 C 459.636 1965.252, 457.312 1962.285, 451.825 1954.500 C 449.500 1951.200, 446.743 1947.600, 445.699 1946.500 C 444.655 1945.400, 441.964 1941.800, 439.719 1938.500 C 434.568 1930.930, 429.723 1924.599, 428.750 1924.167 C 428.338 1923.983, 428 1923.389, 428 1922.847 C 428 1921.845, 422.197 1912.915, 420.951 1912 C 420.274 1911.502, 406.691 1890.811, 397.868 1876.837 C 395.320 1872.802, 391.776 1866.800, 389.993 1863.500 C 388.209 1860.200, 385.780 1856.150, 384.596 1854.500 C 383.411 1852.850, 381.350 1849.250, 380.015 1846.500 C 378.681 1843.750, 376.764 1840.281, 375.755 1838.791 C 373.929 1836.092, 368.739 1826.578, 354.052 1799 C 349.804 1791.025, 345.833 1783.600, 345.227 1782.500 C 343.758 1779.835, 337.466 1767.082, 333.633 1759 C 331.937 1755.425, 328.236 1748, 325.408 1742.500 C 322.579 1737, 319.921 1731.375, 319.499 1730 C 319.078 1728.625, 316.505 1722.807, 313.781 1717.072 C 311.057 1711.336, 307.687 1703.461, 306.291 1699.572 C 304.896 1695.682, 302.874 1690.760, 301.797 1688.633 C 300.721 1686.506, 298.345 1680.206, 296.517 1674.633 C 294.689 1669.060, 291.350 1659.932, 289.097 1654.349 C 286.844 1648.767, 285 1643.792, 285 1643.296 C 285 1641.939, 278.047 1620.946, 276.457 1617.500 C 275.695 1615.850, 273.678 1609.325, 271.974 1603 C 270.271 1596.675, 267.764 1588.350, 266.405 1584.500 C 265.045 1580.650, 262.552 1571.875, 260.865 1565 C 259.177 1558.125, 256.466 1548, 254.840 1542.500 C 253.215 1537, 249.929 1523.004, 247.538 1511.398 C 245.147 1499.792, 242.415 1487.417, 241.465 1483.898 C 240.516 1480.379, 239.386 1475.025, 238.955 1472 C 238.146 1466.330, 237.463 1461.760, 234.097 1439.500 C 231.339 1421.260, 228.913 1407.669, 228.213 1406.537 C 227.886 1406.007, 227.294 1401.732, 226.897 1397.037 C 226.501 1392.342, 225.706 1383.550, 225.131 1377.500 C 222.662 1351.523, 220.884 1308.788, 220.117 1257 C 219.389 1207.851, 219.097 1201.042, 217.571 1197.500 L 215.847 1193.500 213.019 1196.848 C 211.464 1198.689, 209.955 1201.839, 209.665 1203.848 C 205.424 1233.293, 204.964 1238.757, 199.899 1320 C 197.288 1361.885, 197.286 1469.744, 199.896 1495 C 204.370 1538.288, 206.616 1555.593, 209.890 1572 C 214.513 1595.171, 216.120 1603.284, 217.020 1608 C 218.235 1614.364, 218.579 1615.854, 223.972 1638.156 C 226.187 1647.317, 228 1655.610, 228 1656.585 C 228 1657.560, 228.439 1659.740, 228.975 1661.429 C 229.511 1663.118, 230.581 1667.200, 231.353 1670.500 C 238.554 1701.288, 257.706 1757.251, 270.537 1785 C 272.953 1790.225, 276.472 1798.100, 278.356 1802.500 C 286.453 1821.412, 294.023 1838.326, 294.858 1839.372 C 295.353 1839.992, 297.217 1843.875, 299 1848 C 309.159 1871.507, 338.080 1927.121, 342.942 1932.500 C 343.936 1933.600, 345.324 1935.625, 346.025 1937 C 346.726 1938.375, 349.364 1942.650, 351.888 1946.500 C 354.411 1950.350, 356.975 1954.400, 357.585 1955.500 C 361.680 1962.885, 366.138 1969.870, 367.454 1970.961 C 368.304 1971.667, 369 1972.669, 369 1973.188 C 369 1974.163, 384.547 1997.688, 390.264 2005.364 C 392.044 2007.754, 395.525 2012.549, 398 2016.020 C 400.475 2019.491, 402.975 2022.819, 403.555 2023.415 C 404.135 2024.012, 406.445 2027.200, 408.688 2030.500 C 410.931 2033.800, 414.168 2037.958, 415.883 2039.741 C 417.597 2041.523, 419.005 2043.323, 419.011 2043.741 C 419.016 2044.158, 420.840 2046.750, 423.062 2049.500 C 425.285 2052.250, 428.514 2056.525, 430.239 2059 C 431.963 2061.475, 434.099 2064.175, 434.985 2065 C 435.870 2065.825, 437.677 2068.075, 438.999 2070 C 440.322 2071.925, 441.662 2073.725, 441.978 2074 C 442.293 2074.275, 444.102 2076.525, 445.998 2079 C 447.893 2081.475, 450.152 2084.175, 451.019 2085 C 451.886 2085.825, 453.668 2088.075, 454.980 2090 C 456.291 2091.925, 458.976 2095.117, 460.945 2097.094 C 462.914 2099.071, 465.703 2102.233, 467.143 2104.121 C 468.583 2106.009, 471.953 2109.823, 474.631 2112.597 C 477.309 2115.371, 485.125 2123.623, 492 2130.934 C 505.006 2144.766, 513.942 2153.581, 527.500 2165.951 C 531.900 2169.965, 536.625 2174.484, 538 2175.992 C 541.065 2179.354, 552.141 2188.858, 573.555 2206.500 C 593.479 2222.915, 630.369 2251.067, 638.277 2255.892 C 640.354 2257.159, 642.604 2258.731, 643.277 2259.385 C 644.688 2260.758, 658.494 2270.369, 668 2276.597 C 671.575 2278.939, 676.373 2282.202, 678.663 2283.848 C 680.953 2285.494, 684.777 2287.889, 687.160 2289.170 C 689.544 2290.452, 691.721 2291.726, 691.997 2292.003 C 692.940 2292.946, 700.486 2297.754, 708.500 2302.518 C 712.900 2305.134, 717.662 2308.090, 719.082 2309.086 C 722.672 2311.604, 738.095 2320.558, 746.500 2325.004 C 750.350 2327.040, 756.425 2330.489, 760 2332.667 C 763.575 2334.845, 768.075 2337.260, 770 2338.034 C 771.925 2338.807, 776.200 2341.056, 779.500 2343.031 C 782.800 2345.006, 787.300 2347.437, 789.500 2348.434 C 791.700 2349.431, 799.350 2353.061, 806.500 2356.500 C 826.947 2366.336, 835.007 2370.011, 842 2372.686 C 845.575 2374.054, 853.266 2377.153, 859.092 2379.572 C 864.917 2381.992, 872.117 2384.702, 875.092 2385.595 C 878.066 2386.488, 881.400 2387.596, 882.500 2388.058 C 892.404 2392.219, 899.660 2394.951, 906 2396.907 C 910.125 2398.179, 918 2400.928, 923.500 2403.016 C 936.006 2407.764, 945.915 2411, 947.947 2411 C 948.804 2411, 954.118 2412.758, 959.755 2414.907 C 965.393 2417.055, 973.942 2419.812, 978.753 2421.034 C 983.564 2422.255, 991.775 2424.506, 997 2426.036 C 1009.789 2429.781, 1018.437 2431.840, 1030.983 2434.127 C 1036.767 2435.182, 1044.425 2436.665, 1048 2437.424 C 1071.176 2442.340, 1084.388 2444.645, 1100.245 2446.538 C 1107.255 2447.374, 1113.555 2448.265, 1114.245 2448.517 C 1114.935 2448.768, 1119.100 2449.413, 1123.500 2449.949 C 1127.900 2450.485, 1138.250 2451.804, 1146.500 2452.881 C 1183.025 2457.649, 1200.800 2458.455, 1269.500 2458.457 C 1322.977 2458.459, 1338.311 2458.146, 1356 2456.688 C 1383.912 2454.387, 1404.551 2452.104, 1421 2449.499 C 1426.225 2448.671, 1437.475 2447.125, 1446 2446.063 C 1463.170 2443.925, 1472.142 2442.225, 1488.500 2438.013 C 1494.550 2436.454, 1503.254 2434.426, 1507.843 2433.505 C 1512.432 2432.584, 1519.857 2430.718, 1524.343 2429.358 C 1540.376 2424.499, 1542.602 2423.865, 1550.500 2421.904 C 1554.900 2420.813, 1564.350 2417.979, 1571.500 2415.608 C 1578.650 2413.237, 1586.525 2410.720, 1589 2410.015 C 1591.475 2409.310, 1597.325 2407.386, 1602 2405.739 C 1606.675 2404.092, 1617.250 2400.385, 1625.500 2397.501 C 1633.750 2394.617, 1643.100 2391.075, 1646.279 2389.629 C 1649.457 2388.183, 1652.854 2387, 1653.829 2387 C 1654.803 2387, 1656.028 2386.642, 1656.550 2386.204 C 1657.073 2385.766, 1659.300 2384.803, 1661.500 2384.062 C 1663.700 2383.322, 1667.975 2381.606, 1671 2380.250 C 1680.634 2375.931, 1682.414 2375.194, 1686.500 2373.839 C 1688.700 2373.109, 1694.550 2370.547, 1699.500 2368.146 C 1704.450 2365.745, 1710.750 2362.894, 1713.500 2361.809 C 1719.691 2359.368, 1732.382 2352.765, 1732.833 2351.750 C 1733.017 2351.338, 1733.797 2351, 1734.567 2351 C 1736.279 2351, 1746.790 2345.974, 1750.672 2343.299 C 1753.386 2341.428, 1762.410 2337, 1763.507 2337 C 1763.798 2337, 1766.999 2335.200, 1770.620 2333 C 1774.242 2330.800, 1777.608 2329, 1778.102 2329 C 1778.596 2329, 1779 2328.550, 1779 2328 C 1779 2327.450, 1779.787 2326.990, 1780.750 2326.978 C 1781.713 2326.966, 1783.625 2326.076, 1785 2325 C 1786.375 2323.924, 1787.846 2323.034, 1788.268 2323.022 C 1788.691 2323.010, 1791.846 2321.313, 1795.280 2319.250 C 1798.714 2317.188, 1802.869 2314.837, 1804.512 2314.027 C 1806.155 2313.217, 1810.076 2310.846, 1813.223 2308.758 C 1816.371 2306.670, 1821.546 2303.566, 1824.723 2301.860 C 1827.901 2300.154, 1832.075 2297.536, 1834 2296.042 C 1835.925 2294.547, 1838.625 2292.738, 1840 2292.020 C 1846.987 2288.374, 1869.559 2273.138, 1891.755 2257.086 C 1913.339 2241.476, 1914.574 2240.561, 1919.134 2236.795 C 1921.535 2234.811, 1928.129 2229.604, 1933.786 2225.222 C 1939.443 2220.841, 1945.518 2215.943, 1947.286 2214.337 C 1949.054 2212.732, 1953.162 2209.254, 1956.415 2206.607 C 1959.668 2203.960, 1963.943 2200.311, 1965.915 2198.498 C 1967.887 2196.684, 1977.812 2187.618, 1987.972 2178.350 C 2016.424 2152.396, 2034.289 2134.270, 2069.670 2095.461 C 2074.163 2090.533, 2079.548 2084.250, 2081.637 2081.500 C 2083.725 2078.750, 2086.279 2075.600, 2087.312 2074.500 C 2090.210 2071.414, 2108.251 2048.525, 2110.500 2045.081 C 2112.296 2042.331, 2126.331 2022.228, 2138.483 2005 C 2143.051 1998.524, 2144.532 1996.336, 2152.700 1984 C 2155.067 1980.425, 2159.253 1974.299, 2162.002 1970.386 C 2164.751 1966.473, 2167 1962.984, 2167 1962.631 C 2167 1962.278, 2169.700 1957.980, 2173 1953.080 C 2176.300 1948.180, 2179 1943.849, 2179 1943.457 C 2179 1943.064, 2181.146 1939.538, 2183.770 1935.621 C 2186.393 1931.704, 2189.206 1927.151, 2190.020 1925.503 C 2190.834 1923.854, 2193.613 1919.065, 2196.195 1914.859 C 2198.777 1910.654, 2201.914 1905.028, 2203.166 1902.357 C 2204.418 1899.685, 2207.058 1894.800, 2209.032 1891.500 C 2211.006 1888.200, 2213.426 1883.700, 2214.409 1881.500 C 2215.393 1879.300, 2217.124 1875.700, 2218.256 1873.500 C 2226.668 1857.159, 2228.973 1852.290, 2228.985 1850.833 C 2228.993 1849.917, 2229.360 1849.017, 2229.801 1848.833 C 2230.708 1848.456, 2239 1832.166, 2239 1830.762 C 2239 1830.259, 2241.160 1825.495, 2243.799 1820.174 C 2246.438 1814.853, 2249.637 1807.800, 2250.907 1804.500 C 2252.177 1801.200, 2254.513 1795.677, 2256.098 1792.226 C 2257.683 1788.775, 2260.539 1781.291, 2262.445 1775.594 C 2264.351 1769.897, 2267.457 1761.246, 2269.346 1756.368 C 2271.235 1751.491, 2273.762 1744.125, 2274.961 1740 C 2276.161 1735.875, 2278.424 1729.125, 2279.991 1725 C 2282.508 1718.373, 2284.517 1712.127, 2288.031 1700 C 2288.589 1698.075, 2290.781 1691.100, 2292.903 1684.500 C 2295.024 1677.900, 2297.750 1668.225, 2298.960 1663 C 2300.169 1657.775, 2301.782 1651.475, 2302.544 1649 C 2306.197 1637.128, 2309.180 1623.858, 2312.997 1602.500 C 2313.489 1599.750, 2314.844 1593.225, 2316.009 1588 C 2321.402 1563.815, 2326.211 1520.974, 2330.042 1463 C 2331.446 1441.743, 2330.814 1345.611, 2329.125 1323.500 C 2328.494 1315.250, 2327.300 1299.950, 2326.472 1289.500 C 2325.643 1279.050, 2324.518 1264.650, 2323.972 1257.500 C 2322.678 1240.573, 2320.442 1221.855, 2317.418 1202.641 C 2316.651 1197.768, 2316.355 1193.215, 2316.761 1192.524 C 2318.096 1190.250, 2323.463 1184.544, 2326.510 1182.159 C 2328.154 1180.872, 2331.750 1177.855, 2334.500 1175.455 C 2340.998 1169.783, 2349.010 1163.352, 2354.843 1159.127 C 2357.404 1157.271, 2361.528 1154.074, 2364.006 1152.023 C 2366.484 1149.971, 2371.209 1146.794, 2374.506 1144.963 C 2377.803 1143.132, 2382.300 1140.447, 2384.500 1138.997 C 2386.700 1137.547, 2390.075 1135.754, 2392 1135.013 C 2393.925 1134.272, 2400 1131.548, 2405.500 1128.959 C 2411 1126.371, 2419.775 1122.810, 2425 1121.046 C 2430.225 1119.283, 2437.200 1116.608, 2440.500 1115.102 C 2443.800 1113.597, 2448.975 1111.539, 2452 1110.529 C 2457.120 1108.819, 2461.029 1106.933, 2476.500 1098.706 C 2479.800 1096.951, 2485.715 1092.362, 2489.644 1088.508 C 2495.797 1082.472, 2497.026 1080.667, 2498.499 1075.500 C 2499.696 1071.304, 2500.005 1067.996, 2499.529 1064.500 C 2499.154 1061.750, 2498.431 1056.013, 2497.923 1051.750 C 2495.924 1034.966, 2495.064 1028.220, 2494.067 1021.500 C 2493.496 1017.650, 2492.784 1007.300, 2492.484 998.500 C 2491.830 979.257, 2490.244 965.299, 2488.369 962.277 C 2487.610 961.055, 2485.529 959.678, 2483.745 959.218 C 2480.667 958.425, 2480.484 958.114, 2480.198 953.197 C 2479.940 948.775, 2480.345 947.359, 2482.948 943.576 C 2485.821 939.399, 2485.999 938.594, 2485.976 929.820 C 2485.949 919.362, 2486.451 920.366, 2473.750 905.391 L 2468 898.611 2468 890.332 C 2468 881.495, 2469.468 877.522, 2475.026 871.319 C 2476.415 869.769, 2478.264 867.478, 2479.135 866.229 C 2480.006 864.980, 2482.250 862.280, 2484.123 860.229 C 2492.646 850.894, 2498 841.711, 2498 836.428 C 2498 833.257, 2497.185 831.964, 2492.037 826.957 C 2488.757 823.767, 2484.369 819.887, 2482.287 818.334 C 2480.204 816.782, 2478.275 815.272, 2478 814.980 C 2477.725 814.688, 2475.475 812.897, 2473 811 C 2470.525 809.103, 2468.275 807.285, 2468 806.960 C 2467.725 806.634, 2465.250 804.840, 2462.500 802.971 C 2459.750 801.103, 2455.250 797.872, 2452.500 795.792 C 2449.750 793.711, 2447.124 792.007, 2446.663 792.004 C 2445.932 792.001, 2431.323 782.363, 2430 781.011 C 2429.725 780.730, 2427.475 778.938, 2425 777.029 C 2411.113 766.317, 2402.510 756.583, 2396.248 744.500 C 2392.835 737.913, 2380 711.126, 2380 710.589 C 2380 710.315, 2377.750 706.181, 2375 701.402 C 2372.250 696.623, 2370 692.401, 2370 692.020 C 2370 691.639, 2366.791 686.642, 2362.869 680.914 C 2342.679 651.430, 2316.718 627.332, 2280.597 604.546 C 2278.894 603.472, 2273.617 600.094, 2268.871 597.039 C 2258.616 590.440, 2224.276 573, 2221.536 573 C 2221.269 573, 2218.103 571.650, 2214.500 570 C 2210.897 568.350, 2207.313 567, 2206.534 567 C 2205.755 567, 2204.840 566.550, 2204.500 566 C 2204.160 565.450, 2203.121 565.002, 2202.191 565.005 C 2200.793 565.010, 2192.340 562.001, 2182.500 557.995 C 2178.115 556.211, 2174.309 555.058, 2166 553 C 2164.075 552.523, 2160.700 551.647, 2158.500 551.052 C 2156.300 550.457, 2152.475 549.506, 2150 548.937 C 2147.525 548.368, 2143.700 547.443, 2141.500 546.881 C 2132.499 544.584, 2115.364 542.224, 2098 540.889 C 2081.144 539.594, 1994.028 538.839, 1991.500 539.967 M 1365.325 665.459 C 1360.995 667.343, 1358.799 670.987, 1359.185 675.649 C 1359.455 678.903, 1360.075 679.775, 1363.500 681.709 C 1367.519 683.978, 1375.221 684.782, 1377.721 683.194 C 1379.290 682.197, 1382 674.536, 1382 671.097 C 1382 669.638, 1381.299 667.445, 1380.443 666.223 C 1379.167 664.400, 1377.952 664.007, 1373.693 664.039 C 1370.837 664.061, 1367.071 664.700, 1365.325 665.459 M 1335.128 712.788 C 1332.658 714.902, 1329.623 729.877, 1330.954 733.378 C 1332.463 737.348, 1336.270 739, 1343.909 739 C 1353.092 739, 1356.026 736.781, 1356.746 729.291 C 1357.188 724.690, 1356.994 724.042, 1354.722 722.554 C 1353.340 721.648, 1351.990 720.069, 1351.722 719.046 C 1351.107 716.693, 1344.500 712.412, 1340.314 711.653 C 1338.097 711.251, 1336.520 711.596, 1335.128 712.788 M 1318.230 780.599 C 1312.281 785.288, 1310.719 790.994, 1313.158 799.134 C 1313.795 801.260, 1314.641 803, 1315.037 803 C 1315.433 803, 1316.324 804.367, 1317.016 806.038 C 1319.259 811.455, 1324.199 812.442, 1331.290 808.892 C 1333.605 807.733, 1336.963 805.395, 1338.750 803.696 C 1341.800 800.798, 1342 800.186, 1342 793.754 C 1342 782.046, 1338.340 777.992, 1327.785 778.011 C 1322.553 778.020, 1320.952 778.454, 1318.230 780.599 M 1301.758 851.386 C 1296.339 855.501, 1293.428 874.412, 1297.302 880.335 C 1299.946 884.375, 1303.235 885.279, 1315.721 885.395 C 1329.638 885.525, 1331.114 884.572, 1331.806 875.011 C 1332.634 863.560, 1327.729 853.434, 1320.272 851.200 C 1314.935 849.601, 1303.964 849.711, 1301.758 851.386 M 1295.500 936.333 C 1291.137 938.355, 1282.504 947.943, 1281.033 952.401 C 1279.410 957.317, 1280.148 963.739, 1282.961 969.196 C 1289.665 982.201, 1304.019 987.517, 1316.500 981.617 C 1327.926 976.215, 1335.294 962.481, 1332.046 952.639 C 1330.674 948.483, 1321.421 939.492, 1316.324 937.362 C 1311.092 935.176, 1299.259 934.591, 1295.500 936.333 M 1289.186 1032.472 C 1281.708 1036.596, 1278 1044.229, 1278 1055.500 C 1278 1064.449, 1280.335 1071.397, 1284.273 1074.166 C 1286.048 1075.413, 1288.157 1077.074, 1288.960 1077.856 C 1291.383 1080.215, 1296.680 1082, 1301.256 1082 C 1309.206 1082, 1317.422 1076.054, 1321.982 1067 C 1325.481 1060.051, 1326.369 1055.947, 1325.551 1050.494 C 1324.077 1040.665, 1310.122 1030.907, 1297.813 1031.098 C 1294.341 1031.152, 1290.459 1031.770, 1289.186 1032.472 M 1294.500 1114.426 C 1293.950 1114.645, 1292.271 1115.096, 1290.768 1115.427 C 1287.157 1116.223, 1281.508 1121.276, 1278.509 1126.395 C 1277.181 1128.661, 1275.332 1133.981, 1274.402 1138.217 C 1272.937 1144.881, 1272.883 1146.736, 1273.998 1151.989 C 1275.706 1160.040, 1279.810 1166.352, 1285.086 1169.044 C 1296.803 1175.021, 1311.880 1175.494, 1318.394 1170.088 C 1321.081 1167.858, 1328.910 1155.508, 1330.508 1150.978 C 1332.560 1145.163, 1332.389 1137.057, 1330.106 1131.833 C 1327.653 1126.221, 1320.790 1119.667, 1314.610 1117.034 C 1310.167 1115.141, 1296.989 1113.432, 1294.500 1114.426 M 1296.500 1222.088 C 1287.747 1226.684, 1280.646 1236.826, 1279.071 1246.982 C 1277.046 1260.033, 1281.027 1271.487, 1290.280 1279.235 C 1295.163 1283.323, 1304.018 1287.010, 1308.905 1286.989 C 1316.525 1286.957, 1328.731 1280.652, 1333.964 1274.045 C 1342.892 1262.773, 1344.487 1251.796, 1338.857 1240.361 C 1335.137 1232.806, 1329.039 1226.390, 1322.341 1222.985 C 1315.486 1219.500, 1302.301 1219.042, 1296.500 1222.088 M 1330.061 1324.136 C 1319.080 1325.957, 1308.970 1333.178, 1304.247 1342.574 C 1301.482 1348.072, 1299.623 1359.140, 1300.337 1365.850 C 1301.514 1376.927, 1303.593 1381.596, 1310.388 1388.424 C 1320.842 1398.931, 1332.655 1401.633, 1346.367 1396.656 C 1354.128 1393.839, 1365.314 1385.267, 1367.929 1380.132 C 1375.722 1364.831, 1374.195 1344.840, 1364.524 1335.575 C 1359.106 1330.383, 1349.266 1325.451, 1341.566 1324.067 C 1338.303 1323.480, 1335.603 1323.053, 1335.566 1323.117 C 1335.530 1323.181, 1333.052 1323.640, 1330.061 1324.136 M 1386.500 1424.558 C 1381.807 1426.976, 1373.441 1436.611, 1371.963 1441.301 C 1371.235 1443.610, 1370.158 1446.132, 1369.570 1446.904 C 1368.981 1447.676, 1368.519 1451.951, 1368.542 1456.404 C 1368.615 1470.475, 1373.916 1478.517, 1387.342 1484.924 C 1396.070 1489.090, 1401.925 1489.086, 1409.727 1484.911 C 1416.283 1481.403, 1422.743 1475.564, 1427.272 1469.056 C 1430.185 1464.868, 1430.364 1464.076, 1430.364 1455.353 C 1430.364 1447.557, 1429.987 1445.363, 1427.975 1441.452 C 1424.885 1435.444, 1414.528 1426.797, 1407.829 1424.634 C 1401.374 1422.549, 1390.475 1422.510, 1386.500 1424.558 M 1437.496 1528.010 C 1426.834 1530.573, 1423.194 1532.851, 1418.333 1540 C 1409.808 1552.538, 1408.879 1559.217, 1414.250 1569.355 C 1419.218 1578.735, 1425.266 1584.410, 1432.500 1586.484 C 1443.726 1589.702, 1450.921 1587.553, 1460.804 1578.032 C 1468.729 1570.396, 1470.243 1566.782, 1469.819 1556.500 C 1469.275 1543.290, 1462.593 1532.508, 1452.500 1528.553 C 1447.312 1526.520, 1444.166 1526.406, 1437.496 1528.010 M 1459.397 1616.900 C 1454.153 1620.098, 1447.923 1626.327, 1446.425 1629.872 C 1445.641 1631.727, 1445 1636.059, 1445 1639.500 C 1445 1649.364, 1448.742 1656.217, 1456.345 1660.273 C 1459.880 1662.159, 1462.077 1662.491, 1471.075 1662.495 C 1481.118 1662.500, 1481.835 1662.359, 1485.322 1659.701 C 1491.659 1654.872, 1496.853 1640.578, 1494.782 1633.666 C 1493.103 1628.061, 1485.555 1620.136, 1479.236 1617.341 C 1472.514 1614.368, 1463.864 1614.176, 1459.397 1616.900 M 1486.749 1708.413 C 1480.260 1710.159, 1476.716 1713.230, 1472.801 1720.500 C 1470.174 1725.376, 1469.705 1739.099, 1472.008 1743.692 C 1474.799 1749.260, 1480.068 1754.855, 1484.576 1757.037 C 1493.789 1761.497, 1508.239 1756.977, 1514.133 1747.792 C 1520.632 1737.664, 1520.930 1730.566, 1515.306 1719.811 C 1512.096 1713.672, 1508.220 1710.440, 1501.771 1708.525 C 1495.697 1706.721, 1493.111 1706.702, 1486.749 1708.413 M 1504.826 1803.662 C 1502.805 1803.909, 1500.634 1804.737, 1500 1805.501 C 1499.214 1806.448, 1498.951 1811.352, 1499.173 1820.920 C 1499.604 1839.421, 1499.553 1839.360, 1514.718 1839.360 C 1530.556 1839.360, 1532.142 1837.846, 1533.440 1821.500 C 1534.091 1813.298, 1532.723 1808.594, 1528.851 1805.724 C 1526.776 1804.186, 1524.285 1803.701, 1517.351 1803.486 C 1512.483 1803.336, 1506.847 1803.415, 1504.826 1803.662 M 1517.825 1883.038 C 1516.904 1883.576, 1515.601 1885.680, 1514.929 1887.715 C 1513.592 1891.766, 1513.234 1903.266, 1514.341 1906.598 C 1515.394 1909.768, 1519.252 1911, 1528.124 1911 C 1535.605 1911, 1536.347 1910.807, 1538.983 1908.171 C 1543.651 1903.503, 1545.567 1892.683, 1542.501 1888.305 C 1539.382 1883.852, 1534.767 1881.998, 1526.882 1882.030 C 1522.822 1882.047, 1518.746 1882.501, 1517.825 1883.038 M 1522.816 1955.696 C 1520.858 1957.759, 1520.291 1959.196, 1520.672 1961.133 C 1520.956 1962.581, 1520.696 1964.070, 1520.094 1964.442 C 1518.196 1965.615, 1518.905 1969.137, 1521.441 1971.132 C 1522.783 1972.188, 1524.148 1973.892, 1524.474 1974.919 C 1525.411 1977.871, 1530.319 1979.340, 1537.175 1978.718 C 1545.118 1977.998, 1547.166 1976.039, 1547.786 1968.571 C 1548.545 1959.416, 1543.639 1954.754, 1531.989 1953.560 C 1525.758 1952.921, 1525.363 1953.013, 1522.816 1955.696 M 1518.819 2011.536 C 1515.403 2013.391, 1514.696 2015.715, 1515.525 2022.357 C 1516.327 2028.771, 1516.611 2029.265, 1520.700 2031.360 C 1530.529 2036.395, 1536.448 2029.353, 1532.956 2016.779 C 1531.204 2010.471, 1525.010 2008.174, 1518.819 2011.536" stroke="none" fill="#f4b349" fill-rule="evenodd"/></svg>