<svg xmlns="http://www.w3.org/2000/svg" width="2697" height="2697" viewBox="0 0 2697 2697" version="1.1"><path d="M 1512.270 542.752 C 1510.493 545.363, 1508.191 549.975, 1507.154 553 C 1505.838 556.840, 1504.799 558.417, 1503.710 558.223 C 1502.853 558.071, 1501.865 558.409, 1501.516 558.973 C 1501.167 559.538, 1501.598 560, 1502.472 560 C 1505.077 560, 1505.174 562.160, 1502.969 571.054 C 1501.650 576.372, 1500.680 584.314, 1500.350 592.500 C 1499.866 604.472, 1500.066 606.553, 1502.873 618.810 C 1504.564 626.193, 1507.650 636.039, 1509.805 640.922 C 1516.268 655.568, 1528.525 671.519, 1537.829 677.392 C 1540.031 678.782, 1542.125 680.394, 1542.484 680.974 C 1542.842 681.554, 1544.962 682.960, 1547.194 684.099 C 1551.972 686.537, 1554.671 689.291, 1559.689 696.850 C 1563.024 701.876, 1564.943 705.240, 1569.750 714.500 C 1571.809 718.464, 1571.388 718.157, 1575.858 718.974 C 1580.425 719.809, 1583 718.719, 1583 715.950 C 1583 713.466, 1584.687 713.474, 1594.068 716.005 C 1598.155 717.108, 1610.500 720.283, 1621.500 723.060 C 1632.500 725.838, 1642.042 728.288, 1642.703 728.506 C 1644.200 728.998, 1655.461 715.737, 1659.027 709.282 C 1662.167 703.598, 1671.697 690.846, 1678.991 682.567 C 1684.980 675.769, 1684.765 675.103, 1675.893 672.974 C 1671.519 671.925, 1670.347 672.027, 1665.725 673.857 C 1657.353 677.173, 1636.545 681, 1626.892 681 C 1609.422 681, 1591.513 676.281, 1571.963 666.526 C 1560.524 660.818, 1551.493 655.128, 1545.448 649.820 C 1538.078 643.349, 1524.804 622.481, 1521.710 612.500 C 1519.848 606.492, 1517.612 591.054, 1518.479 590.188 C 1519.832 588.834, 1522.473 591.904, 1523.549 596.081 C 1526.703 608.320, 1535.841 625.382, 1544.054 634.369 C 1551.418 642.427, 1564 650.479, 1564 647.134 C 1564 646.658, 1561.524 643.691, 1558.497 640.541 C 1549.691 631.376, 1540.068 611.829, 1541.524 606.064 L 1542.172 603.500 1543.687 606.500 C 1559.129 637.086, 1577.754 657.794, 1597.825 666.692 C 1611.349 672.688, 1625.490 675.427, 1637.945 674.464 C 1652.041 673.374, 1653.236 672.341, 1644.250 669.015 C 1625.592 662.108, 1619.094 653.024, 1610.955 622.468 C 1606.980 607.542, 1600.625 593.718, 1594.869 587.473 C 1588.343 580.393, 1580.680 575.654, 1559.065 565.328 C 1526.387 549.716, 1522.647 547.605, 1521.452 544.094 C 1520.548 541.438, 1517.570 538.128, 1516 538.034 C 1515.725 538.017, 1514.046 540.140, 1512.270 542.752 M 1715 618.539 C 1703.075 620.228, 1693.904 622.467, 1679.500 627.208 C 1670.206 630.268, 1669.477 630.699, 1669.177 633.319 C 1668.904 635.700, 1669.939 637.146, 1675.846 642.633 C 1693.239 658.788, 1702.065 678.304, 1713.552 726 C 1720.015 752.837, 1723.589 762.070, 1734.579 780.327 C 1745.989 799.282, 1770.703 817.870, 1796.572 826.953 C 1810.111 831.706, 1837.361 842.197, 1838.560 843.116 C 1839.143 843.564, 1842.793 845.221, 1846.670 846.799 C 1859.936 852.197, 1870.941 862.986, 1878.498 878 C 1882.019 884.995, 1884.800 893.780, 1887.521 906.500 C 1888.462 910.900, 1890.150 916.964, 1891.273 919.976 L 1893.313 925.453 1896.125 914.476 C 1897.671 908.439, 1899.660 901.025, 1900.545 898 C 1901.758 893.853, 1902.190 887.581, 1902.300 872.500 C 1902.458 851.006, 1902.098 848.362, 1895.907 825.500 C 1885.583 787.379, 1863.638 753.880, 1834 731 C 1829.875 727.815, 1825.551 724.304, 1824.391 723.197 C 1823.231 722.090, 1818.731 718.914, 1814.391 716.138 C 1810.051 713.363, 1805.825 710.487, 1805 709.747 C 1804.175 709.007, 1800.912 706.866, 1797.750 704.989 C 1794.588 703.113, 1792 701.035, 1792 700.372 C 1792 699.709, 1791.438 698.960, 1790.750 698.708 C 1789.892 698.394, 1789.820 697.906, 1790.521 697.154 C 1791.908 695.665, 1810.133 703.646, 1824.427 712.002 C 1838.374 720.157, 1848.374 727.590, 1860.626 738.914 C 1865.998 743.878, 1870.561 747.772, 1870.766 747.567 C 1872.065 746.268, 1859.008 725.867, 1848.309 712.481 C 1832.104 692.206, 1811.499 675.251, 1791.944 666.101 C 1783.437 662.121, 1766.026 657.031, 1754 655.009 C 1750.425 654.408, 1746.838 653.686, 1746.028 653.404 C 1739.636 651.181, 1766.655 650.049, 1780.004 651.981 C 1791.061 653.581, 1804.018 657.806, 1815.500 663.554 C 1860.323 685.995, 1892.641 729.925, 1907.421 788.500 C 1920.308 839.576, 1918.430 882.859, 1901.498 925 C 1897.059 936.046, 1890.117 950.451, 1889.520 949.852 C 1889.327 949.659, 1888.202 945.675, 1887.019 941 C 1879.367 910.748, 1868.333 878.334, 1866.359 880.308 C 1866.084 880.583, 1867.297 886.139, 1869.055 892.654 C 1876.564 920.483, 1884.925 965.282, 1888.436 996.500 C 1891.880 1027.134, 1892.815 1065.139, 1890.969 1099.500 C 1888.917 1137.695, 1878.247 1201.770, 1868.405 1235 C 1849.491 1298.861, 1823.302 1356.047, 1792.155 1401.500 C 1788.009 1407.550, 1780.729 1418.350, 1775.976 1425.500 C 1759.328 1450.546, 1736.792 1476.386, 1705.553 1506.249 C 1682.827 1527.974, 1680.244 1530.184, 1655.933 1548.707 C 1617.436 1578.038, 1564.953 1606.489, 1518.003 1623.478 C 1462.686 1643.495, 1422.760 1653.039, 1378 1656.945 C 1342.847 1660.012, 1277.306 1658.986, 1249.513 1654.932 C 1214.710 1649.856, 1174.148 1640.658, 1145.853 1631.424 C 1112.056 1620.395, 1070.280 1602.121, 1036.534 1583.606 C 1002.238 1564.789, 955.057 1529.569, 914.765 1492.705 C 904.743 1483.535, 883.773 1461.291, 868.852 1444 C 862.263 1436.365, 832.749 1397.403, 825.295 1386.500 C 818.300 1376.269, 802.865 1349.459, 791.328 1327.500 C 768.485 1284.022, 759.753 1262.958, 744.487 1214.498 C 734.782 1183.689, 730.425 1165.575, 725.007 1133.500 C 717.894 1091.387, 716.068 1069.914, 715.911 1026.500 C 715.851 1010, 715.479 994.025, 715.084 991 C 714.401 985.760, 714.313 985.627, 713.232 988.187 C 711.774 991.640, 709.452 1011.764, 707.368 1039 C 706.229 1053.889, 705.689 1074.029, 705.612 1104.500 C 705.473 1159.048, 706.301 1168.522, 715.086 1213 C 724.344 1259.870, 733.457 1289.703, 750.185 1327.896 C 776.112 1387.096, 796.918 1422.200, 836.234 1473.079 C 868.576 1514.932, 894.931 1540.426, 943.500 1576.841 C 967.732 1595.008, 973.977 1599.231, 997 1613.017 C 1040.929 1639.321, 1072.129 1653.458, 1123.500 1670.335 C 1199.614 1695.340, 1284.940 1704.265, 1368.947 1696.008 C 1419.854 1691.004, 1450.822 1684.168, 1501 1666.854 C 1559.660 1646.615, 1615.952 1617.266, 1662.269 1582.773 C 1697.843 1556.280, 1724.294 1532.329, 1753.683 1500 C 1772.681 1479.101, 1780.573 1468.728, 1808.842 1427.500 C 1819.585 1411.832, 1836.624 1381.803, 1847.992 1358.500 C 1860.839 1332.166, 1863.847 1325.162, 1870.988 1304.952 C 1891.098 1248.043, 1899.266 1213.187, 1904.018 1164 C 1908.408 1118.562, 1906.700 1049.151, 1900.009 1001.061 C 1898.904 993.119, 1898 985.875, 1898 984.962 C 1898 983.198, 1921.618 963.778, 1931.278 957.599 C 1938.908 952.718, 1950.786 947.290, 1966.500 941.505 C 1983.146 935.376, 1990.105 931.866, 1995.533 926.863 C 2001.157 921.678, 2002.424 917.910, 2001.093 910.316 C 1998.991 898.319, 1997.002 877.133, 1997.001 866.725 L 1997 855.950 1994 855.350 C 1992.350 855.020, 1990.944 854.356, 1990.875 853.875 C 1990.208 849.205, 1990.632 846.262, 1992.196 844.711 C 1993.519 843.399, 1994 841.386, 1994 837.164 C 1994 831.740, 1993.763 831.176, 1989.921 827.453 C 1984.797 822.488, 1983.874 820.781, 1983.365 815.330 C 1982.812 809.412, 1983.048 809.003, 1995.537 794.217 C 1997.992 791.311, 2000.006 788.386, 2000.014 787.717 C 2000.021 787.047, 2000.275 785.579, 2000.577 784.454 C 2001.359 781.541, 1982.780 766.737, 1964.867 756 C 1962.573 754.625, 1957.446 750.350, 1953.472 746.500 C 1945.919 739.181, 1943.931 735.907, 1935.517 716.929 C 1930.628 705.902, 1922.624 693.147, 1915.768 685.457 C 1903.777 672.008, 1880.919 654.710, 1861.500 644.390 C 1845.829 636.062, 1821.096 627.046, 1801.500 622.516 C 1781.161 617.816, 1735.069 615.696, 1715 618.539 M 1364.225 688.709 C 1359.999 689.520, 1357.555 696, 1361.476 696 C 1362.222 696, 1362.983 696.419, 1363.167 696.930 C 1363.350 697.442, 1364.800 698.004, 1366.389 698.180 C 1368.908 698.459, 1369.433 698.051, 1370.479 695 C 1372.628 688.737, 1371.258 687.359, 1364.225 688.709 M 1345.543 716.250 C 1345.327 716.938, 1344.863 719.638, 1344.513 722.251 C 1343.915 726.719, 1344.034 727.063, 1346.509 728.003 C 1348.882 728.906, 1354.209 728.607, 1356.051 727.469 C 1356.446 727.224, 1356.968 725.669, 1357.212 724.012 C 1357.573 721.549, 1357.301 721, 1355.720 721 C 1354.416 721, 1353.973 720.514, 1354.359 719.508 C 1354.731 718.538, 1353.911 717.488, 1352.015 716.508 C 1348.467 714.673, 1346.070 714.578, 1345.543 716.250 M 1336.323 754.250 C 1335.209 755.487, 1333.981 757.059, 1333.595 757.741 C 1332.781 759.181, 1336.913 768.753, 1338.634 769.413 C 1339.950 769.918, 1347.123 766.336, 1348.223 764.625 C 1349.131 763.212, 1348.343 756.509, 1346.966 753.937 C 1345.445 751.094, 1338.993 751.284, 1336.323 754.250 M 1325.870 795.833 C 1324.056 800.587, 1323.725 807.356, 1325.209 809.326 C 1326.938 811.621, 1337.594 812.823, 1340.834 811.089 C 1344.915 808.905, 1343.028 796.691, 1338.211 794.113 C 1337.239 793.593, 1334.293 793.167, 1331.665 793.167 C 1327.410 793.167, 1326.776 793.458, 1325.870 795.833 M 1320 845 C 1315.559 849.441, 1314.847 853.306, 1317.364 859.328 C 1319.585 864.645, 1326.600 867.906, 1332.860 866.531 C 1336.886 865.647, 1341.790 860.493, 1343.046 855.827 C 1343.942 852.503, 1343.815 851.368, 1342.250 848.688 C 1339.762 844.428, 1333.574 841.037, 1328.250 841.016 C 1324.614 841.002, 1323.422 841.578, 1320 845 M 1317.923 897.923 C 1315.261 900.585, 1315 901.458, 1315 907.701 C 1315 915.308, 1316.295 918.067, 1321.011 920.506 C 1327.143 923.677, 1332.517 921.841, 1337.107 915.007 C 1342.180 907.453, 1340.145 900.787, 1331.579 896.896 C 1325.497 894.134, 1321.404 894.442, 1317.923 897.923 M 1318.607 944.095 C 1312.408 948.971, 1309.807 960.479, 1313.494 966.720 C 1316.104 971.139, 1321.728 974, 1327.804 974 C 1334.781 974, 1335.514 973.562, 1339.490 967.016 C 1343.777 959.960, 1344.175 954.361, 1340.750 949.297 C 1336.174 942.531, 1324.178 939.712, 1318.607 944.095 M 1326 1002.075 C 1319.359 1004.836, 1315 1012.007, 1315 1020.172 C 1315 1035.024, 1330.766 1042.412, 1342.254 1032.942 C 1349.346 1027.097, 1350.768 1018.214, 1345.878 1010.303 C 1341.771 1003.657, 1331.962 999.597, 1326 1002.075 M 1337.900 1061.991 C 1331.784 1065.224, 1328.253 1070.129, 1327.457 1076.499 C 1326.135 1087.076, 1328.720 1093.389, 1336.459 1098.485 C 1339.910 1100.758, 1341.332 1101.090, 1346.201 1100.763 C 1353.228 1100.290, 1360.730 1095.605, 1364.122 1089.570 C 1366.959 1084.521, 1367.260 1074.572, 1364.694 1070.655 C 1358.473 1061.161, 1346.684 1057.348, 1337.900 1061.991 M 1371.376 1120.468 C 1362.083 1130.167, 1363.590 1143.656, 1374.566 1149.015 C 1382.108 1152.698, 1388.144 1151.051, 1394.795 1143.496 C 1398.586 1139.189, 1399 1138.205, 1399 1133.509 C 1399 1129.344, 1398.417 1127.495, 1396.090 1124.283 C 1392.570 1119.423, 1385.925 1116, 1380.013 1116 C 1376.161 1116, 1375.162 1116.516, 1371.376 1120.468 M 1402.510 1175.483 C 1396.838 1176.994, 1392.982 1180.862, 1390.396 1187.634 C 1388.833 1191.726, 1388.860 1192.015, 1391.325 1197.399 C 1394.534 1204.408, 1398.429 1206.991, 1405.798 1206.996 C 1410.817 1207, 1411.356 1206.740, 1416.048 1202.048 C 1420.865 1197.230, 1421 1196.934, 1421 1191.196 C 1421 1184.793, 1418.796 1180.300, 1414 1176.924 C 1410.269 1174.298, 1408.017 1174.016, 1402.510 1175.483 M 1418.247 1224.732 C 1417.008 1224.956, 1414.420 1226.624, 1412.497 1228.438 C 1409.308 1231.446, 1409 1232.230, 1409 1237.352 C 1409 1242.122, 1409.432 1243.452, 1411.868 1246.178 C 1414.420 1249.035, 1415.440 1249.433, 1421.118 1249.791 C 1426.504 1250.131, 1427.924 1249.859, 1430.216 1248.051 C 1432.952 1245.893, 1434.984 1240.718, 1434.994 1235.885 C 1435.008 1229.639, 1425.630 1223.394, 1418.247 1224.732 M 1430.270 1277.483 C 1420.804 1281.598, 1420.650 1297.824, 1430.030 1302.775 C 1433.202 1304.449, 1439.577 1303.695, 1442.913 1301.252 C 1451.451 1294.999, 1450.010 1281.409, 1440.383 1277.387 C 1436.280 1275.672, 1434.393 1275.690, 1430.270 1277.483 M 1159.402 1293 C 1159.402 1301.525, 1159.556 1305.013, 1159.743 1300.750 C 1159.931 1296.487, 1159.931 1289.513, 1159.743 1285.250 C 1159.556 1280.987, 1159.402 1284.475, 1159.402 1293 M 1159.417 1327.500 C 1159.418 1337.950, 1159.566 1342.089, 1159.746 1336.698 C 1159.926 1331.307, 1159.925 1322.757, 1159.744 1317.698 C 1159.563 1312.639, 1159.416 1317.050, 1159.417 1327.500 M 1442.250 1330.723 L 1439 1331.127 1439 1339.588 C 1439 1347.894, 1439.050 1348.069, 1441.750 1349.113 C 1445.203 1350.447, 1453.948 1349.702, 1455.011 1347.983 C 1456.403 1345.730, 1457.133 1336.481, 1456.127 1333.835 C 1455.399 1331.920, 1454.208 1331.130, 1451.329 1330.655 C 1449.223 1330.307, 1447.050 1330.089, 1446.500 1330.171 C 1445.950 1330.253, 1444.037 1330.502, 1442.250 1330.723 M 1447.975 1377.565 C 1446.628 1381.109, 1446.753 1387.353, 1448.200 1388.800 C 1449.778 1390.378, 1458.170 1390.344, 1460.246 1388.750 C 1461.260 1387.972, 1461.974 1385.710, 1462.138 1382.757 C 1462.466 1376.856, 1460.529 1375.077, 1453.725 1375.032 C 1449.506 1375.004, 1448.837 1375.299, 1447.975 1377.565 M 1452.074 1416.411 C 1451.273 1417.376, 1451.235 1418.027, 1451.951 1418.470 C 1453.503 1419.429, 1453.223 1421, 1451.500 1421 C 1449.606 1421, 1449.535 1422.884, 1451.401 1423.601 C 1452.172 1423.896, 1453.031 1425.009, 1453.309 1426.073 C 1453.736 1427.707, 1454.608 1427.974, 1458.909 1427.787 C 1464.315 1427.551, 1464.640 1427.209, 1464.864 1421.500 C 1464.958 1419.120, 1464.331 1418.129, 1461.829 1416.703 C 1459.300 1415.263, 1458.495 1415.164, 1457.762 1416.203 C 1457.040 1417.227, 1456.741 1417.237, 1456.341 1416.250 C 1455.664 1414.584, 1453.523 1414.664, 1452.074 1416.411 M 1449.568 1448.222 C 1447.778 1449.224, 1447.426 1453, 1449.122 1453 C 1449.921 1453, 1449.902 1453.413, 1449.056 1454.433 C 1448.100 1455.584, 1448.327 1456.168, 1450.205 1457.399 C 1451.523 1458.262, 1453.517 1458.677, 1454.772 1458.349 C 1456.729 1457.838, 1456.955 1457.230, 1456.632 1453.349 C 1456.429 1450.918, 1455.970 1448.637, 1455.611 1448.278 C 1454.608 1447.275, 1451.314 1447.244, 1449.568 1448.222 M 1425 1591 C 1427.316 1591.742, 1427.242 1591.813, 1424 1591.971 C 1422.075 1592.064, 1419.600 1592.527, 1418.500 1593 L 1416.500 1593.859 1418.500 1593.895 C 1421.137 1593.941, 1432.937 1591.397, 1433.721 1590.613 C 1434.058 1590.276, 1431.671 1590.045, 1428.417 1590.100 C 1423.943 1590.175, 1423.110 1590.395, 1425 1591 M 1004.411 1804 C 1004.411 1813.625, 1004.561 1817.563, 1004.745 1812.750 C 1004.928 1807.938, 1004.928 1800.063, 1004.745 1795.250 C 1004.561 1790.438, 1004.411 1794.375, 1004.411 1804 M 1299.439 1814 C 1299.439 1829.125, 1299.578 1835.313, 1299.748 1827.750 C 1299.917 1820.188, 1299.917 1807.813, 1299.748 1800.250 C 1299.578 1792.688, 1299.439 1798.875, 1299.439 1814 M 1388.461 1832 C 1388.461 1857.025, 1388.590 1867.263, 1388.749 1854.750 C 1388.908 1842.237, 1388.908 1821.763, 1388.749 1809.250 C 1388.590 1796.737, 1388.461 1806.975, 1388.461 1832 M 1659.407 1803 C 1659.407 1812.075, 1659.559 1815.787, 1659.744 1811.250 C 1659.929 1806.713, 1659.929 1799.287, 1659.744 1794.750 C 1659.559 1790.213, 1659.407 1793.925, 1659.407 1803 M 1337.206 1818.741 C 1340.895 1818.932, 1347.195 1818.934, 1351.206 1818.743 C 1355.218 1818.553, 1352.200 1818.396, 1344.500 1818.395 C 1336.800 1818.393, 1333.518 1818.549, 1337.206 1818.741 M 1726.438 1850.500 C 1726.437 1865.350, 1726.576 1871.564, 1726.747 1864.310 C 1726.918 1857.055, 1726.918 1844.905, 1726.748 1837.310 C 1726.578 1829.714, 1726.438 1835.650, 1726.438 1850.500 M 1535.436 1957.500 C 1535.436 1971.800, 1535.577 1977.511, 1535.748 1970.191 C 1535.919 1962.871, 1535.918 1951.171, 1535.747 1944.191 C 1535.575 1937.211, 1535.435 1943.200, 1535.436 1957.500 M 1485.448 1980.500 C 1485.447 1998.650, 1485.582 2006.216, 1485.748 1997.314 C 1485.913 1988.411, 1485.914 1973.561, 1485.749 1964.314 C 1485.583 1955.066, 1485.448 1962.350, 1485.448 1980.500 M 1658.402 1972 C 1658.402 1980.525, 1658.556 1984.013, 1658.743 1979.750 C 1658.931 1975.487, 1658.931 1968.513, 1658.743 1964.250 C 1658.556 1959.987, 1658.402 1963.475, 1658.402 1972 M 1222.441 2014 C 1222.441 2029.675, 1222.579 2036.088, 1222.748 2028.250 C 1222.917 2020.412, 1222.917 2007.588, 1222.748 1999.750 C 1222.579 1991.912, 1222.441 1998.325, 1222.441 2014 M 678.500 2082 L 654.500 2082.555 678.191 2082.777 C 693.151 2082.918, 702.110 2082.631, 702.500 2082 C 702.840 2081.450, 702.979 2081.100, 702.809 2081.223 C 702.639 2081.345, 691.700 2081.695, 678.500 2082 M 1922.500 2082 L 1900.500 2082.559 1922.191 2082.780 C 1935.816 2082.918, 1944.112 2082.628, 1944.500 2082 C 1944.840 2081.450, 1944.979 2081.099, 1944.809 2081.220 C 1944.639 2081.342, 1934.600 2081.693, 1922.500 2082 M 791.807 2082.747 C 798.576 2082.921, 809.376 2082.920, 815.807 2082.746 C 822.238 2082.572, 816.700 2082.431, 803.500 2082.431 C 790.300 2082.432, 785.038 2082.574, 791.807 2082.747 M 980.250 2082.747 C 987.263 2082.919, 998.737 2082.919, 1005.750 2082.747 C 1012.763 2082.575, 1007.025 2082.435, 993 2082.435 C 978.975 2082.435, 973.237 2082.575, 980.250 2082.747 M 1110.250 2082.747 C 1117.263 2082.919, 1128.737 2082.919, 1135.750 2082.747 C 1142.763 2082.575, 1137.025 2082.435, 1123 2082.435 C 1108.975 2082.435, 1103.237 2082.575, 1110.250 2082.747 M 1579.803 2082.746 C 1585.470 2082.925, 1594.470 2082.924, 1599.803 2082.745 C 1605.136 2082.565, 1600.500 2082.419, 1589.500 2082.420 C 1578.500 2082.421, 1574.136 2082.568, 1579.803 2082.746 M 1677.750 2082.746 C 1683.388 2082.924, 1692.612 2082.924, 1698.250 2082.746 C 1703.888 2082.568, 1699.275 2082.422, 1688 2082.422 C 1676.725 2082.422, 1672.112 2082.568, 1677.750 2082.746 M 1753.183 2082.749 C 1764.009 2082.910, 1782.009 2082.910, 1793.183 2082.749 C 1804.358 2082.588, 1795.500 2082.456, 1773.500 2082.456 C 1751.500 2082.455, 1742.358 2082.587, 1753.183 2082.749 M 2033.807 2082.747 C 2040.576 2082.921, 2051.376 2082.920, 2057.807 2082.746 C 2064.238 2082.572, 2058.700 2082.431, 2045.500 2082.431 C 2032.300 2082.432, 2027.038 2082.574, 2033.807 2082.747 M 2393.250 2425.746 C 2399.162 2425.923, 2408.838 2425.923, 2414.750 2425.746 C 2420.662 2425.569, 2415.825 2425.425, 2404 2425.425 C 2392.175 2425.425, 2387.338 2425.569, 2393.250 2425.746" stroke="none" fill="#efb542" fill-rule="evenodd"/><path d="M 1304.500 527.109 C 1272.772 529.043, 1274.238 528.907, 1251.500 532.040 C 1225.611 535.608, 1178.432 544.721, 1158.448 550.015 C 1142.894 554.135, 1121.997 561.824, 1105.440 569.518 C 1101.073 571.547, 1094.762 574.472, 1091.415 576.017 C 1037.081 601.100, 997.350 627.197, 953 666.935 C 923.923 692.988, 889.712 732.933, 868.376 765.741 C 850.379 793.417, 828.308 834.816, 819.459 857.500 C 805.139 894.208, 799.829 910.688, 792.879 940 C 785.245 972.194, 784.160 978.414, 780.492 1011 C 772.185 1084.811, 782.618 1172.378, 808.096 1242.682 C 811.343 1251.643, 814 1259.170, 814 1259.408 C 814 1260.535, 831.632 1299.284, 836.892 1309.716 C 843.057 1321.943, 857.767 1347.249, 867.285 1362 C 875.601 1374.890, 897.279 1403.409, 908.446 1416.151 C 920.697 1430.130, 946.613 1456.160, 962 1469.941 C 975.166 1481.732, 1008.426 1507.043, 1021 1514.839 C 1025.675 1517.738, 1034.900 1523.482, 1041.500 1527.605 C 1058.015 1537.921, 1093.149 1555.457, 1113 1563.293 C 1163.150 1583.088, 1205.080 1593.999, 1250 1598.943 C 1286.072 1602.912, 1295.138 1603.499, 1320 1603.475 C 1354.614 1603.441, 1404.700 1598.454, 1416.287 1593.887 C 1418.920 1592.849, 1422.520 1591.961, 1424.287 1591.914 L 1427.500 1591.828 1424.528 1590.941 C 1422.777 1590.419, 1415.790 1590.448, 1407.528 1591.012 C 1385.958 1592.485, 1365.740 1592.189, 1338.816 1590.006 C 1311.217 1587.767, 1305.828 1587.111, 1281 1582.961 C 1261.436 1579.691, 1245.784 1576.421, 1243.208 1575.066 C 1242.269 1574.571, 1234.975 1572.516, 1227 1570.499 C 1157.317 1552.871, 1078.853 1513.287, 1019 1465.566 C 994.285 1445.860, 981.726 1433.808, 947.552 1397.003 C 933.977 1382.383, 906.699 1345.967, 893.242 1324.500 C 882.228 1306.930, 861.798 1268.006, 854.665 1251 C 841.858 1220.470, 830.552 1184.889, 824.479 1156 C 821.836 1143.431, 816.213 1108.217, 814.817 1095.500 C 813.028 1079.198, 813.041 1015.270, 814.837 1001 C 821.289 949.726, 831.644 907.234, 847.736 866 C 857.907 839.938, 878.045 801.295, 896.200 773 C 904.728 759.710, 923.264 735.037, 931.123 726.513 C 933.666 723.756, 937.998 718.800, 940.751 715.500 C 946.623 708.462, 977.606 677.900, 987 669.882 C 1024.584 637.798, 1072.687 606.631, 1111 589.538 C 1115.675 587.452, 1121.876 584.678, 1124.780 583.373 C 1127.683 582.068, 1130.247 581, 1130.477 581 C 1130.706 581, 1134.180 579.421, 1138.197 577.490 C 1151.442 571.124, 1190.078 558.718, 1214.500 552.989 C 1223.850 550.795, 1234.875 548.124, 1239 547.053 C 1249.132 544.422, 1252.316 543.633, 1253.500 543.462 C 1254.050 543.382, 1255.625 543.039, 1257 542.699 C 1260.718 541.781, 1267.481 541.016, 1276.890 540.450 C 1281.505 540.172, 1285.687 539.694, 1286.183 539.387 C 1286.680 539.080, 1290.329 538.647, 1294.293 538.425 C 1298.257 538.203, 1304.702 537.779, 1308.615 537.481 C 1324.845 536.249, 1363.132 535.901, 1373.500 536.891 C 1379.550 537.469, 1388.775 538.160, 1394 538.425 C 1403.712 538.919, 1415.583 540.323, 1424.500 542.032 C 1427.250 542.560, 1435.575 544.155, 1443 545.578 C 1450.425 547, 1463.475 549.904, 1472 552.031 C 1493.066 557.287, 1501.223 559.110, 1501.671 558.662 C 1502.722 557.611, 1432.904 538.568, 1419 536.114 C 1403.634 533.402, 1376.767 530.026, 1375.716 530.675 C 1375.274 530.949, 1374.370 530.722, 1373.706 530.172 C 1373.043 529.621, 1368 528.922, 1362.500 528.618 C 1357 528.314, 1347.100 527.746, 1340.500 527.355 C 1324.779 526.424, 1316.653 526.369, 1304.500 527.109 M 1338.750 666.084 C 1334.114 670.058, 1332.348 670.483, 1335.655 666.829 C 1339.119 663.002, 1335.107 665.253, 1327.220 671.564 C 1316.913 679.810, 1309.159 688.470, 1298.736 703.375 C 1297.535 705.093, 1296.008 705.237, 1280.463 705.104 C 1256.742 704.901, 1240.940 706.292, 1230.267 709.521 C 1204.668 717.267, 1184.265 732.806, 1173.372 752.851 C 1171.385 756.508, 1168.992 760.625, 1168.054 762 C 1167.117 763.375, 1165.083 769.450, 1163.534 775.500 C 1159.901 789.694, 1159.049 809.860, 1159.536 870.100 L 1159.888 913.700 1098.194 914.326 C 1051.075 914.804, 1034.728 915.289, 1029 916.380 C 1019.014 918.281, 1001.272 925.306, 993.650 930.378 C 985.310 935.927, 973.156 948.094, 968.056 956 C 959.662 969.010, 956.245 977.512, 953.786 991.500 C 951.526 1004.351, 951.500 1005.460, 951.509 1088 C 951.521 1190.366, 952.050 1197.012, 961.808 1217.337 C 965.649 1225.339, 968.502 1229.520, 975.222 1237 C 985.702 1248.666, 992.555 1254.739, 996.500 1255.858 C 998.150 1256.326, 1001.161 1257.839, 1003.192 1259.221 C 1005.223 1260.602, 1009.273 1262.498, 1012.192 1263.433 C 1015.111 1264.369, 1020.285 1266.233, 1023.690 1267.575 C 1032.696 1271.126, 1050.943 1271.969, 1119.233 1271.988 L 1159.965 1272 1159.984 1324.250 C 1160.013 1400.312, 1161.183 1410.811, 1171.657 1428.956 C 1178.322 1440.501, 1183.505 1446.842, 1193.741 1455.975 C 1207.977 1468.678, 1223.040 1475.122, 1248 1479.186 C 1255.398 1480.390, 1359.208 1481.143, 1360.316 1480 C 1360.583 1479.725, 1361.841 1470.050, 1363.112 1458.500 C 1366.791 1425.068, 1366.109 1380.161, 1361.470 1350.433 C 1358.419 1330.878, 1349.738 1295.832, 1335.477 1245.500 C 1333.140 1237.250, 1327.164 1218.125, 1322.197 1203 C 1311.296 1169.801, 1290.335 1102.877, 1286.593 1089.322 C 1283.641 1078.629, 1274.773 1046.031, 1272.904 1039 C 1271.021 1031.918, 1264.552 1002.002, 1261.520 986.351 C 1257.403 965.100, 1253.534 912.594, 1254.421 890 C 1255.336 866.672, 1256.794 849.395, 1259.021 835.500 C 1264.545 801.029, 1279.474 758.292, 1296.269 728.875 C 1299.841 722.619, 1304.018 714.905, 1305.552 711.734 C 1309.541 703.485, 1328.727 678.330, 1335.335 672.685 C 1340.887 667.942, 1345.890 661.994, 1344.318 662.006 C 1343.868 662.010, 1341.362 663.845, 1338.750 666.084 M 1410.973 706.570 C 1407.425 715.903, 1396.929 763.569, 1394.033 783.500 C 1384.801 847.040, 1383.771 889.648, 1390.046 948.500 C 1392.489 971.410, 1393.843 979.570, 1399.049 1002.725 C 1412.583 1062.926, 1436.869 1121.683, 1472.528 1180.500 C 1498.944 1224.070, 1501.843 1229.069, 1507.911 1241.500 C 1514.126 1254.232, 1519.838 1270.632, 1522.365 1283 C 1524.643 1294.151, 1526.221 1315.390, 1525.457 1324.624 C 1524.946 1330.791, 1525.097 1332.942, 1526.083 1333.551 C 1526.838 1334.018, 1527.542 1333.875, 1527.763 1333.210 C 1527.973 1332.581, 1529.266 1330.414, 1530.635 1328.396 C 1532.005 1326.377, 1533.809 1322.875, 1534.644 1320.613 C 1535.479 1318.351, 1536.843 1315.234, 1537.675 1313.686 C 1540.095 1309.187, 1541.927 1296.440, 1541.965 1283.840 L 1542 1272.179 1590.250 1271.710 C 1629.045 1271.333, 1639.872 1270.935, 1645.500 1269.678 C 1666.535 1264.980, 1677.751 1259.802, 1691.066 1248.642 C 1710.995 1231.938, 1721.489 1211.909, 1723.922 1185.934 C 1725.367 1170.505, 1725.365 1011.482, 1723.919 996 C 1723.329 989.675, 1721.944 981.800, 1720.843 978.500 C 1716.093 964.273, 1704.063 946.610, 1693.132 937.818 C 1678.289 925.878, 1659.022 916.938, 1644 915.020 C 1639.875 914.493, 1609.612 914.048, 1576.750 914.031 L 1517 914 1516.940 862.750 C 1516.870 802.472, 1516.121 785.758, 1512.985 774.500 C 1509.514 762.040, 1500.392 745.343, 1491.831 735.779 C 1477.538 719.812, 1449.941 707.393, 1424.500 705.481 C 1420.100 705.150, 1415.480 704.671, 1414.234 704.417 C 1412.493 704.061, 1411.738 704.560, 1410.973 706.570 M 1231.481 819.750 C 1198.094 889.474, 1189.953 960.710, 1206.138 1041.500 C 1215.209 1086.780, 1220.973 1106.868, 1246.308 1181.500 C 1252.095 1198.550, 1260.282 1224.200, 1264.500 1238.500 C 1268.718 1252.800, 1273.510 1268.757, 1275.148 1273.960 C 1289.456 1319.398, 1297.083 1378.505, 1293.348 1415 C 1292.531 1422.975, 1291.303 1433.662, 1290.617 1438.750 C 1289.931 1443.838, 1289.735 1448, 1290.182 1448 C 1291.426 1448, 1301.408 1426.503, 1304.345 1417.500 C 1312.339 1392.990, 1314.727 1364.861, 1311.503 1333.173 C 1307.886 1297.620, 1301.110 1266.953, 1283.845 1208 C 1278.932 1191.225, 1273.083 1171.200, 1270.848 1163.500 C 1268.613 1155.800, 1265.526 1145.450, 1263.988 1140.500 C 1255.074 1111.814, 1242.469 1060.513, 1237.083 1031 C 1232.778 1007.407, 1232.342 1004.274, 1229.502 976.500 C 1225.121 933.646, 1225.145 902.011, 1229.594 860.500 C 1230.984 847.520, 1234.338 823.134, 1235.611 816.750 C 1236.533 812.123, 1234.386 813.683, 1231.481 819.750 M 1466 1786.075 C 1458.514 1787.403, 1449.227 1791.911, 1444.300 1796.608 C 1437.687 1802.912, 1434.974 1816.214, 1438.553 1824.782 C 1442.263 1833.663, 1450.368 1838.270, 1470.682 1843.043 C 1481.961 1845.693, 1484.335 1846.581, 1485.697 1848.660 C 1487.224 1850.991, 1487.192 1851.252, 1485.122 1853.315 C 1483.164 1855.266, 1481.942 1855.487, 1473.715 1855.382 C 1465.764 1855.281, 1463.142 1854.765, 1454.596 1851.620 C 1449.149 1849.615, 1444.462 1848.204, 1444.182 1848.485 C 1443.104 1849.563, 1437.040 1866.606, 1437.020 1868.611 C 1436.991 1871.625, 1445.457 1874.643, 1461.287 1877.262 C 1472.809 1879.168, 1474.836 1879.249, 1481.785 1878.082 C 1501.172 1874.824, 1510.719 1868.230, 1514.569 1855.438 C 1519.968 1837.496, 1509.788 1826.646, 1481.646 1820.350 C 1466.008 1816.851, 1463.019 1814.490, 1468.635 1810.073 C 1470.373 1808.706, 1472.734 1808, 1475.569 1808 C 1480.290 1808, 1493.148 1810.476, 1495.816 1811.898 C 1498.882 1813.533, 1503.228 1813.587, 1504.064 1812 C 1507.132 1806.184, 1511 1796.380, 1511 1794.423 C 1511 1791.457, 1509.165 1790.490, 1498.818 1788.002 C 1488.901 1785.618, 1473.631 1784.721, 1466 1786.075 M 879.240 1831.750 L 879.500 1876.500 894 1876.341 L 908.500 1876.181 909 1865.446 C 909.400 1856.864, 909.836 1854.499, 911.172 1853.659 C 913.633 1852.113, 917.412 1854.183, 920.717 1858.888 C 922.248 1861.066, 925.716 1866.009, 928.424 1869.872 L 933.349 1876.896 948.312 1876.478 C 956.541 1876.247, 963.418 1875.915, 963.594 1875.739 C 963.770 1875.564, 960.522 1870.488, 956.377 1864.460 C 952.232 1858.432, 948.191 1852.265, 947.397 1850.755 C 945.970 1848.040, 946.009 1847.976, 950.931 1844.948 C 959.173 1839.876, 962.054 1833.544, 962.054 1820.500 C 962.054 1807.301, 959.070 1801.135, 949.489 1794.537 C 940.581 1788.402, 932.298 1787.056, 903.240 1787.026 L 878.979 1787 879.240 1831.750 M 974.008 1809.750 C 974.017 1835.321, 975.088 1847.487, 978.017 1855.317 C 983.433 1869.791, 997.895 1878.141, 1017.500 1878.112 C 1036.220 1878.084, 1047.806 1872.452, 1055.388 1859.693 C 1060.086 1851.786, 1060.864 1845.676, 1061.238 1813.750 L 1061.552 1787 1046.776 1787 L 1032 1787 1032 1813.057 C 1032 1842.858, 1031.443 1846.526, 1026.220 1851.111 C 1023.009 1853.931, 1022.187 1854.180, 1017.400 1853.783 C 1011.215 1853.270, 1009.317 1851.949, 1006.883 1846.458 C 1005.366 1843.039, 1004.982 1838.143, 1004.388 1814.708 L 1003.687 1787 988.843 1787 L 974 1787 974.008 1809.750 M 1074 1831.786 L 1074 1876.632 1087.497 1876.566 L 1100.994 1876.500 1100.997 1857.750 C 1100.999 1846.214, 1101.376 1839, 1101.977 1839 C 1103.073 1839, 1103.415 1839.519, 1111.532 1853.500 C 1119.710 1867.586, 1120.153 1868, 1127.085 1868 C 1134.116 1868, 1134.615 1867.489, 1145.061 1849.599 C 1149.107 1842.670, 1152.774 1837, 1153.209 1837 C 1153.644 1837, 1154 1846.013, 1154 1857.029 L 1154 1877.058 1167.250 1876.779 L 1180.500 1876.500 1180.760 1831.750 L 1181.021 1787 1168.644 1787 L 1156.268 1787 1142.636 1810.243 C 1135.139 1823.027, 1128.778 1833.940, 1128.502 1834.493 C 1128.169 1835.162, 1127.830 1835.164, 1127.493 1834.500 C 1127.214 1833.950, 1120.736 1823.150, 1113.097 1810.500 L 1099.208 1787.500 1086.604 1787.220 L 1074 1786.940 1074 1831.786 M 1223.357 1790.750 C 1222.510 1792.813, 1218.083 1802.825, 1213.520 1813 C 1208.957 1823.175, 1202.690 1837.575, 1199.592 1845 C 1196.495 1852.425, 1192.147 1862.265, 1189.930 1866.866 C 1187.713 1871.468, 1186.175 1875.508, 1186.512 1875.846 C 1187.488 1876.821, 1214.366 1877.179, 1215.749 1876.235 C 1216.437 1875.766, 1218.012 1872.259, 1219.249 1868.441 L 1221.500 1861.500 1238.500 1860.957 C 1249.770 1860.597, 1255.749 1860.765, 1256.238 1861.457 C 1256.644 1862.031, 1258.138 1865.517, 1259.558 1869.205 C 1261.032 1873.031, 1262.862 1876.118, 1263.820 1876.395 C 1264.744 1876.662, 1271.463 1876.808, 1278.750 1876.721 C 1289.300 1876.594, 1292 1876.280, 1292 1875.176 C 1292 1874.414, 1288.784 1866.300, 1284.852 1857.145 C 1280.921 1847.990, 1275.597 1835.550, 1273.021 1829.500 C 1270.445 1823.450, 1265.223 1811.428, 1261.418 1802.785 L 1254.500 1787.069 1239.699 1787.035 L 1224.898 1787 1223.357 1790.750 M 1300 1832.027 L 1300 1877.053 1314.750 1876.777 L 1329.500 1876.500 1329.500 1860 L 1329.500 1843.500 1343.726 1843.223 L 1357.951 1842.945 1358.226 1859.723 L 1358.500 1876.500 1373.250 1876.777 L 1388 1877.053 1388 1832.027 L 1388 1787 1373 1787 L 1358 1787 1358 1803.028 L 1358 1819.056 1344.250 1818.778 L 1330.500 1818.500 1330.225 1802.750 L 1329.949 1787 1314.975 1787 L 1300 1787 1300 1832.027 M 1553.056 1791.250 C 1552.363 1793.588, 1548.642 1802.475, 1544.787 1811 C 1540.932 1819.525, 1534.277 1834.600, 1529.998 1844.500 C 1525.719 1854.400, 1520.839 1865.386, 1519.152 1868.914 C 1517.465 1872.442, 1516.278 1875.642, 1516.515 1876.025 C 1516.933 1876.700, 1544.333 1876.219, 1546.656 1875.495 C 1547.291 1875.297, 1548.128 1873.642, 1548.514 1871.818 C 1549.396 1867.659, 1553.017 1861.014, 1554.434 1860.956 C 1566.564 1860.461, 1587.422 1860.841, 1587.583 1861.559 C 1587.699 1862.077, 1588.796 1865.763, 1590.022 1869.750 L 1592.251 1877 1607.625 1877 C 1625.102 1877, 1624.685 1877.259, 1620.493 1868.987 C 1619.115 1866.266, 1617.056 1861.669, 1615.919 1858.770 C 1614.781 1855.872, 1611.686 1848.550, 1609.041 1842.500 C 1606.396 1836.450, 1600.319 1822.500, 1595.537 1811.500 C 1590.755 1800.500, 1586.193 1790.487, 1585.398 1789.250 C 1584.007 1787.083, 1583.408 1787, 1569.135 1787 L 1554.317 1787 1553.056 1791.250 M 1630.006 1823.750 C 1630.009 1843.963, 1630.301 1864.213, 1630.654 1868.750 L 1631.296 1877 1638.398 1876.993 C 1642.304 1876.989, 1648.499 1876.702, 1652.165 1876.356 L 1658.830 1875.727 1659.165 1865.113 C 1659.477 1855.220, 1659.695 1854.246, 1662.369 1850.750 C 1663.946 1848.688, 1665.828 1847, 1666.549 1847 C 1667.271 1847, 1672.175 1853.288, 1677.447 1860.973 C 1682.719 1868.659, 1687.865 1875.392, 1688.883 1875.937 C 1691.740 1877.466, 1723.320 1877.272, 1722.719 1875.729 C 1722.455 1875.053, 1718.023 1868.868, 1712.870 1861.985 C 1700.765 1845.817, 1690.822 1832.222, 1688.557 1828.745 C 1686.349 1825.354, 1685.816 1826.166, 1701 1809.807 C 1707.325 1802.993, 1714.454 1795.074, 1716.843 1792.209 L 1721.186 1787 1705.162 1787 L 1689.138 1787 1682.393 1794.750 C 1670.826 1808.039, 1660.609 1819, 1659.788 1819 C 1659.355 1819, 1659 1811.800, 1659 1803 L 1659 1787 1644.500 1787 L 1630 1787 1630.006 1823.750 M 1726.804 1796.250 C 1726.566 1807.520, 1726.567 1816.796, 1726.811 1850.826 L 1727 1877.152 1741.250 1876.799 L 1755.500 1876.446 1755.760 1831.723 L 1756.021 1787 1741.510 1787 L 1727 1787 1726.804 1796.250 M 1765 1799.091 L 1765 1811.182 1776.750 1810.985 C 1783.213 1810.876, 1789.063 1810.835, 1789.750 1810.894 C 1790.717 1810.976, 1791.002 1817.278, 1791.009 1838.750 C 1791.013 1854.013, 1791.301 1868.862, 1791.648 1871.750 L 1792.279 1877 1806.626 1877 L 1820.973 1877 1821.237 1843.750 L 1821.500 1810.500 1834.250 1810.220 L 1847 1809.940 1847 1798.470 L 1847 1787 1806 1787 L 1765 1787 1765 1799.091 M 909.454 1811.260 C 909.159 1812.029, 909.048 1816.673, 909.209 1821.579 L 909.500 1830.500 916 1830.818 C 925.158 1831.266, 929.685 1829.729, 931.710 1825.482 C 933.082 1822.605, 933.148 1821.436, 932.127 1818.031 C 930.519 1812.664, 928.079 1811.347, 918.245 1810.540 C 911.635 1809.997, 909.883 1810.140, 909.454 1811.260 M 1234.687 1827.240 C 1232.622 1832.333, 1230.674 1837.063, 1230.359 1837.750 C 1229.923 1838.700, 1231.968 1839, 1238.893 1839 C 1243.902 1839, 1248 1838.647, 1248 1838.215 C 1248 1836.477, 1240.263 1818.588, 1239.385 1818.295 C 1238.866 1818.122, 1236.752 1822.147, 1234.687 1827.240 M 1564.751 1827.750 C 1562.814 1833.112, 1561.516 1837.800, 1561.865 1838.166 C 1563.459 1839.839, 1578 1839.482, 1578 1837.769 C 1578 1835.150, 1570.598 1818, 1569.467 1818 C 1568.810 1818, 1566.688 1822.388, 1564.751 1827.750 M 889.273 1929.031 C 868.675 1931.197, 849.313 1941.748, 841.232 1955.212 C 834.728 1966.048, 833.423 1982.898, 838.101 1995.658 C 840.879 2003.235, 848.127 2010.282, 858.917 2015.896 C 865.292 2019.213, 871.870 2021.304, 890.727 2026.007 C 916.084 2032.332, 918 2033.239, 918 2038.922 C 918 2045.646, 910.971 2047.750, 892.055 2046.685 C 879.982 2046.006, 871.189 2043.773, 857.924 2038.020 C 852.805 2035.800, 848.297 2034.325, 847.907 2034.742 C 847.517 2035.159, 845.178 2040.450, 842.710 2046.500 C 840.242 2052.550, 837.020 2060.120, 835.549 2063.322 C 832.519 2069.919, 832.823 2070.871, 838.933 2073.935 C 851.566 2080.270, 869.862 2083.977, 892 2084.687 C 905.987 2085.135, 910.223 2084.899, 919.813 2083.136 C 936.405 2080.085, 947.441 2074.829, 955.998 2065.905 C 964.683 2056.846, 968.553 2045.595, 967.798 2031.591 C 967.023 2017.185, 961.174 2007.853, 948.500 2000.796 C 937.177 1994.492, 927.788 1991.465, 904.045 1986.463 C 886.517 1982.771, 885.305 1981.970, 885.940 1974.500 C 886.416 1968.905, 897.023 1965.299, 909.553 1966.473 C 915.500 1967.030, 929.066 1971.005, 946.253 1977.227 C 947.078 1977.526, 961 1943.922, 961 1941.633 C 961 1939.787, 954.671 1936.895, 943.500 1933.638 C 926.152 1928.579, 908.136 1927.048, 889.273 1929.031 M 714.564 1935.739 C 712.024 1941.983, 691.643 1988.485, 669.527 2038.500 C 659.799 2060.500, 651.596 2079.295, 651.299 2080.267 C 650.790 2081.930, 652.283 2082.018, 676.503 2081.767 L 702.248 2081.500 706.173 2070.525 C 708.331 2064.488, 710.820 2058.751, 711.704 2057.775 C 713.171 2056.153, 715.796 2056, 742.062 2056 L 770.814 2056 774.457 2067.750 C 776.460 2074.213, 778.288 2080.063, 778.518 2080.750 C 778.836 2081.697, 784.763 2082.043, 802.969 2082.179 C 816.186 2082.277, 828.013 2082.389, 829.250 2082.429 C 830.686 2082.474, 831.437 2081.958, 831.327 2081 C 831.231 2080.175, 825.675 2066.900, 818.978 2051.500 C 812.282 2036.100, 803.966 2016.975, 800.498 2009 C 794.457 1995.109, 785.796 1975.402, 779.185 1960.500 C 777.477 1956.650, 774.124 1948.550, 771.734 1942.500 L 767.390 1931.500 741.945 1931.239 L 716.500 1930.979 714.564 1935.739 M 1030.873 1935.710 C 1029.724 1938.344, 1027.237 1944.074, 1025.347 1948.443 C 1023.457 1952.812, 1021.275 1957.762, 1020.499 1959.443 C 1019.723 1961.124, 1013.030 1976.450, 1005.626 1993.500 C 987.136 2036.075, 974.883 2064.020, 970.603 2073.375 C 968.621 2077.706, 967 2081.419, 967 2081.625 C 967 2081.831, 978.617 2082, 992.816 2082 L 1018.633 2082 1023.220 2069.250 L 1027.808 2056.500 1057.154 2056.251 L 1086.500 2056.002 1090.912 2068.251 C 1093.338 2074.988, 1095.618 2080.845, 1095.979 2081.267 C 1096.339 2081.689, 1108.352 2081.914, 1122.675 2081.767 L 1148.716 2081.500 1142.828 2068.541 C 1139.589 2061.413, 1133.385 2047.238, 1129.041 2037.041 C 1124.697 2026.843, 1119.273 2014.450, 1116.988 2009.500 C 1114.702 2004.550, 1110.574 1995.100, 1107.813 1988.500 C 1105.052 1981.900, 1098.630 1967.050, 1093.541 1955.500 C 1088.453 1943.950, 1084.030 1933.754, 1083.712 1932.843 C 1083.196 1931.364, 1080.432 1931.171, 1058.049 1931.052 L 1032.963 1930.919 1030.873 1935.710 M 1223 2007.140 L 1223 2083.327 1274.063 2082.674 C 1328.791 2081.975, 1328.468 2082.004, 1345.275 2076.283 C 1354.782 2073.047, 1363.110 2066.633, 1367.140 2059.443 C 1372.544 2049.804, 1372.644 2032.628, 1367.353 2022.907 C 1363.869 2016.505, 1355.413 2008.705, 1349.517 2006.453 C 1347.033 2005.505, 1345.004 2004.452, 1345.010 2004.114 C 1345.015 2003.776, 1348.057 2000.755, 1351.770 1997.401 C 1356.240 1993.362, 1359.530 1989.309, 1361.510 1985.401 C 1364.179 1980.134, 1364.498 1978.533, 1364.480 1970.500 C 1364.464 1963.151, 1364.038 1960.643, 1362.157 1956.829 C 1357.562 1947.510, 1345.226 1938.143, 1332.807 1934.542 C 1325.586 1932.448, 1301.469 1931.367, 1256.750 1931.131 L 1223 1930.953 1223 2007.140 M 1388.300 1978.750 C 1388.824 2022.143, 1389.064 2027.321, 1390.938 2035.500 C 1393.541 2046.865, 1397.450 2054.864, 1404.195 2062.629 C 1411.112 2070.591, 1414.503 2073.359, 1421.747 2076.953 C 1433.042 2082.557, 1440.906 2084.198, 1459.032 2084.733 C 1474.571 2085.191, 1476.161 2085.062, 1485.532 2082.577 C 1496.940 2079.551, 1506.477 2075.374, 1512.044 2070.965 C 1516.803 2067.196, 1524.289 2057.351, 1528.028 2049.944 C 1534.278 2037.564, 1534.306 2037.276, 1534.737 1981.750 L 1535.131 1931 1510.675 1931 L 1486.219 1931 1485.734 1978.250 C 1485.390 2011.727, 1484.888 2026.666, 1484.011 2029.500 C 1482.266 2035.142, 1474.683 2042.469, 1468.998 2044.005 C 1458.709 2046.785, 1448.456 2043.056, 1443.613 2034.772 C 1439.575 2027.867, 1439.016 2020.510, 1439.008 1974.250 L 1439 1931 1413.362 1931 L 1387.724 1931 1388.300 1978.750 M 1559 2006.441 C 1559 2047.934, 1559.338 2082.072, 1559.750 2082.303 C 1560.162 2082.535, 1571.300 2082.504, 1584.500 2082.235 L 1608.500 2081.745 1608.224 2048.394 C 1607.992 2020.313, 1608.167 2015.127, 1609.333 2015.574 C 1611.253 2016.311, 1649.250 2060.856, 1661.500 2076.731 L 1665.500 2081.915 1686.750 2081.957 L 1708 2082 1708 2006.483 L 1708 1930.965 1683.250 1931.233 L 1658.500 1931.500 1658.886 1965.500 L 1659.272 1999.500 1656.999 1997.500 C 1655.749 1996.400, 1647.912 1987.400, 1639.584 1977.500 C 1631.256 1967.600, 1619.524 1953.650, 1613.513 1946.500 C 1607.502 1939.350, 1602.035 1932.938, 1601.363 1932.250 C 1600.465 1931.330, 1594.711 1931, 1579.571 1931 L 1559 1931 1559 2006.441 M 1734 2006.441 L 1734 2082.124 1781.250 2081.770 L 1828.500 2081.417 1838.500 2078.337 C 1844 2076.643, 1850.975 2074.137, 1854 2072.767 C 1869.590 2065.708, 1883.511 2050.296, 1889.700 2033.246 C 1894.721 2019.413, 1894.905 1995.559, 1890.100 1981.297 C 1884.775 1965.491, 1871.807 1950.686, 1856.370 1942.789 C 1836.567 1932.660, 1831.467 1931.913, 1777.750 1931.276 L 1734 1930.758 1734 2006.441 M 1956.046 1938.233 C 1954.250 1942.230, 1947.689 1957.200, 1941.467 1971.500 C 1935.246 1985.800, 1927.378 2003.800, 1923.983 2011.500 C 1920.589 2019.200, 1915.418 2031.125, 1912.493 2038 C 1909.568 2044.875, 1903.985 2057.466, 1900.087 2065.980 C 1896.189 2074.494, 1893 2081.582, 1893 2081.730 C 1893 2081.879, 1904.500 2082, 1918.556 2082 L 1944.112 2082 1945.921 2077.750 C 1946.916 2075.412, 1949.241 2069.563, 1951.087 2064.750 L 1954.444 2056 1983.592 2056 L 2012.741 2056 2015.277 2063.250 C 2016.672 2067.238, 2018.613 2073.088, 2019.589 2076.250 L 2021.365 2082 2044.933 2082.077 C 2057.895 2082.119, 2069.400 2082.334, 2070.500 2082.554 C 2074.855 2083.428, 2075.011 2082.273, 2071.557 2074.694 C 2069.703 2070.626, 2065.425 2060.658, 2062.051 2052.542 C 2058.677 2044.426, 2052.834 2030.972, 2049.067 2022.643 C 2045.300 2014.314, 2039.871 2001.875, 2037.003 1995 C 2034.134 1988.125, 2028.705 1975.750, 2024.937 1967.500 C 2021.170 1959.250, 2016.148 1947.775, 2013.777 1942 L 2009.467 1931.500 1984.390 1931.233 L 1959.313 1930.966 1956.046 1938.233 M 1272.990 1967.184 C 1272.493 1983.463, 1272.599 1988.254, 1273.468 1988.799 C 1275.054 1989.794, 1303.079 1989.018, 1306.708 1987.880 C 1311.076 1986.509, 1314.419 1981.049, 1313.592 1976.638 C 1313.253 1974.830, 1311.602 1972.034, 1309.925 1970.425 L 1306.874 1967.500 1289.937 1967.184 C 1280.622 1967.010, 1272.996 1967.010, 1272.990 1967.184 M 1784.631 1973.250 C 1783.705 1976.709, 1785.144 2042.422, 1786.160 2043.076 C 1786.653 2043.393, 1793.006 2043.483, 1800.278 2043.276 C 1815.625 2042.839, 1825.047 2040.219, 1831.675 2034.546 C 1839.448 2027.893, 1843.710 2015.892, 1842.664 2003.605 C 1841.842 1993.954, 1839.615 1987.980, 1834.798 1982.508 C 1827.152 1973.821, 1817.991 1971, 1797.433 1971 C 1785.627 1971, 1785.214 1971.073, 1784.631 1973.250 M 1055.095 1986.076 C 1054.424 1988.317, 1051.428 1996.249, 1048.437 2003.701 C 1045.447 2011.154, 1043 2017.870, 1043 2018.626 C 1043 2019.729, 1045.880 2020, 1057.583 2020 C 1065.604 2020, 1072.017 2019.632, 1071.833 2019.182 C 1071.650 2018.733, 1068.406 2010.183, 1064.624 2000.182 C 1060.842 1990.182, 1057.426 1982, 1057.032 1982 C 1056.639 1982, 1055.767 1983.834, 1055.095 1986.076 M 1980.562 1988.750 C 1972.598 2008.131, 1969 2017.435, 1969 2018.650 C 1969 2019.721, 1971.994 2020, 1983.500 2020 C 1991.475 2020, 1998 2019.824, 1998 2019.608 C 1998 2019.393, 1995.813 2013.430, 1993.140 2006.358 C 1990.466 1999.286, 1987.529 1990.912, 1986.612 1987.750 C 1985.695 1984.588, 1984.582 1982, 1984.140 1982 C 1983.698 1982, 1982.088 1985.037, 1980.562 1988.750 M 736.685 1991.718 C 730.817 2005.927, 726.200 2018.866, 726.787 2019.454 C 727.088 2019.754, 733.558 2020, 741.167 2020 C 751.998 2020, 755 2019.712, 755 2018.672 C 755 2017.942, 753.801 2014.455, 752.336 2010.922 C 750.870 2007.390, 748.036 1999.805, 746.038 1994.068 C 744.040 1988.330, 741.934 1983.478, 741.358 1983.286 C 740.782 1983.094, 738.679 1986.889, 736.685 1991.718 M 1272.218 2034.750 L 1272.500 2046.500 1290.570 2046.772 C 1314.241 2047.128, 1315.843 2046.791, 1318.813 2040.825 C 1320.803 2036.829, 1320.980 2035.639, 1320.083 2032.309 C 1317.789 2023.789, 1315.659 2023.151, 1289.218 2023.060 L 1271.937 2023 1272.218 2034.750" stroke="none" fill="#3064ac" fill-rule="evenodd"/></svg>