<svg xmlns="http://www.w3.org/2000/svg" width="200" height="48" viewBox="0 0 2658 984" version="1.1"><path d="M 583.667 185.815 C 582.764 186.813, 581.514 189.095, 580.890 190.886 C 580.212 192.831, 578.737 194.530, 577.229 195.103 C 574.927 195.978, 574.854 196.173, 576.409 197.310 C 577.912 198.409, 577.990 199.326, 577.065 205.029 C 573.089 229.537, 581.475 253.001, 598.805 265.860 C 607.286 272.153, 609.079 274.117, 613.079 281.500 C 614.866 284.800, 616.818 287.831, 617.415 288.235 C 619.224 289.460, 623.210 289.088, 624.390 287.585 C 625.331 286.384, 627.974 286.798, 641.788 290.305 C 654.063 293.422, 658.499 294.182, 659.788 293.388 C 660.730 292.808, 663.868 288.996, 666.763 284.917 C 669.657 280.838, 674.157 274.725, 676.763 271.333 C 679.368 267.941, 681.500 264.583, 681.500 263.870 C 681.500 260.981, 675.441 260.658, 666.813 263.089 C 656.476 266.002, 641.664 266.207, 632.500 263.566 C 622.151 260.583, 608.128 253.013, 602.389 247.312 C 595.767 240.733, 589.938 230.353, 588.246 222.129 C 586.990 216.019, 587.218 212.616, 588.616 216.607 C 593.013 229.155, 595.690 233.819, 602.473 240.750 C 609.119 247.541, 613 249.730, 613 246.687 C 613 245.965, 611.710 244.138, 610.134 242.628 C 607.204 239.821, 601.340 229.327, 602.213 228.453 C 602.479 228.187, 604.375 230.689, 606.427 234.012 C 614.543 247.161, 626.331 257.272, 637.828 260.945 C 646.567 263.737, 662 264.170, 662 261.623 C 662 260.866, 659.862 259.324, 657.250 258.198 C 649.006 254.642, 644.649 248.062, 640.568 233 C 637.929 223.263, 633.497 214.682, 629.015 210.633 C 626.815 208.645, 617.380 203.196, 608.048 198.524 C 596.206 192.595, 590.409 189.119, 588.853 187.015 C 586.248 183.491, 585.853 183.400, 583.667 185.815 M 693 231.086 C 676.595 235.333, 673 236.794, 673 239.213 C 673 240.296, 675.278 243.504, 678.062 246.341 C 687.008 255.457, 691.534 265.915, 698.663 293.943 C 705.443 320.599, 714.693 334.066, 733.500 344.664 C 737.350 346.833, 742.975 349.570, 746 350.746 C 763.978 357.735, 771.057 360.576, 775.623 362.633 C 785.956 367.290, 794.131 378.815, 797.546 393.540 C 799.284 401.038, 801.743 407.591, 802.524 406.809 C 802.798 406.536, 804.133 402.079, 805.492 396.906 C 813.140 367.787, 802.797 330.029, 780.666 306.275 C 774.626 299.792, 760.009 287.701, 750.414 281.250 C 744.424 277.222, 746.025 277.085, 754.448 280.904 C 763.198 284.871, 773.133 291.500, 781.500 298.954 C 790.513 306.983, 791.119 305.095, 783.315 293.305 C 776.994 283.756, 763.349 269.333, 755.687 264.103 C 748.517 259.208, 738.602 254.959, 728.500 252.452 L 719.500 250.219 726.292 250.109 C 748.471 249.752, 771.277 261.710, 787.468 282.186 C 804.600 303.852, 814.013 333.178, 813.992 364.822 C 813.984 377.744, 812.885 386.218, 809.949 396 C 807.876 402.908, 800.958 419.292, 800.366 418.699 C 800.172 418.505, 798.195 412.130, 795.973 404.531 C 791.622 389.649, 788.278 381, 786.877 381 C 785.695 381, 785.762 381.811, 787.422 387.568 C 790.667 398.827, 796.019 426.610, 798.676 446 C 801.059 463.390, 801.069 505.134, 798.695 524.500 C 794.121 561.806, 785.579 595.049, 772.487 626.500 C 762.528 650.425, 740.991 686.464, 723.987 707.657 C 700.389 737.069, 668.041 765.468, 639 782.270 C 614.229 796.601, 593.642 805.659, 567.500 813.728 C 543.116 821.254, 534.417 823.231, 515.500 825.541 C 501.069 827.304, 450.685 827.583, 436.784 825.976 C 420.384 824.081, 386.695 816.726, 373 812.051 C 348.505 803.689, 315.077 788.316, 299.500 778.250 C 246.557 744.036, 206.490 702.579, 177.490 652.009 C 158.807 619.429, 146.224 588.802, 138.046 556 C 130.234 524.664, 128.060 508.784, 126.657 472.831 C 126.021 456.513, 125.192 442.855, 124.816 442.480 C 120.686 438.366, 117.390 526.725, 120.786 550.500 C 123.988 572.919, 131.417 604.217, 137.044 619 C 138.196 622.025, 139.732 626.075, 140.457 628 C 146.809 644.858, 161.597 674.157, 171.747 689.994 C 200.052 734.159, 228.149 763.149, 270.500 791.887 C 300.862 812.490, 322.166 822.828, 360.434 835.528 C 408.934 851.624, 465.459 856.042, 520.735 848.057 C 536.872 845.726, 558.143 840.118, 578.194 832.909 C 584.412 830.673, 590.625 828.482, 592 828.039 C 595.473 826.921, 611.543 819.761, 619.167 815.934 C 639.706 805.626, 664.332 789.836, 682.500 775.327 C 695.007 765.339, 722.593 738.201, 731.626 727 C 737.954 719.153, 755.898 693.173, 762.728 681.970 C 781.781 650.719, 797.576 609.668, 804.958 572.214 C 811.082 541.143, 811.595 496.387, 806.399 446.500 L 805.774 440.500 814.637 433.370 C 822.960 426.674, 831.752 421.493, 839.947 418.455 C 851.106 414.319, 853.897 413.098, 857.725 410.678 C 865.293 405.893, 865.323 405.761, 863.391 385.363 C 862.166 372.431, 861.292 367.168, 860.224 366.298 C 859.260 365.512, 858.965 364.213, 859.374 362.548 C 859.718 361.147, 860.282 358.849, 860.628 357.442 C 861.098 355.526, 860.470 353.789, 858.128 350.528 C 853.720 344.391, 853.984 341.257, 859.499 334.231 C 861.974 331.079, 863.999 327.523, 863.999 326.328 C 864 323.808, 858.692 318.970, 848.674 312.361 C 837.389 304.915, 834.265 301.491, 828.776 290.552 C 822.132 277.309, 817.585 270.787, 809.867 263.431 C 793.743 248.062, 768.454 235.705, 744.615 231.548 C 734.729 229.824, 699.107 229.506, 693 231.086 M 496.750 271.060 C 494.219 272.563, 494.601 274.861, 497.610 276.232 C 499.857 277.256, 500.416 277.152, 501.638 275.480 C 504.474 271.602, 501.049 268.505, 496.750 271.060 M 486.630 288.250 C 485.659 291.875, 485.885 292.868, 487.935 293.965 C 490.273 295.216, 495 293.710, 495 291.713 C 495 289.695, 491.169 286, 489.078 286 C 488.010 286, 486.979 286.948, 486.630 288.250 M 481.571 308.571 C 479.467 310.675, 479.591 313.277, 481.930 316.139 C 483.796 318.423, 483.951 318.445, 486.680 316.821 C 489.827 314.948, 490.678 312.135, 489.028 309.052 C 487.714 306.597, 483.798 306.345, 481.571 308.571 M 476.644 331.499 C 474.470 333.673, 474.427 340.566, 476.582 341.393 C 479.467 342.500, 484.737 342.022, 485.966 340.541 C 487.340 338.886, 486.545 333.697, 484.680 332.149 C 482.238 330.123, 478.336 329.807, 476.644 331.499 M 472.455 360.455 C 468.459 364.450, 469.469 370.059, 474.684 372.837 C 478.206 374.712, 480.957 374.197, 484.077 371.077 C 487.907 367.247, 487.858 363.900, 483.923 360.589 C 479.976 357.267, 475.692 357.217, 472.455 360.455 M 472.400 389.714 C 468.253 392.677, 468.022 399.175, 471.923 403.077 C 475.553 406.707, 477.169 406.738, 480.949 403.250 C 485.125 399.396, 485.731 395.954, 482.823 392.607 C 480.449 389.873, 474.491 388.220, 472.400 389.714 M 472.229 416.669 C 470.125 417.516, 468 422.646, 468 426.878 C 468 432.369, 471.563 435.213, 477.919 434.797 C 482.040 434.527, 482.652 434.139, 484.708 430.500 C 487.758 425.101, 487.587 423.387, 483.600 419.400 C 480.294 416.094, 476.139 415.096, 472.229 416.669 M 473.707 452.016 C 463.392 460.129, 473.230 476.965, 484.291 470.129 C 491.081 465.933, 491.797 459.562, 486.118 453.882 C 481.636 449.400, 477.771 448.819, 473.707 452.016 M 482.241 485.325 C 475.157 489.260, 474.290 500.936, 480.707 505.984 C 482.390 507.308, 484.773 508, 487.650 508 C 496.070 508, 502.202 498.770, 499.110 490.750 C 496.976 485.216, 487.769 482.255, 482.241 485.325 M 502.241 518.250 C 499.319 521.369, 497.803 525.825, 498.532 529.147 C 499.336 532.808, 504.390 537, 508 537 C 511.318 537, 516.739 532.817, 518.116 529.195 C 521.311 520.792, 508.277 511.806, 502.241 518.250 M 516.770 551.966 C 515.395 553.047, 513.692 555.330, 512.984 557.038 C 511.201 561.342, 513.677 566.549, 518.454 568.545 C 522.412 570.199, 524.410 569.713, 528.250 566.166 C 532.002 562.700, 532.145 556.054, 528.545 552.455 C 525.503 549.412, 520.292 549.196, 516.770 551.966 M 526.077 580.589 C 522.197 583.854, 521.959 588.050, 525.455 591.545 C 529.819 595.910, 536.924 594.526, 538.874 588.931 C 540.225 585.057, 538.394 580.956, 534.528 579.195 C 530.763 577.479, 529.531 577.683, 526.077 580.589 M 534.461 610.280 C 530.694 613.520, 530.625 619.079, 534.307 622.762 C 539.126 627.580, 547 623.626, 547 616.388 C 547 609.439, 539.619 605.843, 534.461 610.280 M 541.406 640.386 C 541.113 641.148, 541.015 643.735, 541.187 646.136 C 541.496 650.437, 541.557 650.505, 545.460 650.823 C 550.133 651.204, 552 649.355, 552 644.344 C 552 642.131, 551.373 640.735, 550.066 640.035 C 547.283 638.546, 542.030 638.758, 541.406 640.386 M 545.736 667.600 C 544.815 672.418, 545.871 674, 550.010 674 C 553.978 674, 555 672.879, 555 668.525 C 555 665.991, 553.323 665, 549.035 665 C 546.812 665, 546.131 665.537, 545.736 667.600 M 548.012 689.977 C 546.380 693.026, 548.715 696, 552.741 696 C 554.533 696, 556 695.587, 556 695.082 C 556 694.577, 556.251 693.510, 556.558 692.711 C 558.040 688.847, 549.995 686.273, 548.012 689.977 M 547.250 706.662 C 545.524 707.359, 545.679 711.489, 547.487 712.989 C 550.811 715.748, 553.918 710.318, 550.800 707.200 C 549.521 705.921, 549.205 705.873, 547.250 706.662" stroke="none" fill="#f4b349" fill-rule="evenodd"/><path d="M 457.500 177.624 C 428.236 180.802, 394.949 186.612, 377.500 191.586 C 359.413 196.742, 336.297 207.246, 308.500 222.941 C 276.810 240.834, 237.416 278.599, 214.036 313.500 C 172.607 375.344, 154.280 450.215, 162.876 522.500 C 167.709 563.129, 180.267 602.294, 199.624 637.100 C 206.287 649.080, 221.647 672.042, 229.660 682 C 239.741 694.528, 264.851 719.217, 277.924 729.456 C 315.596 758.960, 357.915 779.206, 404.490 790.009 C 433.749 796.795, 476.517 798.850, 508.057 794.985 C 522.902 793.166, 534.762 790.429, 533.457 789.124 C 533.183 788.850, 524.081 788.726, 513.230 788.848 C 436.753 789.712, 365.179 766.133, 304.500 720.085 C 298.366 715.430, 296.772 714.109, 287.069 705.638 C 266.130 687.357, 241.065 657.222, 225.806 631.982 C 220.101 622.545, 207.042 596.610, 203.661 588 C 194.772 565.371, 188.596 541.717, 184.338 514 C 182.103 499.451, 181.793 457.755, 183.829 445.500 C 189.760 409.804, 193.738 394.264, 202.503 372.552 C 224.470 318.132, 259.572 274.153, 307.500 241.004 C 331.586 224.345, 360.479 209.742, 386.500 201.077 C 407.099 194.217, 436.889 187.343, 452.500 185.848 C 470.513 184.123, 505.126 184.122, 520.500 185.846 C 534.545 187.420, 553.735 191.206, 571.749 195.956 C 576.933 197.322, 576.506 195.321, 571.258 193.657 C 561.516 190.567, 546.581 186.619, 533 183.544 C 514.982 179.463, 471.763 176.074, 457.500 177.624 M 481.301 257.469 C 477.556 259.098, 466.309 270.065, 462.535 275.768 L 459.913 279.729 442.707 280.264 C 424.433 280.832, 420.524 281.660, 409.313 287.341 C 402.033 291.031, 392.578 300.164, 388.035 307.897 C 380.899 320.043, 380.746 321.119, 380.248 362.630 L 379.801 399.759 342.651 400.254 C 305.739 400.745, 305.452 400.765, 298.106 403.364 C 287.764 407.022, 283.243 409.916, 276.328 417.308 C 268.941 425.205, 265.710 430.859, 262.895 440.815 C 260.788 448.268, 260.723 450.102, 260.734 501.500 C 260.744 547.710, 260.965 555.525, 262.457 562.500 C 264.688 572.928, 268.636 580.166, 276.834 588.862 C 282.293 594.652, 285.039 596.644, 292 599.861 C 296.675 602.021, 302.975 604.312, 306 604.951 C 309.157 605.617, 326.030 606.367, 345.603 606.711 L 379.707 607.311 380.306 643.405 C 380.965 683.011, 381.434 686.633, 387.259 697 C 391.705 704.911, 403.302 716.040, 411.083 719.862 C 414.612 721.595, 420.947 723.670, 425.160 724.473 C 434.087 726.173, 480.099 727.660, 490.187 726.574 L 496.874 725.854 497.477 720.677 C 500.238 696.981, 499.510 661.416, 495.919 644.500 C 490.402 618.514, 483.996 595.407, 471.521 556.500 C 462.322 527.809, 454 500.744, 451.534 491.500 C 438.224 441.600, 435.339 421.209, 436.326 384 C 436.742 368.335, 437.437 359.863, 438.887 352.784 C 443.996 327.836, 449.854 312.403, 464.237 286 C 468.075 278.955, 476.582 267.754, 482.433 262.042 C 488.690 255.934, 488.315 254.419, 481.301 257.469 M 524.752 280.613 C 524.203 281.524, 520.364 297.066, 517.617 309.500 C 515.188 320.498, 512.183 344.006, 510.962 361.566 C 509.076 388.705, 511.971 427.926, 517.564 451 C 526.244 486.807, 538.059 516.611, 554.827 545 C 557.264 549.125, 560.041 553.850, 561 555.500 C 561.958 557.150, 565.550 563.225, 568.981 569 C 585.279 596.430, 588.760 606.339, 589.858 628.420 C 590.276 636.826, 590.906 641.473, 591.661 641.723 C 593.407 642.301, 598.890 630.328, 600.007 623.500 C 600.547 620.200, 600.991 615.206, 600.994 612.403 L 601 607.306 628.250 606.720 C 666.966 605.887, 674.754 603.763, 689.289 590.077 C 697.288 582.545, 703.116 571.662, 704.904 560.918 C 706.314 552.449, 706.356 454.235, 704.953 444.531 C 702.366 426.631, 690.080 412.010, 670.533 403.568 L 663.500 400.530 625.410 400.211 L 587.321 399.892 586.664 364.196 C 585.930 324.337, 585.400 320.359, 579.260 308.675 C 572.718 296.225, 563.305 288.474, 548.546 283.380 C 541.317 280.886, 525.684 279.068, 524.752 280.613 M 1829.500 292.683 C 1828.400 292.931, 1824.800 294.017, 1821.500 295.096 C 1805.698 300.264, 1798.359 306.832, 1793.897 319.800 C 1789.673 332.077, 1793.356 344.499, 1803.515 352.235 C 1808.511 356.039, 1824.691 361.880, 1839.706 365.299 C 1846.592 366.867, 1851 369.287, 1851 371.500 C 1851 377.522, 1833.286 377.560, 1815.556 371.575 C 1809.537 369.543, 1803.647 368.123, 1802.466 368.419 C 1800.784 368.841, 1799.402 371.436, 1796.073 380.418 C 1793.714 386.785, 1792.087 392.698, 1792.412 393.723 C 1793.289 396.487, 1797.465 398.531, 1808 401.354 C 1830.023 407.254, 1847.409 407.414, 1861.500 401.847 C 1875.465 396.330, 1880.717 391.959, 1885.348 382 C 1887.888 376.540, 1888.382 374.220, 1888.436 367.500 C 1888.492 360.521, 1888.151 358.907, 1885.770 354.855 C 1884.268 352.301, 1881.611 349.009, 1879.866 347.540 C 1875.083 343.516, 1864.356 338.471, 1856.500 336.552 C 1838.855 332.241, 1828.991 328.891, 1829.007 327.215 C 1829.011 326.822, 1830.501 325.488, 1832.319 324.250 C 1836.842 321.170, 1841.724 321.348, 1858.207 325.192 C 1871.581 328.311, 1871.963 328.343, 1873.957 326.539 C 1875.081 325.522, 1876 324.312, 1876 323.849 C 1876 323.387, 1877.597 319.550, 1879.550 315.324 C 1885.539 302.358, 1883.640 298.324, 1870.500 296.103 C 1867.200 295.545, 1860.450 294.401, 1855.500 293.562 C 1847.020 292.123, 1833.941 291.681, 1829.500 292.683 M 1129 294.729 C 1128.175 295.043, 1127.195 295.768, 1126.823 296.341 C 1125.736 298.012, 1127.127 401.325, 1128.255 402.750 C 1129.402 404.198, 1160.588 404.548, 1162.811 403.138 C 1163.709 402.568, 1164.298 398.711, 1164.677 390.903 C 1165.309 377.921, 1166.675 374.220, 1170.150 376.080 C 1172.607 377.395, 1177.681 382.945, 1180.500 387.400 C 1181.600 389.138, 1184.716 393.639, 1187.425 397.402 L 1192.349 404.243 1209.682 403.814 C 1220.718 403.541, 1227.427 402.973, 1228.149 402.251 C 1229.713 400.687, 1227.385 396.016, 1218.499 382.881 C 1214.547 377.040, 1211.031 371.522, 1210.684 370.618 C 1210.239 369.460, 1211.218 368.130, 1213.997 366.117 C 1219.287 362.285, 1224.559 355.828, 1226.139 351.247 C 1228.074 345.635, 1227.794 323.541, 1225.727 318.760 C 1223.304 313.155, 1218.123 307.196, 1212.319 303.340 C 1203.203 297.282, 1198.643 296.258, 1175.529 295.073 C 1153.381 293.938, 1131.503 293.776, 1129 294.729 M 1241.750 294.689 C 1240.138 295.110, 1240 297.259, 1240 321.850 C 1240 355.684, 1241.656 371.071, 1246.312 380.500 C 1255.279 398.659, 1275.718 407.462, 1302.999 404.915 C 1310.743 404.192, 1313.795 403.384, 1319.500 400.549 C 1333.684 393.501, 1343.408 380.215, 1345.072 365.611 C 1345.518 361.700, 1346.204 344.283, 1346.596 326.907 L 1347.310 295.314 1344.905 294.671 C 1343.582 294.317, 1335.670 294.021, 1327.321 294.014 C 1314.843 294.002, 1311.863 294.280, 1310.571 295.571 C 1309.218 296.925, 1308.997 301.056, 1308.980 325.321 C 1308.969 340.820, 1308.545 356.425, 1308.038 360 C 1307.206 365.865, 1306.707 366.866, 1302.930 370.250 C 1299.602 373.231, 1297.940 374, 1294.832 374 C 1290.281 374, 1283.564 370.882, 1282.534 368.293 C 1280.691 363.657, 1279.797 352.190, 1279.175 325.212 C 1278.612 300.779, 1278.251 295.768, 1277 294.978 C 1275.524 294.046, 1245.163 293.797, 1241.750 294.689 M 1360.750 295.008 C 1359.119 296.025, 1359 299.694, 1359 348.850 C 1359 388.544, 1359.297 401.897, 1360.200 402.800 C 1361.465 404.065, 1389.332 404.577, 1392.418 403.393 C 1393.761 402.878, 1394.015 400.425, 1394.099 387.143 C 1394.181 374.216, 1395.336 357.464, 1395.859 361.618 C 1395.937 362.232, 1398.025 365.755, 1400.500 369.446 C 1402.975 373.137, 1405 376.416, 1405 376.734 C 1405 377.052, 1407.090 380.370, 1409.644 384.108 C 1412.753 388.659, 1415.281 391.251, 1417.293 391.952 C 1421.339 393.363, 1427.945 393.251, 1430.968 391.721 C 1433.690 390.344, 1440.083 382.463, 1442.908 377 C 1446.510 370.036, 1453.463 359.130, 1453.976 359.640 C 1454.264 359.927, 1454.725 369.913, 1455 381.831 L 1455.500 403.500 1471 403.749 C 1479.525 403.885, 1487.151 403.579, 1487.948 403.068 C 1489.172 402.281, 1489.462 394, 1489.826 349.399 C 1490.235 299.280, 1490.166 296.595, 1488.437 295.330 C 1486.544 293.946, 1463.846 293.398, 1459.264 294.627 C 1457.935 294.983, 1455.867 297.311, 1454.166 300.363 C 1452.593 303.188, 1447.349 312.250, 1442.513 320.500 C 1437.677 328.750, 1432.051 338.403, 1430.010 341.950 C 1427.969 345.498, 1425.852 348.549, 1425.307 348.731 C 1424.004 349.165, 1419.288 342.039, 1410.653 326.592 C 1409.088 323.792, 1407.002 320.600, 1406.018 319.500 C 1405.035 318.400, 1403.957 316.596, 1403.624 315.491 C 1403.291 314.386, 1401.540 311.236, 1399.733 308.491 C 1397.926 305.746, 1395.835 302.020, 1395.086 300.212 C 1394.338 298.403, 1392.985 296.527, 1392.081 296.043 C 1389.421 294.620, 1362.784 293.739, 1360.750 295.008 M 1544.235 294.684 C 1539.184 295.196, 1538.202 296.425, 1533.892 307.618 C 1532.235 311.920, 1530.494 315.905, 1530.023 316.473 C 1529.551 317.040, 1528.194 319.979, 1527.006 323.002 C 1525.817 326.026, 1521.280 336.501, 1516.923 346.280 C 1512.565 356.060, 1509 364.378, 1509 364.766 C 1509 365.154, 1507.909 367.728, 1506.576 370.486 C 1501.752 380.461, 1494 398.901, 1494 400.398 C 1494 403.291, 1497.793 404, 1513.260 404 C 1531.322 404, 1530.965 404.189, 1535.451 392.250 L 1538.175 385 1544.930 385 C 1548.646 385, 1557.116 384.708, 1563.753 384.351 L 1575.821 383.702 1578.910 389.823 C 1580.610 393.189, 1582 396.651, 1582 397.517 C 1582 398.383, 1583.105 400.195, 1584.455 401.545 C 1586.847 403.938, 1587.297 404, 1602.232 404 C 1614.288 404, 1618.015 403.678, 1619.714 402.488 L 1621.873 400.976 1619.562 394.238 C 1618.292 390.532, 1616.137 385.025, 1614.774 382 C 1610.656 372.857, 1604.193 357.808, 1602.104 352.500 C 1601.022 349.750, 1597.809 342.325, 1594.964 336 C 1592.119 329.675, 1588.495 321.225, 1586.910 317.222 C 1585.324 313.219, 1583.148 308.269, 1582.073 306.222 C 1580.998 304.175, 1579.594 301.052, 1578.952 299.283 C 1578.310 297.514, 1577.046 295.859, 1576.142 295.605 C 1573.645 294.902, 1549.079 294.194, 1544.235 294.684 M 1630.750 294.689 C 1629.111 295.118, 1629 298.522, 1629 348.373 C 1629 388.439, 1629.297 401.897, 1630.200 402.800 C 1631.037 403.637, 1636.422 404, 1648 404 C 1659.578 404, 1664.963 403.637, 1665.800 402.800 C 1666.645 401.955, 1667 396.226, 1667 383.417 C 1667 361.922, 1665.068 364.034, 1684.750 364.014 L 1698 364 1698 382.878 C 1698 397.718, 1698.295 402, 1699.382 402.902 C 1700.333 403.691, 1706.170 403.963, 1718.132 403.774 L 1735.500 403.500 1736.308 388.500 C 1736.752 380.250, 1736.902 356, 1736.642 334.611 C 1736.265 303.679, 1735.895 295.549, 1734.834 294.876 C 1732.664 293.501, 1700.608 293.792, 1699.200 295.200 C 1698.357 296.043, 1698 301.689, 1698 314.200 L 1698 332 1691.654 332 C 1688.163 332, 1681.188 331.708, 1676.154 331.350 L 1667 330.701 1667 312.967 C 1667 295.422, 1666.976 295.227, 1664.750 294.630 C 1662.187 293.943, 1633.413 293.993, 1630.750 294.689 M 1933.071 295.414 C 1932.530 296.066, 1930.482 300.852, 1928.521 306.050 C 1926.560 311.247, 1923.898 317.525, 1922.607 320 C 1921.315 322.475, 1919.439 326.750, 1918.438 329.500 C 1917.437 332.250, 1916.068 335.400, 1915.396 336.500 C 1914.723 337.600, 1912.966 341.425, 1911.491 345 C 1910.015 348.575, 1907.276 354.750, 1905.404 358.722 C 1903.532 362.693, 1902 366.252, 1902 366.630 C 1902 367.338, 1896.314 380.082, 1890.381 392.670 C 1888.522 396.614, 1887.264 400.524, 1887.584 401.359 C 1887.905 402.194, 1889.517 403.174, 1891.168 403.537 C 1894.905 404.358, 1920.684 403.053, 1923.780 401.886 C 1925.190 401.354, 1926.801 399.211, 1928.005 396.263 C 1929.075 393.644, 1930.776 389.992, 1931.785 388.149 L 1933.620 384.799 1952.331 384.573 C 1964.742 384.423, 1971.343 384.709, 1971.935 385.423 C 1972.425 386.015, 1973.737 390.056, 1974.850 394.402 C 1975.963 398.748, 1977.464 402.679, 1978.187 403.137 C 1978.909 403.595, 1987.193 403.976, 1996.595 403.985 C 2019.180 404.005, 2018.639 404.536, 2011.855 388.993 C 2009.096 382.672, 2006.252 375.925, 2005.535 374 C 2004.818 372.075, 2002.988 367.800, 2001.468 364.500 C 1998.604 358.283, 1995.135 350.273, 1988.258 334 C 1986.050 328.775, 1983.517 323.150, 1982.628 321.500 C 1981.739 319.850, 1981.010 318.146, 1981.006 317.713 C 1981.003 317.279, 1978.775 312.242, 1976.055 306.518 C 1970.265 294.333, 1972.494 295.320, 1949.277 294.661 C 1938.300 294.350, 1933.780 294.560, 1933.071 295.414 M 2024.717 294.696 C 2023.029 295.135, 2022.949 298.031, 2023.217 348.617 C 2023.461 394.805, 2023.704 402.211, 2025 403.080 C 2026.715 404.231, 2055.489 403.780, 2058.250 402.560 C 2059.748 401.897, 2060.003 400.328, 2060.024 391.643 C 2060.053 379.421, 2061.081 374.465, 2064.243 371.302 C 2067.192 368.353, 2068.720 368.922, 2072.288 374.299 C 2073.822 376.609, 2077.087 381.200, 2079.543 384.500 C 2082 387.800, 2085.563 392.841, 2087.462 395.702 C 2092.687 403.577, 2094.042 404, 2114.016 404 C 2130.708 404, 2135.027 403.323, 2134.977 400.715 C 2134.964 400.047, 2130.003 392.750, 2123.953 384.500 C 2117.903 376.250, 2108.425 363.306, 2102.890 355.735 L 2092.828 341.969 2104.664 328.873 C 2121.948 309.749, 2133 296.934, 2133 296.018 C 2133 294.357, 2129.365 294, 2112.436 294 L 2095.035 294 2090.751 298.250 C 2088.395 300.587, 2080.781 308.882, 2073.832 316.681 C 2066.882 324.481, 2060.927 330.593, 2060.598 330.265 C 2060.269 329.936, 2060 322.107, 2060 312.869 C 2060 297.284, 2059.860 295.996, 2058.066 295.035 C 2056.180 294.026, 2028.381 293.743, 2024.717 294.696 M 2140.397 294.765 C 2139.791 295.169, 2138.707 299.987, 2137.989 305.471 C 2136.985 313.141, 2136.865 323.989, 2137.469 352.471 C 2137.901 372.837, 2138.534 392.650, 2138.877 396.500 L 2139.500 403.500 2155.867 403.775 C 2167.088 403.964, 2172.669 403.690, 2173.617 402.903 C 2174.763 401.952, 2175 392.613, 2175 348.485 C 2175 300.831, 2174.833 295.150, 2173.418 294.607 C 2171.163 293.742, 2141.722 293.883, 2140.397 294.765 M 2185.750 294.675 C 2184.186 295.097, 2184 296.681, 2184 309.605 C 2184 321.694, 2184.252 324.159, 2185.538 324.653 C 2186.384 324.978, 2193.247 325.301, 2200.788 325.372 L 2214.500 325.500 2215 363.701 C 2215.331 388.953, 2215.864 402.266, 2216.574 402.976 C 2217.279 403.680, 2223.644 403.954, 2235.074 403.774 L 2252.500 403.500 2252.762 364.250 L 2253.023 325 2266.820 325 C 2276.318 325, 2281.128 324.610, 2282.255 323.750 C 2283.598 322.725, 2283.944 320.125, 2284.176 309.313 C 2284.331 302.060, 2284.093 295.760, 2283.647 295.313 C 2282.799 294.464, 2188.807 293.852, 2185.750 294.675 M 1165.750 325.557 C 1165.338 325.984, 1165 330.758, 1165 336.167 L 1165 346 1174.250 345.965 C 1184.518 345.925, 1187.285 344.932, 1189.608 340.454 C 1190.865 338.032, 1190.923 336.798, 1189.948 333.313 C 1188.114 326.765, 1186.404 325.793, 1175.768 325.252 C 1170.671 324.992, 1166.162 325.130, 1165.750 325.557 M 1556.410 336.583 C 1556.050 337.637, 1554.253 342.060, 1552.418 346.411 C 1550.583 350.762, 1549.314 354.700, 1549.600 355.161 C 1549.885 355.622, 1553.740 356, 1558.167 356 L 1566.217 356 1565.548 353.250 C 1564.796 350.163, 1559.061 336.998, 1557.850 335.583 C 1557.410 335.069, 1556.778 335.508, 1556.410 336.583 M 1949.878 337.750 C 1947.211 344.584, 1944.231 354.565, 1944.653 355.248 C 1945.356 356.385, 1958.790 356.149, 1959.508 354.987 C 1960.467 353.436, 1952.964 335, 1951.374 335 C 1951.141 335, 1950.468 336.238, 1949.878 337.750 M 420.665 350.278 C 406.262 383.422, 401.136 414.058, 404.398 447.500 C 407.208 476.312, 412.813 499.096, 429.489 549.500 C 440.687 583.347, 450.048 614.563, 453.028 628 C 457.308 647.298, 459.467 678.596, 457.548 693.547 C 457.198 696.271, 456.704 700.075, 456.450 702 L 455.989 705.500 457.961 701.862 C 467.328 684.581, 470.106 660.543, 466.041 631.931 C 463.637 615.011, 461.237 604.509, 453.486 577 C 451.704 570.675, 450.015 564.600, 449.733 563.500 C 449.450 562.400, 446.673 552.950, 443.560 542.500 C 438.423 525.250, 431.037 498.282, 429.730 492 C 420.704 448.616, 418.763 432.844, 418.778 403 C 418.787 385.554, 419.275 376.940, 420.950 364.653 C 422.137 355.937, 422.972 348.187, 422.805 347.431 C 422.637 346.675, 421.674 347.956, 420.665 350.278 M 1136 464.451 C 1124.825 465.886, 1121.368 466.924, 1110.009 472.259 C 1096.774 478.475, 1087.816 486.056, 1081.996 495.964 C 1076.557 505.222, 1075 511.448, 1075 523.935 C 1075 556.527, 1091.076 570.097, 1144.500 582.602 C 1155.191 585.105, 1165.774 588.420, 1170.250 590.670 C 1172.402 591.751, 1172.997 592.752, 1172.985 595.276 C 1172.967 599.024, 1172.276 600.293, 1169.442 601.783 C 1163.388 604.966, 1130.563 603.837, 1119.774 600.074 C 1116.873 599.062, 1109.775 596.389, 1104 594.133 C 1098.225 591.877, 1092.764 590.024, 1091.865 590.015 C 1089.855 589.996, 1088.129 592.697, 1085.161 600.500 C 1083.906 603.800, 1082.243 607.850, 1081.465 609.500 C 1077.126 618.701, 1073 629.491, 1073 631.636 C 1073 634.749, 1076.837 638.338, 1082.278 640.316 C 1084.600 641.160, 1089.200 642.832, 1092.500 644.032 C 1098.332 646.153, 1110.639 648.578, 1128 651.029 C 1147.342 653.760, 1181.344 650.800, 1195.602 645.145 C 1208.899 639.870, 1222.772 629.117, 1227.073 620.750 C 1228.133 618.688, 1229.912 615.196, 1231.028 612.991 C 1234.877 605.381, 1236.205 589.628, 1233.985 577.922 C 1232.931 572.363, 1226.650 560.847, 1222.728 557.283 C 1218.354 553.308, 1210.170 548.131, 1204.878 545.993 C 1201.920 544.797, 1197.475 542.967, 1195 541.925 C 1190.647 540.094, 1172.680 535.393, 1151 530.415 C 1144.312 528.879, 1140.030 527.368, 1139.207 526.252 C 1135.373 521.060, 1137.428 516.031, 1144.647 512.937 C 1148.022 511.490, 1151.487 511, 1158.340 511 C 1168.045 511, 1173.230 512.171, 1195.852 519.472 C 1202.096 521.487, 1207.799 522.907, 1208.526 522.629 C 1209.962 522.077, 1217.525 506.825, 1218.608 502.294 C 1218.975 500.757, 1219.580 499.050, 1219.952 498.500 C 1221.080 496.832, 1225.786 484.682, 1226.418 481.805 C 1226.907 479.582, 1226.441 478.684, 1223.755 476.679 C 1221.965 475.342, 1218.700 473.703, 1216.500 473.038 C 1214.300 472.372, 1211.092 471.196, 1209.371 470.424 C 1205.114 468.515, 1190.456 465.420, 1179.387 464.093 C 1167.855 462.710, 1148.301 462.871, 1136 464.451 M 932.557 468.223 C 931.701 469.445, 931 470.762, 931 471.149 C 931 471.537, 929.425 475.264, 927.500 479.431 C 925.575 483.599, 924 487.218, 924 487.474 C 924 487.730, 920.400 496.012, 916 505.878 C 911.600 515.744, 908 524.038, 908 524.309 C 908 524.580, 906.200 528.661, 904 533.379 C 901.800 538.097, 900 542.182, 900 542.456 C 900 542.731, 898.425 546.320, 896.500 550.432 C 894.575 554.543, 893 558.166, 893 558.482 C 893 558.798, 891.483 562.307, 889.629 566.278 C 887.774 570.250, 883.908 578.900, 881.037 585.500 C 878.166 592.100, 874.106 601.325, 872.014 606 C 868.598 613.637, 862.220 628.259, 860.020 633.500 C 859.558 634.600, 858.195 637.647, 856.991 640.270 C 855.787 642.894, 855.030 645.637, 855.310 646.365 C 856.236 648.780, 885.218 649.737, 908.984 648.138 L 918.468 647.500 921.574 638.500 C 925.684 626.587, 928.339 620.794, 930.516 618.986 C 931.996 617.757, 937.826 617.440, 964.257 617.155 C 985.229 616.928, 996.562 617.162, 997.235 617.835 C 998.561 619.161, 1003.532 634.238, 1004.460 639.747 C 1004.853 642.083, 1005.993 645.005, 1006.993 646.240 C 1008.789 648.458, 1009.170 648.490, 1037.897 648.853 C 1053.895 649.055, 1068.112 648.938, 1069.492 648.591 C 1070.931 648.230, 1072 647.242, 1072 646.272 C 1072 644.413, 1067.055 632.215, 1060.937 618.984 C 1058.772 614.300, 1057 610.117, 1057 609.688 C 1057 609.259, 1055.487 605.666, 1053.638 601.704 C 1051.788 597.742, 1049.929 593.375, 1049.506 592 C 1049.084 590.625, 1047.281 586.575, 1045.500 583 C 1043.719 579.425, 1041.919 575.375, 1041.500 574 C 1041.080 572.625, 1039.288 568.350, 1037.518 564.500 C 1035.747 560.650, 1032.165 552.550, 1029.558 546.500 C 1023.230 531.816, 1018.534 521.240, 1013.864 511.154 C 1011.739 506.564, 1010 502.372, 1010 501.840 C 1010 501.307, 1008.827 498.313, 1007.394 495.186 C 1005.961 492.059, 1003.070 485.072, 1000.969 479.661 C 998.868 474.249, 996.370 468.962, 995.419 467.911 C 993.791 466.111, 991.957 466, 963.902 466 C 934.253 466, 934.106 466.010, 932.557 468.223 M 1306.909 474.750 C 1304.668 479.563, 1301.937 485.750, 1300.841 488.500 C 1299.744 491.250, 1297.520 496.288, 1295.898 499.696 C 1294.276 503.104, 1292.280 507.790, 1291.461 510.110 C 1290.643 512.429, 1289.600 514.816, 1289.145 515.414 C 1288.689 516.011, 1287.531 518.525, 1286.572 521 C 1284.176 527.177, 1275.458 547.174, 1271.914 554.623 C 1270.311 557.990, 1269 561.133, 1269 561.607 C 1269 562.080, 1267.221 566.300, 1265.046 570.984 C 1251.940 599.216, 1233 643.595, 1233 646.074 C 1233 647.396, 1234.556 647.825, 1241.250 648.346 C 1251.599 649.151, 1290.740 649.176, 1293.714 648.379 C 1295.442 647.916, 1296.575 645.891, 1298.881 639.143 C 1300.506 634.389, 1302.862 627.753, 1304.116 624.397 L 1306.396 618.293 1320.448 617.650 C 1337.969 616.849, 1367.785 616.807, 1371.644 617.579 C 1374.629 618.176, 1375.596 620.113, 1382.455 639.234 C 1385.807 648.578, 1383.594 647.979, 1416.888 648.546 C 1433.052 648.822, 1447.114 648.781, 1448.138 648.456 C 1450.799 647.612, 1450.463 645.027, 1446.617 636.767 C 1441.855 626.540, 1435.934 613.193, 1430.972 601.500 C 1426.675 591.375, 1420.649 577.709, 1414.418 563.956 C 1412.538 559.806, 1411 556.081, 1411 555.677 C 1411 555.273, 1409.460 551.693, 1407.579 547.722 C 1405.697 543.750, 1403.191 538.025, 1402.011 535 C 1400.830 531.975, 1399.069 528.137, 1398.096 526.470 C 1397.123 524.804, 1396.025 522.234, 1395.655 520.760 C 1395.285 519.286, 1393.186 514.264, 1390.991 509.601 C 1388.796 504.938, 1387 500.857, 1387 500.533 C 1387 500.208, 1385.472 496.693, 1383.604 492.722 C 1381.736 488.750, 1378.739 481.941, 1376.944 477.590 C 1371.774 465.060, 1374.730 466, 1340.492 466 L 1310.983 466 1306.909 474.750 M 1537.750 466.544 C 1537.338 466.978, 1537 507.928, 1537 557.544 C 1537 634.655, 1537.208 647.928, 1538.434 648.945 C 1539.522 649.848, 1551.614 649.980, 1588.684 649.492 C 1662.818 648.517, 1666.833 648.170, 1686.326 641.055 C 1698.008 636.792, 1707.681 628.424, 1712.668 618.268 C 1715.368 612.769, 1715.500 611.847, 1715.500 598.500 C 1715.500 585.197, 1715.361 584.217, 1712.705 578.808 C 1711.167 575.677, 1707.832 570.805, 1705.292 567.980 C 1700.702 562.875, 1689.787 555, 1687.301 555 C 1685.129 555, 1685.769 554.064, 1691.561 548.771 C 1698.907 542.056, 1705.577 532.566, 1707.044 526.740 C 1708.782 519.837, 1707.889 502.496, 1705.546 497.658 C 1702.765 491.917, 1694.499 483.388, 1687.080 478.606 C 1677.319 472.314, 1667.574 469.181, 1654 467.971 C 1639.741 466.699, 1538.779 465.460, 1537.750 466.544 M 1734.681 466.652 C 1733.744 467.590, 1733.933 528.602, 1734.974 561.500 C 1735.810 587.894, 1735.898 588.709, 1738.917 597.803 C 1742.825 609.577, 1744.597 613.216, 1749.736 620.018 C 1767.721 643.823, 1786.916 651.999, 1824.816 652 C 1839.081 652, 1842.412 651.675, 1851.316 649.411 C 1863.490 646.316, 1879.835 638.725, 1885.834 633.380 C 1889.753 629.888, 1900 617.086, 1900 615.681 C 1900 615.366, 1901.573 612.424, 1903.495 609.144 C 1908.664 600.325, 1909.926 592.410, 1911.005 562.038 C 1912.407 522.596, 1912.290 468.690, 1910.800 467.200 C 1908.957 465.357, 1853.660 465.499, 1852.124 467.351 C 1851.348 468.286, 1850.736 486.088, 1850.137 525.101 C 1849.296 579.891, 1849.209 581.645, 1847.086 586.580 C 1843.209 595.589, 1833.194 602, 1822.996 602 C 1811.169 602, 1803.105 594.368, 1798.697 579 C 1798.117 576.976, 1797.442 552.516, 1797.097 521 L 1796.500 466.500 1765.931 466.236 C 1749.118 466.091, 1735.055 466.278, 1734.681 466.652 M 1938.667 466.667 C 1937.813 467.520, 1938.021 641.498, 1938.881 645.500 L 1939.525 648.500 1967.513 648.500 C 1982.906 648.500, 1996.287 648.177, 1997.250 647.781 C 1998.873 647.115, 1999 644.310, 1999 609.008 L 1999 570.954 2001.424 572.542 C 2002.758 573.416, 2006.470 577.338, 2009.674 581.259 C 2012.878 585.179, 2016.850 589.844, 2018.500 591.624 C 2020.150 593.405, 2024.425 598.352, 2028 602.619 C 2031.575 606.885, 2037.425 613.846, 2041 618.087 C 2046.551 624.673, 2056.546 636.897, 2063.822 646 L 2065.820 648.500 2089.882 648.800 C 2105.835 648.999, 2114.627 648.735, 2115.972 648.015 C 2117.986 646.937, 2118 646.320, 2118 558.047 C 2118 509.161, 2117.727 468.452, 2117.393 467.582 C 2116.859 466.190, 2113.323 466, 2087.964 466 C 2064.012 466, 2058.896 466.247, 2057.681 467.462 C 2056.433 468.710, 2056.284 474.536, 2056.666 507.212 L 2057.112 545.500 2053.440 541.500 C 2049.100 536.772, 2024.291 507.783, 2011.500 492.493 C 1997.667 475.958, 1995.789 473.782, 1991.875 469.750 L 1988.235 466 1963.784 466 C 1950.336 466, 1939.033 466.300, 1938.667 466.667 M 2147.113 467.789 C 2146.320 469.271, 2146 495.160, 2146 557.863 C 2146 639.546, 2146.123 645.980, 2147.710 647.567 C 2149.299 649.156, 2153.313 649.227, 2204.460 648.579 C 2268.035 647.774, 2264.984 648.155, 2290.323 637.844 C 2302.854 632.745, 2316.532 620.920, 2325.613 607.336 C 2335.999 591.798, 2339.311 579.924, 2339.373 558 C 2339.431 537.389, 2336.577 525.661, 2328.186 512.034 C 2323.931 505.124, 2311.534 491.605, 2304.496 486.199 C 2299.240 482.163, 2283.800 474.814, 2274.380 471.865 C 2260.898 467.646, 2251.436 466.963, 2197.363 466.306 C 2148.325 465.711, 2148.224 465.714, 2147.113 467.789 M 2413.484 471.750 C 2411.971 474.913, 2409.485 480.425, 2407.958 484 C 2406.432 487.575, 2402.848 495.675, 2399.994 502 C 2397.140 508.325, 2393.712 516.200, 2392.375 519.500 C 2391.039 522.800, 2389.321 526.630, 2388.557 528.011 C 2387.794 529.392, 2385.787 534.001, 2384.098 538.253 C 2382.409 542.505, 2380.571 546.775, 2380.014 547.742 C 2379.016 549.473, 2375.627 557.334, 2367.849 575.958 C 2365.677 581.160, 2363.532 585.885, 2363.083 586.458 C 2362.634 587.031, 2361.342 589.975, 2360.212 593 C 2359.083 596.025, 2355.376 604.575, 2351.975 612 C 2348.575 619.425, 2344.924 627.683, 2343.862 630.351 C 2342.800 633.019, 2340.791 637.452, 2339.398 640.202 C 2338.004 642.952, 2337.105 645.832, 2337.400 646.601 C 2337.844 647.758, 2343.279 648, 2368.783 648 L 2399.630 648 2401.396 644.296 C 2402.367 642.259, 2403.838 638.546, 2404.664 636.046 C 2405.489 633.546, 2407.513 628.531, 2409.160 624.902 L 2412.156 618.304 2426.328 617.656 C 2434.123 617.299, 2449.275 617.008, 2460 617.010 L 2479.500 617.012 2483.333 628.256 C 2485.442 634.440, 2487.544 641.018, 2488.006 642.872 C 2488.467 644.727, 2489.352 646.752, 2489.972 647.372 C 2491.197 648.598, 2548.120 649.689, 2552.570 648.572 C 2553.906 648.236, 2555 647.372, 2555 646.652 C 2555 645.931, 2552.262 639.077, 2548.915 631.421 C 2545.569 623.764, 2542.246 615.925, 2541.531 614 C 2540.817 612.075, 2538.891 607.575, 2537.253 604 C 2532.495 593.620, 2525 576.268, 2525 575.634 C 2525 575.314, 2523.444 571.856, 2521.543 567.949 C 2519.642 564.042, 2517.776 559.868, 2517.397 558.673 C 2517.018 557.478, 2515.257 553.350, 2513.485 549.500 C 2511.712 545.650, 2506.546 533.950, 2502.006 523.500 C 2497.465 513.050, 2491.849 500.225, 2489.525 495 C 2487.202 489.775, 2483.582 481.522, 2481.482 476.661 C 2478.686 470.191, 2477.020 467.578, 2475.266 466.911 C 2473.948 466.410, 2460.127 466, 2444.552 466 L 2416.234 466 2413.484 471.750 M 1599.667 511.667 C 1598.833 512.500, 1598.781 532.267, 1599.607 534.418 C 1600.121 535.759, 1602.294 535.989, 1613.857 535.927 C 1633.210 535.823, 1637.273 535.097, 1641.520 530.981 C 1644.374 528.214, 1645 526.874, 1645 523.525 C 1645 520.219, 1644.340 518.762, 1641.532 515.872 C 1638.259 512.502, 1637.600 512.265, 1629.782 511.657 C 1618.940 510.813, 1600.515 510.819, 1599.667 511.667 M 2210.480 516.853 C 2209.757 517.576, 2209.903 586.781, 2210.642 593.853 L 2211.285 600 2224.080 600 C 2238.386 600, 2246.836 598.460, 2256.394 594.111 C 2266.825 589.364, 2272.565 581.020, 2275.672 566.086 C 2277.481 557.391, 2276.967 551.787, 2273.375 541 C 2269.087 528.123, 2259.098 520.176, 2244.500 518.026 C 2237.071 516.933, 2211.290 516.044, 2210.480 516.853 M 962.494 533.080 C 962.083 534.411, 960.283 538.650, 958.494 542.500 C 956.706 546.350, 954.228 552.650, 952.988 556.500 C 951.749 560.350, 949.948 565.160, 948.987 567.189 C 947.487 570.357, 947.447 570.957, 948.702 571.439 C 951.086 572.354, 975.378 572.046, 976.902 571.082 C 978.062 570.347, 977.776 568.845, 975.237 562.347 C 973.551 558.031, 970.162 549.136, 967.707 542.580 C 963.975 532.615, 963.120 531.057, 962.494 533.080 M 1339.036 533.405 C 1338.475 534.881, 1337.723 537.306, 1337.365 538.794 C 1337.007 540.282, 1335.653 543.623, 1334.357 546.217 C 1333.061 548.811, 1332 551.407, 1332 551.985 C 1332 552.563, 1330.445 556.952, 1328.545 561.737 C 1325.995 568.160, 1325.406 570.639, 1326.295 571.204 C 1327.837 572.183, 1353.139 572.211, 1354.597 571.235 C 1355.338 570.738, 1353.767 565.474, 1349.750 555 C 1346.481 546.475, 1343.139 537.701, 1342.323 535.503 C 1340.401 530.323, 1340.245 530.224, 1339.036 533.405 M 2444.110 535.500 C 2442.950 538.250, 2441.552 541.279, 2441.004 542.230 C 2440.456 543.182, 2438.388 548.132, 2436.409 553.230 C 2429.664 570.602, 2429.771 570.237, 2431.200 571.160 C 2433.067 572.365, 2460.551 571.742, 2460.289 570.500 C 2460.173 569.950, 2458.212 564.325, 2455.930 558 C 2453.649 551.675, 2450.887 543.800, 2449.793 540.500 C 2446.207 529.686, 2446.467 529.914, 2444.110 535.500 M 1598.009 585.595 C 1598.013 589.943, 1598.307 595.908, 1598.660 598.852 L 1599.303 604.204 1623.261 603.852 L 1647.220 603.500 1650.110 600.038 C 1653.931 595.461, 1654.243 587.465, 1650.750 583.662 C 1647.094 579.681, 1642.711 578.921, 1619.750 578.289 L 1598 577.689 1598.009 585.595" stroke="none" fill="#3162ab" fill-rule="evenodd"/></svg>