<?xml version="1.0" encoding="UTF-8"?>
<svg version="1.1" xmlns="http://www.w3.org/2000/svg" width="512" height="512">
<path d="M0 0 C2.08451835 -0.00218452 4.16850472 -0.02037967 6.25292969 -0.03930664 C17.48717198 -0.08846117 26.98269434 0.46210351 35.72167969 8.18530273 C38.4209394 11.31106886 40.57110208 14.66493048 42.72167969 18.18530273 C43.10952637 18.81871582 43.49737305 19.45212891 43.89697266 20.10473633 C46.54489512 24.44190386 49.14600046 28.80489589 51.72167969 33.18530273 C55.94761536 26.99046522 59.88194375 20.65626665 63.69433594 14.20092773 C67.73991379 8.18322811 72.7761304 3.44664436 79.72167969 1.18530273 C86.34539247 0.07177564 92.81678398 -0.00081591 99.51782227 0 C101.51875916 -0.00218046 103.51965643 -0.02068039 105.52050781 -0.03930664 C118.95008122 -0.05944093 128.62081727 1.25369079 138.97167969 10.31030273 C139.53741699 10.7967627 140.1031543 11.28322266 140.68603516 11.78442383 C144.94340099 15.46053012 149.11206134 19.2321073 153.27246094 23.01733398 C155.80248251 25.25682676 158.40074932 27.38117833 161.03417969 29.49780273 C165.85074038 33.39045333 170.37580677 37.51916916 174.89160156 41.74975586 C178.1735386 44.80695577 181.52256311 47.70219793 185.03417969 50.49780273 C189.91630592 54.4236362 194.52006797 58.59946359 199.09667969 62.87280273 C199.77512939 63.5029126 200.4535791 64.13302246 201.15258789 64.78222656 C209.53607038 72.67470474 213.86114041 79.0101796 215.09667969 90.74780273 C213.63312746 104.16369812 205.95938239 113.03964882 197.83496094 123.25952148 C194.49543673 127.46085839 191.20052992 131.6961791 187.90917969 135.93530273 C186.71518335 137.47177201 185.52117281 139.00823025 184.32714844 140.54467773 C183.7307959 141.31231445 183.13444336 142.07995117 182.52001953 142.87084961 C180.75063526 145.14803708 178.9804772 147.42462031 177.20996094 149.70092773 C176.63375 150.44181641 176.05753906 151.18270508 175.46386719 151.94604492 C174.30416189 153.43663026 173.1440069 154.92686583 171.98339844 156.41674805 C168.99242461 160.25773518 166.01131124 164.10578772 163.04589844 167.96655273 C142.00926165 195.31081199 142.00926165 195.31081199 128.89746094 197.92358398 C126.4882866 198.21337695 124.1462283 198.20207902 121.72167969 198.18530273 C121.72021313 199.09768109 121.71874657 200.01005945 121.71723557 200.95008564 C121.68014136 223.17730711 121.62109189 245.40437641 121.53777695 267.63147449 C121.49801229 278.38045811 121.4656067 289.12936879 121.45068359 299.87841797 C121.43765376 309.25017247 121.41065504 318.62176631 121.36706662 327.99343032 C121.34448184 332.95306817 121.32876722 337.91250808 121.32979584 342.87220192 C121.33054421 347.54673797 121.31252245 352.22083695 121.28051186 356.89525986 C121.27203925 358.60476753 121.27024488 360.31432438 121.275877 362.02384377 C121.31124334 374.41547576 120.50273288 385.16158736 111.51464844 394.53295898 C104.0160025 401.44347583 96.56074187 402.77326825 86.62402344 402.62670898 C79.05055801 401.77005073 72.44891676 398.45199841 67.22167969 392.87280273 C61.91463073 385.81239247 59.60130442 378.13090126 59.59037781 369.37193298 C59.58436554 367.62856407 59.58436554 367.62856407 59.57823181 365.84997559 C59.57902489 363.95076355 59.57902489 363.95076355 59.57983398 362.01318359 C59.57680022 360.65934638 59.57327816 359.30551019 59.56930542 357.95167542 C59.56143482 355.04174118 59.55627855 352.13181911 59.55301476 349.22187614 C59.54709298 344.62066286 59.53054325 340.01952643 59.51167297 335.41835022 C59.50533628 333.84192948 59.49901065 332.2655087 59.49269581 330.68908787 C59.48953 329.89983736 59.48636419 329.11058686 59.48310244 328.29741967 C59.44104259 317.58908089 59.40802935 306.88077924 59.39575195 296.17236328 C59.38737846 288.94309727 59.36491912 281.71402296 59.32639629 274.48485285 C59.30662055 270.66063582 59.2942362 266.83670545 59.29923058 263.01243401 C59.30386825 259.41795984 59.29012101 255.82403012 59.26221848 252.22966576 C59.25198975 250.28150189 59.26157213 248.33326564 59.27171326 246.38510132 C59.25924561 245.2256752 59.24677795 244.06624908 59.2339325 242.87168884 C59.23154414 241.86421065 59.22915579 240.85673246 59.22669506 239.81872463 C58.58137563 236.45368186 57.40671231 235.25452047 54.72167969 233.18530273 C51.24685794 232.83072909 49.0379055 233.07989413 45.72167969 234.18530273 C44.46467376 237.3393351 44.59453566 240.55491226 44.59037781 243.91397095 C44.58636963 245.08299957 44.58236145 246.2520282 44.57823181 247.45648193 C44.57876053 248.73549377 44.57928925 250.01450562 44.57983398 251.33227539 C44.57680104 252.69593417 44.57327921 254.05959193 44.56930542 255.42324829 C44.56142455 258.35883318 44.55627448 261.29440596 44.55301476 264.22999954 C44.54709286 268.87898707 44.5305399 273.52789851 44.51167297 278.17684937 C44.50533565 279.77035709 44.49901003 281.36386485 44.49269581 282.95737267 C44.48953 283.75540581 44.48636419 284.55343896 44.48310244 285.37565494 C44.44108454 296.19581692 44.40807135 307.01594352 44.39575195 317.83618164 C44.38735271 325.1383772 44.3647922 332.44038419 44.32639629 339.7424854 C44.30669594 343.60267762 44.29421083 347.46258834 44.29923058 351.32283401 C44.30390151 354.95916831 44.2899399 358.59497027 44.26221848 362.23119736 C44.252093 364.18775865 44.26151797 366.14439122 44.27171326 368.10095215 C44.16451807 378.29756973 42.0973294 386.83187125 34.87792969 394.35717773 C27.0719688 400.97527501 19.35471973 403.10053161 9.20605469 402.63452148 C0.7563923 401.54515918 -5.605485 397.48845308 -11.27832031 391.18530273 C-18.26067267 381.03292096 -17.58268196 368.77605059 -17.59716797 357.00732422 C-17.60647725 355.27202391 -17.61664739 353.53672804 -17.62760925 351.80143738 C-17.65481063 347.11204662 -17.67002931 342.42268575 -17.68303728 337.73323703 C-17.69871113 332.82448845 -17.72548773 327.91580049 -17.75106812 323.00709534 C-17.79778074 313.72135132 -17.83456116 304.4355958 -17.86774099 295.14979464 C-17.90601558 284.57417521 -17.95541172 273.99861679 -18.00572515 263.42304885 C-18.10893317 241.67717857 -18.19822966 219.93126964 -18.27832031 198.18530273 C-19.03739685 198.12408234 -19.79647339 198.06286194 -20.57855225 197.99978638 C-21.57227844 197.91550385 -22.56600464 197.83122131 -23.58984375 197.74438477 C-25.06877106 197.62161667 -25.06877106 197.62161667 -26.57757568 197.49636841 C-29.5712609 197.1515625 -31.86341308 196.46729921 -34.52832031 195.06030273 C-35.27597656 194.68647461 -36.02363281 194.31264648 -36.79394531 193.92749023 C-42.99243619 189.58074978 -47.56806436 183.76919381 -51.96582031 177.68530273 C-56.00482578 172.19776012 -60.12276614 166.79927978 -64.40332031 161.49780273 C-68.45109281 156.4779402 -72.43784792 151.42304167 -76.35571289 146.30078125 C-79.31924437 142.4274602 -82.30604752 138.57307258 -85.30493164 134.72705078 C-87.09356787 132.43177692 -88.87756057 130.13295043 -90.66113281 127.83374023 C-93.07689727 124.72139762 -95.51129 121.6249177 -97.95800781 118.53686523 C-99.12752532 117.04487106 -100.29680524 115.55269061 -101.46582031 114.06030273 C-102.00634033 113.38644531 -102.54686035 112.71258789 -103.10375977 112.01831055 C-110.1581475 102.95465489 -111.36318182 94.62566041 -110.27832031 83.18530273 C-106.98664916 69.70512565 -93.11669342 60.04353208 -82.90332031 51.81030273 C-78.10691321 47.9431141 -73.60790571 43.83549558 -69.11474609 39.62719727 C-64.92307228 35.72349157 -60.55310454 32.10770227 -56.08300781 28.52514648 C-52.90866013 25.87690935 -49.91070664 23.08184105 -46.90332031 20.24780273 C-32.18104494 6.46407791 -20.62140057 -0.00241695 0 0 Z M-24.40332031 81.81030273 C-28.94434876 86.04336994 -33.5169733 90.19905872 -38.27832031 94.18530273 C-36.61509202 97.96869018 -34.18511096 101.07975881 -31.65332031 104.31030273 C-30.9921521 105.16047974 -30.9921521 105.16047974 -30.31762695 106.02783203 C-28.97525711 107.75021365 -27.62730365 109.4680982 -26.27832031 111.18530273 C-25.48554688 112.19979492 -24.69277344 113.21428711 -23.87597656 114.25952148 C-21.1286909 117.76493708 -21.1286909 117.76493708 -18.27832031 121.18530273 C-17.94832031 121.18530273 -17.61832031 121.18530273 -17.27832031 121.18530273 C-17.27832031 106.33530273 -17.27832031 91.48530273 -17.27832031 76.18530273 C-19.70776892 76.18530273 -22.60460939 80.12061212 -24.40332031 81.81030273 Z M120.72167969 76.18530273 C120.72167969 91.36530273 120.72167969 106.54530273 120.72167969 122.18530273 C124.96725838 117.96355464 124.96725838 117.96355464 128.65917969 113.44311523 C129.16191406 112.76893555 129.66464844 112.09475586 130.18261719 111.40014648 C130.69050781 110.71049805 131.19839844 110.02084961 131.72167969 109.31030273 C132.22957031 108.62838867 132.73746094 107.94647461 133.26074219 107.24389648 C136.46694846 102.92784958 139.6085482 98.56886655 142.72167969 94.18530273 C141.70460938 93.36739258 141.70460938 93.36739258 140.66699219 92.53295898 C134.8178786 87.79371875 129.15439065 82.94419219 123.62011719 77.83764648 C122.01542965 76.07588199 122.01542965 76.07588199 120.72167969 76.18530273 Z M7.72167969 155.18530273 C8.38167969 160.46530273 9.04167969 165.74530273 9.72167969 171.18530273 C37.77167969 171.18530273 65.82167969 171.18530273 94.72167969 171.18530273 C95.05167969 167.22530273 95.38167969 163.26530273 95.72167969 159.18530273 C96.05167969 157.86530273 96.38167969 156.54530273 96.72167969 155.18530273 C67.35167969 155.18530273 37.98167969 155.18530273 7.72167969 155.18530273 Z " fill="#000101" transform="translate(204.2783203125,109.814697265625)"/>
<path d="M0 0 C1.14325996 -0.00855011 1.14325996 -0.00855011 2.30961609 -0.01727295 C3.92441417 -0.02672581 5.53923157 -0.03325807 7.15405273 -0.03710938 C9.61671967 -0.04679633 12.07854531 -0.07780803 14.54101562 -0.109375 C16.11067213 -0.1159071 17.68033461 -0.12115676 19.25 -0.125 C19.98350174 -0.1373468 20.71700348 -0.1496936 21.47273254 -0.16241455 C25.9775521 -0.14293114 28.8542361 0.27324784 32.32421875 3.203125 C33.99335401 5.56122401 35.44275268 7.82273812 36.86328125 10.3203125 C37.27081635 11.01448273 37.67835144 11.70865295 38.09823608 12.42385864 C39.39327471 14.6355371 40.67142803 16.85644589 41.94921875 19.078125 C42.81529656 20.56444925 43.68247331 22.05013373 44.55078125 23.53515625 C46.14700931 26.26805907 47.73655205 29.0046144 49.31884766 31.74560547 C49.98062012 32.88658691 50.64239258 34.02756836 51.32421875 35.203125 C51.8661084 36.15977051 52.40799805 37.11641602 52.96630859 38.10205078 C54.15357829 40.3296589 54.15357829 40.3296589 56.32421875 41.203125 C61.68202377 41.93127058 61.68202377 41.93127058 66.18041992 39.62744141 C68.80935216 36.65451154 70.73584037 33.41686969 72.6953125 29.98828125 C73.5253406 28.56572602 74.35542032 27.14320091 75.18554688 25.72070312 C76.47567905 23.49260535 77.76321124 21.263036 79.04907227 19.0324707 C80.29969674 16.86808467 81.55961901 14.70931325 82.8203125 12.55078125 C83.19755966 11.88917496 83.57480682 11.22756866 83.96348572 10.5459137 C86.30658197 6.54161507 88.59320157 3.06461266 92.32421875 0.203125 C95.16506326 -0.28547001 97.39266403 -0.47805175 100.22265625 -0.42578125 C100.97584137 -0.42819321 101.72902649 -0.43060516 102.5050354 -0.43309021 C104.0935799 -0.43211375 105.68215926 -0.4187678 107.27050781 -0.39379883 C109.68543902 -0.35957031 112.09668941 -0.37312591 114.51171875 -0.39257812 C116.06121332 -0.38567621 117.61069852 -0.37600069 119.16015625 -0.36328125 C119.87392426 -0.36824112 120.58769226 -0.37320099 121.3230896 -0.37831116 C128.88936605 -0.20314782 133.69495693 3.29887545 139.07421875 8.390625 C142.50470361 11.56757478 145.98669995 14.59348477 149.63671875 17.515625 C154.45087463 21.40633208 158.97346209 25.53312966 163.48754883 29.76098633 C166.83486118 32.87837226 170.25408663 35.83871667 173.82421875 38.703125 C178.64043315 42.57015846 183.1725309 46.67406548 187.68164062 50.88916016 C190.67578773 53.68784098 193.70241515 56.42077052 196.82421875 59.078125 C204.96326316 66.23427634 204.96326316 66.23427634 206.01171875 71.953125 C205.38746898 80.40450646 198.66609746 87.19783564 193.41601562 93.32592773 C189.91242284 97.42871745 186.65861947 101.67990826 183.44921875 106.015625 C178.98421885 112.03719742 174.39202058 117.931695 169.6862793 123.76660156 C166.49399178 127.72886443 163.35389802 131.72479985 160.26171875 135.765625 C159.05902344 137.33183594 159.05902344 137.33183594 157.83203125 138.9296875 C156.52976692 140.62707889 155.23048591 142.32654101 153.93652344 144.03027344 C140.74945697 161.37032198 140.74945697 161.37032198 135.33203125 162.6875 C131.70526811 162.93384618 129.24600363 162.16475532 126.01171875 160.578125 C122.08574194 157.10865712 120.73081216 154.08823991 119.63671875 149.015625 C120.73646463 142.91703419 124.50648064 138.96164118 128.32421875 134.203125 C129.15532706 133.14193957 129.98471947 132.07940831 130.8125 131.015625 C132.62152428 128.69615369 134.44007271 126.38460904 136.265625 124.078125 C142.00085275 116.8249147 147.65729065 109.50972265 153.32421875 102.203125 C153.80842285 101.57954102 154.29262695 100.95595703 154.79150391 100.31347656 C156.89146805 97.60719004 158.98124942 94.89472894 161.0546875 92.16796875 C162.59212656 90.15950705 164.15838679 88.17284016 165.75 86.20703125 C170.02412755 80.88657304 170.02412755 80.88657304 171.76171875 74.453125 C168.50236052 67.08414117 161.4806161 62.65422807 155.34765625 57.72265625 C152.0648666 54.98699821 148.94074944 52.12443986 145.82421875 49.203125 C140.19320762 43.93278645 134.39039108 38.9730201 128.32421875 34.203125 C127.63328125 33.62820312 126.94234375 33.05328125 126.23046875 32.4609375 C124.22651754 30.89446033 124.22651754 30.89446033 120.88671875 31.140625 C116.60210393 32.41849258 114.50517052 34.40249465 112.32421875 38.203125 C111.83507679 41.10827306 111.63094349 43.42532083 111.66479492 46.31982422 C111.65428006 47.12343447 111.6437652 47.92704472 111.63293171 48.75500679 C111.60467991 51.33969018 111.61020451 53.9230099 111.6171875 56.5078125 C111.60465436 58.11012648 111.58989453 59.71242464 111.57287598 61.31469727 C111.52553407 67.23568568 111.52120451 73.15695493 111.51171875 79.078125 C111.44984375 92.319375 111.38796875 105.560625 111.32421875 119.203125 C77.66421875 119.203125 44.00421875 119.203125 9.32421875 119.203125 C9.13671875 78.515625 9.13671875 78.515625 9.11645508 65.6809082 C9.08656917 61.87554193 9.08656917 61.87554193 9.0500946 58.07023621 C9.03703869 56.37883505 9.03375455 54.68734095 9.03825378 52.99589539 C9.04316648 50.42921132 9.01681896 47.86453288 8.98364258 45.2980957 C8.99226476 44.54788053 9.00088694 43.79766535 9.00977039 43.02471638 C8.92393925 39.11950983 8.45145716 37.36362836 5.99662781 34.26701355 C2.58569575 31.63276727 0.63364739 31.06214042 -3.67578125 31.203125 C-6.1594051 32.76111782 -7.90876981 34.09608064 -9.98828125 36.078125 C-10.54950684 36.58263184 -11.11073242 37.08713867 -11.68896484 37.60693359 C-13.36802083 39.12176005 -15.02257307 40.66019846 -16.67578125 42.203125 C-18.38184669 43.74730102 -20.08996758 45.28921127 -21.80078125 46.828125 C-22.6 47.55515625 -23.39921875 48.2821875 -24.22265625 49.03125 C-26.77542715 51.29134653 -29.39595802 53.439096 -32.05078125 55.578125 C-33.92806288 57.11701252 -35.80293223 58.65884599 -37.67578125 60.203125 C-38.22186035 60.64446777 -38.76793945 61.08581055 -39.33056641 61.54052734 C-41.02923581 62.9255813 -42.69750139 64.34127685 -44.36328125 65.765625 C-44.8929248 66.18827637 -45.42256836 66.61092773 -45.96826172 67.04638672 C-48.01351994 68.83607263 -49.49916889 70.45185779 -50.12988281 73.13476562 C-50.37565529 78.00887032 -49.19088031 80.77575051 -46.05078125 84.578125 C-45.22707031 85.60421875 -44.40335938 86.6303125 -43.5546875 87.6875 C-43.09465332 88.24630859 -42.63461914 88.80511719 -42.16064453 89.38085938 C-39.97233377 92.06641536 -37.86386616 94.81197797 -35.74633789 97.5534668 C-33.9558063 99.87014265 -32.15695678 102.1801172 -30.35546875 104.48828125 C-29.74670898 105.2683252 -29.13794922 106.04836914 -28.51074219 106.85205078 C-27.90520508 107.62790527 -27.29966797 108.40375977 -26.67578125 109.203125 C-25.49069504 110.72250778 -24.30579694 112.2420373 -23.12109375 113.76171875 C-22.54012939 114.50663574 -21.95916504 115.25155273 -21.3605957 116.01904297 C-20.19967801 117.5116746 -19.04193589 119.00678173 -17.88745117 120.50439453 C-14.95212037 124.30922196 -11.97695983 128.06498033 -8.90625 131.76171875 C-7.99854858 132.88018188 -7.99854858 132.88018188 -7.07250977 134.02124023 C-5.92965283 135.42866926 -4.7684751 136.82150941 -3.58569336 138.19555664 C0.06991483 142.75833754 0.91904117 146.1202869 0.74780273 151.95507812 C0.01856398 155.82529742 -1.81885832 157.54552227 -4.67578125 160.203125 C-8.76709158 162.93066522 -11.87651339 163.15511092 -16.67578125 162.203125 C-23.98966458 158.42869124 -28.7915495 149.9484863 -33.52734375 143.46484375 C-36.5105775 139.39133331 -39.62652079 135.44125326 -42.80078125 131.515625 C-46.84763754 126.49770531 -50.83429913 121.44524731 -54.7487793 116.32299805 C-57.1563995 113.17420569 -59.58045549 110.03944195 -62.0234375 106.91796875 C-67.76734884 99.57725793 -73.47305956 92.21794782 -78.98828125 84.703125 C-79.45032959 84.07422363 -79.91237793 83.44532227 -80.38842773 82.79736328 C-83.985235 77.86164882 -85.19466941 75.42978287 -84.67578125 69.203125 C-81.96083859 64.45197535 -78.63857454 60.99621947 -74.61328125 57.390625 C-73.75283203 56.60751953 -73.75283203 56.60751953 -72.875 55.80859375 C-68.53847313 51.89420666 -64.04464276 48.2025604 -59.48828125 44.546875 C-56.2772832 41.87104329 -53.22548988 39.05954224 -50.17578125 36.203125 C-45.43844707 31.76604439 -40.55780964 27.61360192 -35.4921875 23.55078125 C-32.25755987 20.85451051 -29.18525657 18.01894887 -26.11328125 15.140625 C-9.99862109 0.05745591 -9.99862109 0.05745591 0 0 Z " fill="#00C5D9" transform="translate(195.67578125,127.796875)"/>
<path d="M0 0 C33.66 0 67.32 0 102 0 C102.1209091 46.6933042 102.1209091 46.6933042 102.14648438 66.22851562 C102.16429982 79.72830618 102.18526718 93.22804064 102.22631836 106.7277832 C102.25619869 116.55865419 102.27556978 126.38947977 102.28226548 136.22039491 C102.28618005 141.42689116 102.2953948 146.63325749 102.31719017 151.83971214 C102.33753369 156.73898711 102.3438381 161.63807847 102.33932304 166.53739166 C102.3401492 168.33652811 102.34612753 170.13567063 102.35761642 171.93477058 C102.37252724 174.38990137 102.36895895 176.84433762 102.36076355 179.29948425 C102.36950207 180.01252738 102.3782406 180.7255705 102.38724393 181.46022099 C102.33532694 187.20850066 100.68970216 190.26336167 96.75 194.3125 C93.14075498 196.52726399 91.18143048 196.57674903 87 196 C82.17298636 194.14269228 79.26179038 191.66680384 77 187 C76.62641239 184.20785141 76.62641239 184.20785141 76.62818909 181.10638428 C76.62143158 179.92612167 76.61467407 178.74585907 76.60771179 177.52983093 C76.61543106 176.24349258 76.62315033 174.95715424 76.63110352 173.63183594 C76.62863417 172.25655315 76.62479441 170.88127224 76.61968994 169.5059967 C76.61136212 166.54853796 76.61215095 163.59127184 76.61987495 160.63381195 C76.63147881 155.95136141 76.61927692 151.26915746 76.60325623 146.58673096 C76.56709341 134.95409632 76.56082776 123.32146749 76.56335449 111.68878174 C76.5650682 102.65146551 76.55786652 93.61435135 76.52337593 84.57709146 C76.50663487 79.92882308 76.50833112 75.28104847 76.52419865 70.63278246 C76.53002167 67.73146608 76.5192087 64.83038057 76.50395203 61.92910576 C76.49848794 59.95682314 76.51278327 57.98451622 76.52781677 56.01228333 C76.45569972 47.04000403 74.7250237 41.12646446 69.8125 33.6875 C64.01593974 28.14856464 58.53243276 26.7288618 50.5625 26.375 C43.37744871 26.59120014 38.33902338 28.11361059 33 33 C28.78069302 38.19826451 26.87892914 42.86991686 26.86196899 49.58390808 C26.85651566 50.74603821 26.85106232 51.90816833 26.84544373 53.10551453 C26.84388023 55.02011223 26.84388023 55.02011223 26.84228516 56.97338867 C26.83761616 58.33029342 26.83247245 59.68719661 26.82688904 61.0440979 C26.81561019 63.96769756 26.80717486 66.89128703 26.80076981 69.81490135 C26.7900825 74.44225729 26.76983447 79.06954031 26.74765015 83.69685364 C26.68575444 96.85589242 26.63175853 110.0149273 26.59863281 123.17407227 C26.58026017 130.44069277 26.55128955 137.70719141 26.5106281 144.97372228 C26.48959924 148.81705313 26.47410673 152.66023066 26.47182083 156.50362206 C26.46966591 160.12262614 26.45371121 163.74131125 26.42743111 167.36021805 C26.41686775 169.31239776 26.42097889 171.26463986 26.4256134 173.21684265 C26.35351893 180.86127894 26.11424415 187.42777877 20.875 193.4375 C16.9445678 195.57360446 13.47121114 196.32331509 9 196 C3.94197063 193.65831974 2.068664 191.07704801 0 186 C-0.27128319 183.32267619 -0.3938032 180.88742741 -0.36076355 178.2171936 C-0.36332682 177.45252632 -0.3658901 176.68785903 -0.36853105 175.90002 C-0.37345673 173.34800572 -0.35699646 170.79658832 -0.34057617 168.24462891 C-0.33972964 166.41125502 -0.34020556 164.57788013 -0.34190369 162.74450684 C-0.34276403 157.77385698 -0.32513189 152.80342454 -0.30418181 147.83282518 C-0.28542155 142.63582494 -0.28366508 137.43881965 -0.28010559 132.24179077 C-0.27078323 122.40338683 -0.2461668 112.56508296 -0.21605712 102.72672307 C-0.17624742 89.43010273 -0.16005979 76.133455 -0.14255047 62.83679008 C-0.1143459 41.89111844 -0.05457757 20.94565797 0 0 Z " fill="#00A297" transform="translate(205,299)"/>
<path d="M0 0 C0.87914062 0.47050781 1.75828125 0.94101563 2.6640625 1.42578125 C16.12840765 9.1111818 24.61363575 19.8454205 28.8125 34.875 C31.86680604 48.54083787 29.93822923 62.26435123 22.79296875 74.3671875 C14.60016015 86.39758618 3.48387987 94.96137588 -10.8125 98.25 C-25.7093738 100.80572333 -39.10669515 97.77981284 -52 90 C-62.52851682 82.44924551 -70.36670777 70.72757912 -73 58 C-75.14732849 44.04236484 -73.0738681 30.57277964 -65.43359375 18.53125 C-51.00204521 -1.02333085 -22.81046959 -12.31462229 0 0 Z " fill="#010000" transform="translate(278,4)"/>
<path d="M0 0 C8.73127439 4.69377333 13.65823702 12.88697394 17 22 C17.30636074 24.73240664 17.47874534 27.15673574 17.4375 29.875 C17.42992676 30.57753906 17.42235352 31.28007813 17.41455078 32.00390625 C17.22989893 37.83728748 16.13553172 42.12032876 13 47 C12.38125 48.02480469 12.38125 48.02480469 11.75 49.0703125 C6.84695149 56.39702703 -0.45483577 61.77174069 -9 64 C-17.82082945 64.78610501 -26.35514998 65.012774 -34 60 C-34.77988281 59.49082031 -35.55976563 58.98164062 -36.36328125 58.45703125 C-41.63868137 54.68395457 -45.12704487 50.80224271 -48 45 C-48.31839844 44.40832031 -48.63679687 43.81664062 -48.96484375 43.20703125 C-52.17221412 36.2749727 -52.29767142 27.5851057 -50.23828125 20.30859375 C-49.29040237 18.09437865 -48.23457528 16.06619891 -47 14 C-46.4225 12.96875 -45.845 11.9375 -45.25 10.875 C-33.30639459 -4.38627358 -17.63776196 -7.33383625 0 0 Z " fill="#FCE1BC" transform="translate(273,21)"/>
<path d="M0 0 C5.28 0 10.56 0 16 0 C16.06941528 24.2954003 16.12296766 48.59077675 16.15543652 72.88625622 C16.17091236 84.16679953 16.19201564 95.44728014 16.22631836 106.7277832 C16.25619869 116.55865419 16.27556978 126.38947977 16.28226548 136.22039491 C16.28618005 141.42689116 16.2953948 146.63325749 16.31719017 151.83971214 C16.33753369 156.73898711 16.3438381 161.63807847 16.33932304 166.53739166 C16.3401492 168.33652811 16.34612753 170.13567063 16.35761642 171.93477058 C16.37252724 174.38990137 16.36895895 176.84433762 16.36076355 179.29948425 C16.36950207 180.01252738 16.3782406 180.7255705 16.38724393 181.46022099 C16.33532694 187.20850066 14.68970216 190.26336167 10.75 194.3125 C7.22817004 196.47362293 5.06999047 196.44399896 1 196 C-1.4375 195 -1.4375 195 -3 194 C-2.6757435 193.17208639 -2.35148701 192.34417278 -2.01740456 191.49117088 C-0.89267116 187.63170668 -0.71074566 184.12019743 -0.7215271 180.14126587 C-0.7157347 179.36843148 -0.7099423 178.59559708 -0.70397437 177.79934347 C-0.68702218 175.21986459 -0.68410201 172.64056516 -0.68115234 170.06103516 C-0.67185087 168.20795251 -0.66168187 166.35487405 -0.65071106 164.50180054 C-0.6234218 159.47753155 -0.60826479 154.45329059 -0.59528303 149.428967 C-0.57964784 144.17586842 -0.55285884 138.92282702 -0.5272522 133.66976929 C-0.48047133 123.725187 -0.44372384 113.78059395 -0.41057932 103.83595788 C-0.37235308 92.51314512 -0.32294421 81.19038981 -0.27259517 69.86762547 C-0.16928559 46.57845876 -0.08041863 23.28925603 0 0 Z " fill="#007B6F" transform="translate(291,299)"/>
<path d="M0 0 C8.16622468 -0.59151728 13.04158768 0.58757559 19.265625 5.953125 C20.96854893 7.48468551 22.6594275 9.02971491 24.33984375 10.5859375 C26.92677843 12.93355223 29.5859119 15.12964198 32.3125 17.3125 C37.12665588 21.20320708 41.64924334 25.33000466 46.16333008 29.55786133 C49.51064243 32.67524726 52.92986788 35.63559167 56.5 38.5 C61.3162144 42.36703346 65.84831215 46.47094048 70.35742188 50.68603516 C73.35156898 53.48471598 76.3781964 56.21764552 79.5 58.875 C87.63904441 66.03115134 87.63904441 66.03115134 88.6875 71.75 C88.06325023 80.20138146 81.34187871 86.99471064 76.09179688 93.12280273 C72.58820409 97.22559245 69.33440072 101.47678326 66.125 105.8125 C61.66690673 111.82475802 57.09412653 117.7210575 52.37744141 123.53271484 C49.9053805 126.58586104 47.48864325 129.66074218 45.1640625 132.828125 C44.71434082 133.43567627 44.26461914 134.04322754 43.80126953 134.66918945 C42.95541009 135.81863785 42.11979709 136.97572233 41.29638672 138.14135742 C40.15625 139.68359375 40.15625 139.68359375 38 142 C33.86356447 142 33.30197567 141.84767359 30.25 139.5 C29.63640625 139.0359375 29.0228125 138.571875 28.390625 138.09375 C27.93171875 137.7328125 27.4728125 137.371875 27 137 C31.43152192 129.82793163 36.63782058 123.36309852 41.92578125 116.8203125 C45.90951295 111.88783826 49.76057453 106.85917802 53.60498047 101.81738281 C55.20608511 99.7315195 56.82344098 97.65874709 58.44140625 95.5859375 C59.62764552 94.05732375 60.81384381 92.52867821 62 91 C62.56452881 90.28150879 63.12905762 89.56301758 63.71069336 88.82275391 C69.02232564 81.9494483 70.87699303 76.74252423 70 68 C67.13789905 58.96178649 61.24761108 54.26623788 54.09375 48.5546875 C50.75804388 45.84815868 47.63086687 42.93866953 44.5 40 C40.60466487 36.35069808 36.66660839 32.8429765 32.5 29.5 C27.74637702 25.68604668 23.29833714 21.62609337 18.85791016 17.45898438 C14.48871257 13.38403087 9.94711794 9.62326153 5.2421875 5.9375 C3.1207602 4.10435028 1.57593797 2.30725559 0 0 Z " fill="#00919D" transform="translate(313,128)"/>
<path d="M0 0 C2.66374207 1.61248779 2.66374207 1.61248779 5 4 C5.60127258 6.9866333 5.60127258 6.9866333 5.56762695 10.51269531 C5.56835709 11.15701508 5.56908722 11.80133484 5.56983948 12.46517944 C5.56636616 14.58702899 5.52752539 16.70666091 5.48828125 18.828125 C5.47895201 20.30213217 5.47183642 21.77615487 5.46684265 23.25018311 C5.44778097 27.12381029 5.39868918 30.99649526 5.34332275 34.86975098 C5.29211125 38.82449599 5.26932467 42.77939375 5.24414062 46.734375 C5.19056769 54.49006197 5.10264078 62.24477876 5 70 C-0.61 70 -6.22 70 -12 70 C-12.09044765 61.74178188 -12.16379963 53.48395022 -12.20724869 45.22536945 C-12.22810438 41.39037453 -12.25638415 37.55573669 -12.30175781 33.72094727 C-12.34528908 30.01860747 -12.36915229 26.31661066 -12.37950897 22.61403465 C-12.38688742 21.20303131 -12.40129614 19.79204628 -12.42292023 18.38118935 C-12.45204479 16.40185552 -12.45363467 14.42217498 -12.45410156 12.44262695 C-12.46298401 11.31677689 -12.47186646 10.19092682 -12.48101807 9.03096008 C-11.89175037 5.31790439 -10.59228686 3.67044939 -8 1 C-5.14675563 -0.42662219 -3.16545451 -0.31033868 0 0 Z " fill="#0093A0" transform="translate(302,177)"/>
<path d="M0 0 C7.72249426 0.64354119 14.39557038 3.54305537 20 9 C25.59547193 16.33691982 29.58082499 23.42920073 29.4375 32.875 C29.42992676 33.57753906 29.42235352 34.28007813 29.41455078 35.00390625 C29.22989893 40.83728748 28.13553172 45.12032876 25 50 C24.5875 50.68320313 24.175 51.36640625 23.75 52.0703125 C19.26695693 58.76940527 12.9382885 63.24964955 5.625 66.5 C2.9187619 67.01547392 1.58810846 66.74889947 -1 66 C0.3303125 64.63875 0.3303125 64.63875 1.6875 63.25 C10.92683156 52.52186619 11.84825264 38.8906198 11.2265625 25.40771484 C10.33369227 15.91904431 5.73489657 7.44945327 0 0 Z " fill="#C7B294" transform="translate(261,18)"/>
<path d="M0 0 C6.23100303 2.32934693 10.84948113 9.32644471 14 15 C15.04631727 18.64475448 15.12699755 21.37657183 14 25 C12.00890856 28.57356337 9.40268954 30.7315403 6 33 C2.04078968 33.88242755 -1.51046184 33.84239798 -5.0859375 31.8203125 C-10.77338173 27.121989 -14.87979242 21.05977338 -19 15 C-15.22180665 10.99063612 -11.20415407 7.82729557 -6.6875 4.6875 C-6.04232422 4.23310547 -5.39714844 3.77871094 -4.73242188 3.31054688 C-3.15802858 2.20264048 -1.57944354 1.10069475 0 0 Z " fill="#FAE1BB" transform="translate(182,257)"/>
<path d="M0 0 C5.19031078 1.6174933 9.06772586 4.85512037 13.3125 8.125 C14.05306641 8.68832031 14.79363281 9.25164062 15.55664062 9.83203125 C17.37501609 11.21634289 19.18924674 12.60574226 21 14 C17.51145405 21.23787313 11.86287697 28.71070189 5 33 C0.61557025 33.98119295 -2.29659242 33.34506787 -6.3125 31.375 C-10.23847681 27.90553212 -11.59340659 24.88511491 -12.6875 19.8125 C-11.59793914 13.77038976 -7.79529318 9.69563645 -4 5 C-3.25234375 4.06414062 -2.5046875 3.12828125 -1.734375 2.1640625 C-1.16203125 1.44992187 -0.5896875 0.73578125 0 0 Z " fill="#FAE0BB" transform="translate(328,257)"/>
<path d="M0 0 C1.51056694 0.89914699 3.00825429 1.81996101 4.5 2.75 C5.75296875 3.51570313 5.75296875 3.51570313 7.03125 4.296875 C7.6809375 4.85890625 8.330625 5.4209375 9 6 C9 13.09879046 2.92760873 17.76094353 -1.65234375 22.828125 C-4.25169044 25.33386641 -6.47378645 26.33586246 -10 26.5625 C-14.27251271 26.30779251 -16.70696816 24.63442547 -20 22 C-19.01 21.34 -18.02 20.68 -17 20 C-9.98821929 14.66731534 -3.96344744 7.92689488 0 0 Z " fill="#C6B294" transform="translate(339,264)"/>
</svg>
